<?xml version="1.0" standalone="no"?>
<!DOCTYPE svg PUBLIC "-//W3C//DTD SVG 20010904//EN"
 "http://www.w3.org/TR/2001/REC-SVG-20010904/DTD/svg10.dtd">
<svg version="1.0" xmlns="http://www.w3.org/2000/svg"
 width="1240.000000pt" height="354.000000pt" viewBox="0 0 1240.000000 354.000000"
 preserveAspectRatio="xMidYMid meet">

<g transform="translate(0.000000,354.000000) scale(0.100000,-0.100000)"
fill="#000000" stroke="none">
<path d="M1259 2616 c-9 -20 -23 -32 -37 -34 -22 -3 -23 -6 -17 -57 6 -48 5
-55 -14 -67 -26 -16 -26 -28 -1 -61 11 -14 20 -37 20 -51 0 -14 12 -55 26 -91
25 -62 25 -67 10 -84 -16 -18 -16 -20 10 -40 15 -11 30 -21 35 -21 5 0 4 -12
-1 -26 -6 -14 -10 -40 -10 -58 0 -37 23 -76 34 -58 13 21 26 13 26 -16 0 -15
-7 -38 -17 -51 -15 -23 -15 -25 2 -37 10 -8 25 -14 32 -14 7 0 13 -7 13 -16 0
-27 -35 -75 -105 -143 -58 -57 -70 -64 -113 -69 -41 -3 -53 0 -78 21 -26 23
-29 31 -28 84 1 46 12 84 51 178 91 217 111 313 79 389 -42 100 -171 103 -221
6 -8 -16 -15 -55 -15 -88 0 -42 -7 -72 -24 -106 -28 -55 -18 -66 42 -48 19 6
39 9 43 6 12 -7 49 47 49 73 0 14 9 37 21 51 l20 27 -25 8 c-15 5 -29 19 -32
33 -14 55 54 76 81 24 32 -62 13 -145 -75 -321 -72 -142 -94 -216 -87 -280 12
-96 64 -152 161 -170 31 -5 60 -8 64 -5 8 5 26 -68 39 -153 7 -40 -3 -48 -74
-57 -46 -5 -55 -10 -72 -40 -13 -21 -28 -34 -41 -34 -26 0 -25 -8 1 -37 20
-20 20 -23 5 -29 -21 -8 -20 -20 4 -41 11 -10 20 -30 20 -46 0 -24 3 -27 20
-22 17 5 20 2 20 -20 0 -22 4 -25 20 -20 15 5 23 -2 39 -34 31 -59 54 -71 138
-71 41 0 75 -5 79 -11 4 -6 21 5 45 30 49 50 53 98 13 138 -22 22 -31 25 -67
19 -83 -12 -81 -13 -99 24 -9 19 -18 48 -20 65 -3 29 -1 30 60 47 132 35 169
71 179 173 6 54 7 55 37 55 75 0 146 -42 146 -85 0 -26 -22 -47 -68 -65 -19
-7 -41 -25 -50 -39 -8 -14 -23 -32 -31 -39 -14 -12 -14 -15 5 -31 12 -9 21
-28 20 -41 -1 -20 3 -25 22 -23 18 2 22 -2 22 -23 0 -20 4 -24 19 -19 13 4 20
0 24 -16 4 -13 10 -18 18 -14 7 5 24 -7 44 -31 32 -38 33 -39 121 -45 49 -3
91 -2 92 3 2 4 9 14 16 21 18 20 36 66 36 96 0 55 -50 74 -133 49 -39 -12 -41
-11 -68 22 -16 19 -29 42 -29 51 0 10 31 40 70 69 95 70 116 115 89 187 -15
40 -94 118 -163 160 l-59 36 29 25 c25 22 29 23 32 9 4 -19 32 -23 49 -6 8 8
17 8 31 0 28 -15 42 -14 42 4 0 14 3 14 24 0 16 -11 26 -13 31 -6 4 7 31 9 75
5 62 -6 73 -4 114 20 24 14 54 26 65 26 14 0 21 6 21 20 0 11 5 20 10 20 6 0
10 19 10 43 0 90 -79 117 -164 57 l-45 -33 -75 24 c-78 25 -92 42 -38 47 29 3
69 32 43 32 -21 0 -11 18 14 24 20 5 24 11 19 30 -6 24 23 55 86 93 32 19 60
67 60 105 0 12 6 35 14 50 12 23 12 29 0 39 -8 6 -14 17 -14 25 0 7 -9 15 -19
19 -11 3 -22 12 -25 20 -3 9 -19 15 -40 15 -50 0 -76 -36 -76 -106 l0 -53 -55
-31 -55 -32 -30 25 c-16 14 -61 37 -99 52 -75 30 -121 65 -85 65 10 0 28 3 40
6 13 3 28 -1 37 -11 22 -21 34 -13 48 35 10 34 10 43 -5 59 -16 17 -15 18 32
13 35 -3 51 0 61 11 14 17 6 57 -10 57 -6 0 -7 -5 -4 -10 11 -18 -15 -40 -46
-40 -34 0 -36 9 -10 39 13 14 18 34 17 64 -3 57 -8 64 -63 72 -69 10 -143 31
-178 49 -23 13 -55 16 -146 14 l-117 -2 -13 -30z m246 4 c4 -6 -12 -10 -42
-10 -26 0 -53 -4 -59 -8 -18 -12 -24 -41 -13 -69 12 -32 26 -43 54 -43 17 0
17 2 -5 13 -19 9 -26 22 -28 50 -3 35 -1 37 25 37 16 0 39 -7 52 -16 22 -16
23 -16 16 5 -6 19 -3 21 27 20 50 -2 91 -13 95 -25 2 -7 -6 -10 -24 -7 l-28 4
23 -17 c12 -9 22 -26 22 -38 1 -16 5 -13 18 14 12 24 25 36 43 38 33 4 82 -15
74 -28 -4 -6 -11 -8 -16 -5 -5 4 -9 2 -9 -3 0 -6 7 -13 16 -16 9 -3 14 -15 12
-28 -3 -21 -8 -23 -70 -23 -77 0 -101 -15 -101 -65 0 -36 17 -51 50 -45 13 3
33 7 46 10 34 7 51 -8 43 -40 -6 -22 -9 -25 -21 -15 -10 9 -32 10 -65 6 -42
-6 -52 -4 -70 14 -17 17 -24 19 -36 9 -11 -9 -14 -7 -14 15 0 32 -10 33 -35 4
l-19 -23 -7 29 c-4 15 -5 35 -2 44 4 15 3 15 -6 2 -12 -17 -12 -78 0 -86 5 -3
18 0 29 6 17 9 24 7 40 -12 11 -13 19 -18 20 -11 0 17 30 4 30 -13 0 -26 47
-62 118 -88 85 -33 125 -69 140 -128 6 -23 9 -44 7 -47 -7 -7 -35 21 -35 35 0
7 -11 26 -25 41 l-26 28 21 -40 c11 -22 20 -50 20 -63 0 -21 -3 -23 -27 -17
l-28 7 29 -27 c29 -27 45 -22 46 15 0 10 3 11 11 3 13 -13 -7 -113 -22 -113
-6 0 -21 12 -34 26 -28 31 -34 17 -7 -15 11 -14 41 -27 82 -37 36 -8 84 -22
106 -30 46 -18 63 -13 118 33 31 26 86 29 94 5 3 -9 -4 -11 -25 -7 -26 5 -27
5 -5 -6 29 -16 29 -38 -1 -32 -14 3 -29 -2 -38 -13 -13 -16 -12 -16 8 -3 29
17 42 4 36 -36 -4 -24 -14 -36 -47 -53 -46 -25 -48 -25 -143 -19 -50 3 -67 9
-83 28 -12 13 -19 19 -15 12 3 -7 0 -21 -7 -32 -11 -19 -14 -19 -30 -4 -10 9
-18 22 -18 28 0 7 -7 18 -15 25 -14 11 -14 10 -6 -13 11 -27 5 -57 -10 -57 -4
0 -20 17 -35 38 -37 50 -48 61 -41 41 5 -16 -9 -39 -25 -39 -4 0 -8 5 -8 11 0
6 -15 28 -34 49 -26 29 -35 49 -40 93 -4 31 -14 61 -22 68 -13 10 -13 8 -4
-15 5 -15 10 -47 10 -71 0 -37 6 -51 39 -89 21 -25 41 -51 44 -58 4 -11 8 -11
27 0 12 7 25 11 28 7 9 -9 -44 -49 -126 -94 -67 -36 -72 -38 -67 -18 6 21 5
21 -9 3 -8 -10 -17 -44 -20 -75 -16 -162 -27 -226 -41 -247 -20 -31 -80 -61
-153 -78 -40 -9 -58 -18 -60 -30 -6 -27 18 -103 40 -131 16 -20 23 -22 51 -14
44 13 91 11 105 -3 16 -16 16 -33 0 -21 -7 6 -22 13 -33 16 -18 6 -17 5 3 -9
33 -24 27 -36 -15 -30 -26 4 -30 3 -14 -2 30 -9 36 -25 16 -42 -8 -7 -15 -19
-15 -26 0 -10 -16 -14 -61 -14 -75 0 -93 10 -120 61 -11 23 -29 44 -40 46 -12
4 -18 11 -15 19 21 51 21 50 -1 32 -41 -37 -58 -15 -23 29 26 34 26 53 0 25
-16 -17 -25 -20 -40 -12 -17 9 -17 12 11 39 16 16 29 35 29 42 0 8 -5 6 -13
-5 -8 -11 -19 -15 -30 -10 -16 6 -15 8 5 30 13 13 31 33 41 44 11 13 29 20 51
20 19 0 47 5 62 10 30 12 29 -11 5 210 -5 45 -10 60 -15 48 -11 -23 -80 -24
-136 -2 -48 19 -75 54 -91 117 -16 64 -4 108 82 294 81 176 99 242 81 302 -7
22 -19 47 -28 56 -23 23 -70 19 -88 -7 -22 -32 -20 -55 9 -84 29 -29 30 -34
11 -34 -9 0 -12 -7 -9 -18 5 -20 -14 -78 -24 -69 -3 4 -17 -3 -31 -13 -13 -11
-33 -20 -44 -20 -17 0 -17 2 -3 23 8 13 18 59 21 103 8 96 22 126 69 148 79
38 145 -22 145 -131 0 -67 -23 -140 -96 -308 -88 -203 -66 -305 66 -305 57 0
84 17 171 107 54 55 79 88 84 113 13 63 55 89 55 34 0 -17 5 -24 19 -24 26 0
51 37 50 75 l-1 30 -9 -31 c-10 -34 -39 -55 -39 -28 0 8 -7 26 -16 40 -9 13
-20 39 -25 57 -7 28 -8 26 -5 -15 3 -35 -1 -51 -14 -63 -21 -19 -75 -21 -63
-2 10 16 20 167 11 167 -4 0 -10 -11 -14 -24 -7 -30 -32 -42 -41 -20 -3 9 1
40 11 68 9 29 16 61 16 72 -1 18 -1 18 -11 2 -11 -19 -44 -24 -54 -9 -3 5 -1
12 5 16 16 10 12 35 -15 100 -14 34 -25 80 -25 107 0 38 -3 46 -15 42 -19 -8
-20 15 0 30 9 6 16 31 17 60 3 40 9 55 36 82 18 18 43 35 55 37 45 9 176 7
182 -3z m202 -186 c2 -7 -16 -13 -49 -17 -29 -2 -54 -4 -56 -2 -2 1 5 10 14
19 18 19 85 19 91 0z m-17 -34 c0 -14 -50 -32 -69 -25 -13 5 -11 9 9 20 30 17
60 19 60 5z m316 -65 c-15 -14 -26 -34 -25 -47 1 -20 2 -21 6 -3 7 29 25 47
35 37 5 -5 4 -21 -2 -37 -6 -15 -9 -30 -6 -32 2 -3 7 5 11 16 8 27 16 26 43
-1 18 -20 19 -29 11 -73 -9 -52 -14 -58 -93 -112 -32 -23 -48 -42 -52 -63 -4
-19 -13 -30 -24 -30 -24 0 -31 -10 -20 -30 9 -17 -4 -30 -31 -30 -12 0 -12 63
1 76 6 6 4 27 -5 58 -8 27 -15 52 -15 57 0 4 24 22 53 40 66 42 67 44 67 104
0 54 4 64 35 82 34 20 39 14 11 -12z m69 -15 c3 -5 -3 -10 -14 -10 -12 0 -21
5 -21 10 0 6 6 10 14 10 8 0 18 -4 21 -10z m25 -46 c0 -8 -6 -11 -15 -8 -8 4
-15 12 -15 20 0 8 6 11 15 8 8 -4 15 -12 15 -20z m84 -420 c3 -8 2 -12 -4 -9
-6 3 -10 10 -10 16 0 14 7 11 14 -7z m-4 -49 c0 -5 -5 -3 -10 5 -5 8 -10 20
-10 25 0 6 5 3 10 -5 5 -8 10 -19 10 -25z m-24 -42 c-11 -11 -19 6 -11 24 8
17 8 17 12 0 3 -10 2 -21 -1 -24z m-468 -147 c122 -62 204 -159 188 -222 -8
-32 -68 -91 -133 -132 -24 -15 -43 -34 -43 -41 0 -19 49 -90 70 -101 10 -5 38
-2 73 7 46 13 59 14 72 3 22 -18 19 -33 -4 -20 -11 5 -28 10 -38 10 -11 -1 -6
-6 15 -15 40 -18 44 -40 5 -30 -24 5 -26 5 -12 -7 15 -12 14 -16 -5 -43 -18
-26 -28 -30 -74 -33 -51 -4 -54 -2 -90 37 -21 23 -43 41 -50 41 -6 0 -12 9
-12 20 0 17 -3 19 -19 10 -26 -13 -34 1 -21 35 12 32 12 59 0 29 -9 -23 -50
-40 -50 -20 0 6 7 22 16 34 8 12 13 28 11 35 -3 7 -6 5 -6 -5 -1 -18 -19 -28
-38 -20 -21 7 43 80 76 87 36 8 69 38 77 71 13 52 -57 110 -145 121 -65 7 -65
20 -1 83 33 32 46 51 39 56 -9 5 -6 11 6 21 26 18 38 17 93 -11z m-148 -50
c-32 -31 -35 -33 -38 -14 -4 22 23 47 53 48 16 0 13 -6 -15 -34z m410 -482 c0
-8 -5 -12 -10 -9 -6 4 -8 11 -5 16 9 14 15 11 15 -7z m-23 -56 c-3 -7 -5 -2
-5 12 0 14 2 19 5 13 2 -7 2 -19 0 -25z m-24 -18 c-3 -11 -9 -20 -14 -20 -10
0 -12 24 -2 33 13 13 21 7 16 -13z m-453 -20 c0 -11 -2 -20 -4 -20 -2 0 -6 9
-9 20 -3 11 -1 20 4 20 5 0 9 -9 9 -20z m-20 -20 c0 -11 -4 -20 -10 -20 -5 0
-10 9 -10 20 0 11 5 20 10 20 6 0 10 -9 10 -20z m-34 -47 c-5 -12 -10 -13 -18
-5 -8 8 -8 15 3 28 15 18 25 4 15 -23z"/>
<path d="M1458 2560 c12 -5 22 -14 22 -20 0 -5 5 -10 10 -10 7 0 7 6 0 20 -6
11 -20 20 -33 19 l-22 0 23 -9z"/>
<path d="M1286 2280 c3 -30 7 -56 8 -58 8 -7 54 18 60 34 5 14 4 15 -9 4 -22
-19 -41 -6 -54 37 -10 36 -10 36 -5 -17z"/>
<path d="M1364 2175 c-4 -16 2 -44 15 -75 11 -27 21 -56 21 -64 0 -17 17 -21
36 -8 15 9 37 52 31 59 -3 2 -10 -5 -17 -16 -6 -12 -14 -21 -19 -21 -14 0 -62
117 -55 134 3 9 3 16 0 16 -3 0 -8 -11 -12 -25z"/>
<path d="M1696 2051 c7 -14 7 -131 -1 -139 -2 -3 -16 3 -30 12 -31 20 -34 3
-3 -18 30 -22 72 -21 64 0 -3 9 -6 39 -6 68 0 33 -6 59 -16 72 -8 10 -12 13
-8 5z"/>
<path d="M2480 1765 l0 -355 355 0 355 0 0 355 0 355 -355 0 -355 0 0 -355z
m690 5 c0 -181 -1 -330 -3 -330 -1 0 -151 149 -332 330 l-330 330 333 0 332 0
0 -330z"/>
<path d="M3500 1770 l0 -180 55 0 55 0 0 40 c0 39 32 100 52 100 4 0 24 -31
43 -70 l35 -70 65 0 c36 0 65 2 65 5 0 2 -27 48 -59 102 -33 54 -61 103 -63
109 -2 7 26 42 61 78 l63 66 -75 0 -75 0 -54 -66 -53 -66 -3 66 -3 66 -54 0
-55 0 0 -180z"/>
<path d="M4598 1922 c-35 -20 -48 -33 -48 -49 0 -14 -6 -23 -15 -23 -10 0 -15
-11 -15 -35 0 -23 5 -35 14 -35 10 0 15 -20 18 -80 4 -100 16 -115 93 -115 29
0 56 2 58 5 3 3 3 17 0 33 -4 20 -11 27 -29 27 -23 0 -24 3 -24 65 0 63 1 65
25 65 22 0 25 4 25 35 0 30 -3 35 -24 35 -23 0 -25 4 -28 49 l-3 50 -47 -27z"/>
<path d="M6280 1770 l0 -180 50 0 50 0 0 83 c0 85 8 107 42 107 27 0 38 -32
38 -114 l0 -76 45 0 45 0 0 109 c0 92 -3 112 -19 132 -25 31 -98 34 -130 5
l-21 -19 0 66 0 67 -50 0 -50 0 0 -180z"/>
<path d="M6940 1770 l0 -180 45 0 45 0 0 180 0 180 -45 0 -45 0 0 -180z"/>
<path d="M7560 1770 l0 -182 128 4 c141 4 167 13 187 61 18 44 8 85 -25 106
l-28 16 24 28 c31 36 31 78 0 114 -24 28 -26 28 -155 31 l-131 4 0 -182z m195
70 c0 -22 -5 -25 -42 -28 -42 -3 -43 -2 -43 28 0 30 1 31 43 28 37 -3 42 -6
42 -28z m15 -125 c20 -25 -5 -45 -56 -45 -42 0 -44 1 -44 30 0 29 2 30 44 30
26 0 48 -6 56 -15z"/>
<path d="M7980 1920 c0 -27 3 -30 30 -30 27 0 30 3 30 30 0 27 -3 30 -30 30
-27 0 -30 -3 -30 -30z"/>
<path d="M8080 1920 c0 -27 3 -30 30 -30 27 0 30 3 30 30 0 27 -3 30 -30 30
-27 0 -30 -3 -30 -30z"/>
<path d="M8580 1770 l0 -180 45 0 45 0 0 180 0 180 -45 0 -45 0 0 -180z"/>
<path d="M9260 1915 c0 -35 0 -35 45 -35 45 0 45 0 45 35 0 35 0 35 -45 35
-45 0 -45 0 -45 -35z"/>
<path d="M3953 1850 c-32 -10 -63 -43 -63 -66 0 -18 82 -24 102 -7 21 18 73
13 73 -7 0 -10 -23 -21 -75 -33 -85 -21 -110 -38 -110 -77 0 -65 73 -97 145
-64 22 10 43 20 48 22 4 2 7 -3 7 -12 0 -12 11 -16 46 -16 43 0 46 2 40 23 -3
12 -6 59 -6 104 0 71 -3 85 -23 108 -19 23 -32 28 -87 31 -36 2 -79 -1 -97 -6z
m117 -154 c0 -41 -81 -63 -88 -24 -2 12 7 20 30 27 47 13 58 13 58 -3z"/>
<path d="M4370 1853 c-8 -3 -25 -15 -37 -26 l-23 -20 0 21 c0 19 -5 22 -45 22
l-45 0 0 -130 0 -130 50 0 50 0 0 83 c0 85 8 107 42 107 27 0 38 -32 38 -114
l0 -76 45 0 45 0 0 109 c0 89 -3 113 -17 130 -18 22 -75 35 -103 24z"/>
<path d="M4804 1841 c-101 -46 -98 -198 4 -243 78 -35 164 -11 198 54 23 45
15 130 -16 163 -43 45 -119 56 -186 26z m107 -67 c7 -9 14 -33 14 -54 0 -21
-7 -45 -14 -54 -16 -19 -52 -21 -69 -4 -16 16 -16 100 0 116 17 17 53 15 69
-4z"/>
<path d="M5210 1853 c-8 -3 -25 -15 -37 -26 l-23 -20 0 21 c0 19 -5 22 -45 22
l-45 0 0 -130 0 -130 50 0 50 0 0 83 c0 85 8 107 42 107 27 0 38 -32 38 -114
l0 -76 45 0 45 0 0 109 c0 89 -3 113 -17 130 -18 22 -75 35 -103 24z"/>
<path d="M5435 1849 c-38 -11 -55 -34 -55 -76 0 -46 26 -68 98 -82 66 -13 81
-24 62 -46 -17 -21 -55 -19 -71 4 -12 16 -22 18 -64 12 l-49 -6 31 -35 c30
-33 33 -34 105 -35 55 0 81 5 101 18 64 42 53 126 -20 146 -21 6 -47 11 -59
11 -27 0 -59 24 -50 38 10 17 53 15 63 -2 6 -10 21 -13 55 -9 43 5 46 7 37 25
-22 41 -112 59 -184 37z"/>
<path d="M5735 1849 c-38 -11 -55 -34 -55 -76 0 -46 26 -68 98 -82 66 -13 81
-24 62 -46 -17 -21 -55 -19 -71 4 -12 16 -22 18 -64 12 l-49 -6 31 -35 c30
-33 33 -34 105 -35 55 0 81 5 101 18 64 42 53 126 -20 146 -21 6 -47 11 -59
11 -27 0 -59 24 -50 38 10 17 53 15 63 -2 6 -10 21 -13 55 -9 43 5 46 7 37 25
-22 41 -112 59 -184 37z"/>
<path d="M6040 1847 c-47 -17 -80 -68 -80 -126 0 -50 26 -103 59 -120 62 -34
175 -20 210 26 31 38 26 50 -21 56 -34 5 -45 2 -56 -14 -16 -23 -55 -25 -76
-3 -9 9 -16 32 -16 54 0 60 49 91 89 57 17 -14 101 -12 101 3 0 4 -9 19 -20
33 -34 43 -119 58 -190 34z"/>
<path d="M7163 1853 c-89 -17 -123 -164 -54 -233 53 -53 172 -51 225 3 l31 31
-50 8 c-29 4 -54 3 -59 -2 -14 -14 -60 -12 -74 2 -31 31 -14 38 88 38 l101 0
-7 38 c-11 61 -30 88 -74 106 -39 15 -79 18 -127 9z m95 -75 c22 -22 13 -28
-38 -28 -27 0 -50 4 -50 8 0 16 25 32 50 32 14 0 31 -5 38 -12z"/>
<path d="M8333 1853 c-89 -17 -123 -164 -54 -233 53 -53 172 -51 225 3 l31 31
-50 8 c-29 4 -54 3 -59 -2 -14 -14 -60 -12 -74 2 -31 31 -14 38 88 38 l101 0
-7 38 c-11 61 -30 88 -74 106 -39 15 -79 18 -127 9z m95 -75 c22 -22 13 -28
-38 -28 -27 0 -50 4 -50 8 0 16 25 32 50 32 14 0 31 -5 38 -12z"/>
<path d="M8835 1835 c-23 -22 -25 -23 -25 -5 0 17 -7 20 -45 20 l-45 0 0 -130
0 -130 50 0 50 0 0 73 c0 82 16 117 54 117 30 0 58 56 35 71 -24 15 -49 10
-74 -16z"/>
<path d="M8993 1850 c-32 -10 -63 -43 -63 -66 0 -18 82 -24 102 -7 21 18 73
13 73 -7 0 -10 -23 -21 -75 -33 -85 -21 -110 -38 -110 -77 0 -65 73 -97 145
-64 22 10 43 20 48 22 4 2 7 -3 7 -12 0 -12 11 -16 46 -16 43 0 46 2 40 23 -3
12 -6 59 -6 104 0 71 -3 85 -23 108 -19 23 -32 28 -87 31 -36 2 -79 -1 -97 -6z
m117 -154 c0 -41 -81 -63 -88 -24 -2 12 7 20 30 27 47 13 58 13 58 -3z"/>
<path d="M9550 1853 c-8 -3 -25 -15 -37 -26 l-23 -20 0 21 c0 19 -5 22 -45 22
l-45 0 0 -130 0 -130 50 0 50 0 0 83 c0 85 8 107 42 107 27 0 38 -32 38 -114
l0 -76 45 0 45 0 0 109 c0 89 -3 113 -17 130 -18 22 -75 35 -103 24z"/>
<path d="M6610 1750 c0 -54 5 -110 11 -123 12 -26 47 -47 80 -47 26 0 76 26
82 42 3 7 6 3 6 -9 1 -20 6 -23 46 -23 l45 0 0 130 0 130 -45 0 -45 0 0 -73
c0 -82 -18 -120 -53 -115 -20 3 -22 9 -25 96 l-3 92 -49 0 -50 0 0 -100z"/>
<path d="M7922 1735 c4 -135 12 -150 83 -150 32 0 50 6 69 24 26 24 26 24 26
3 0 -19 5 -22 45 -22 l45 0 0 130 0 130 -50 0 -49 0 -3 -86 c-3 -91 -15 -115
-52 -101 -13 5 -16 22 -16 97 l0 90 -51 0 -51 0 4 -115z"/>
<path d="M9260 1720 l0 -130 45 0 45 0 0 130 0 130 -45 0 -45 0 0 -130z"/>
</g>
</svg>
