<?xml version="1.0" standalone="no"?>
<!DOCTYPE svg PUBLIC "-//W3C//DTD SVG 20010904//EN"
 "http://www.w3.org/TR/2001/REC-SVG-20010904/DTD/svg10.dtd">
<svg version="1.0" xmlns="http://www.w3.org/2000/svg"
 width="2128.000000pt" height="669.000000pt" viewBox="0 0 2128.000000 669.000000"
 preserveAspectRatio="xMidYMid meet">

<g transform="translate(0.000000,669.000000) scale(0.100000,-0.100000)"
fill="#000000" stroke="none">
<path d="M0 3345 l0 -3345 10640 0 10640 0 0 3345 0 3345 -10640 0 -10640 0 0
-3345z m1220 2890 c0 -8 -4 -15 -10 -15 -5 0 -10 7 -10 15 0 8 5 15 10 15 6 0
10 -7 10 -15z m290 -67 c0 -50 -4 -78 -9 -70 -7 11 -12 12 -29 1 -17 -10 -23
-10 -36 0 -36 30 -7 101 41 101 18 0 23 5 23 25 0 14 2 25 5 25 3 0 5 -37 5
-82z m331 23 c32 17 49 -5 47 -60 l-1 -46 -4 40 c-5 48 -14 59 -41 50 -16 -4
-22 -16 -25 -48 -2 -23 -4 -4 -4 43 0 47 2 68 4 47 4 -34 6 -36 24 -26z m279
-11 c0 -56 3 -70 15 -70 8 0 15 -4 15 -10 0 -5 -18 -10 -40 -10 -22 0 -40 5
-40 10 0 6 7 10 15 10 12 0 15 13 15 60 0 47 -3 60 -15 60 -8 0 -15 5 -15 10
0 6 11 10 25 10 24 0 25 -2 25 -70z m-1294 20 c8 0 19 10 25 23 l10 22 -5 -22
c-3 -15 1 -23 10 -23 8 0 14 -4 14 -10 0 -5 -7 -10 -15 -10 -18 0 -20 -26 -2
-33 8 -4 9 -8 1 -14 -6 -4 -16 -17 -23 -28 -11 -19 -12 -19 -6 3 5 18 2 22
-14 22 -15 0 -21 -7 -22 -22 l-2 -23 -4 23 c-2 12 -9 22 -14 22 -5 0 -9 5 -9
10 0 6 16 10 35 10 24 0 35 5 35 15 0 18 -30 20 -31 3 0 -10 -2 -10 -6 0 -2 6
-11 12 -19 12 -8 0 -14 5 -14 10 0 6 7 10 15 10 8 0 16 10 16 23 l2 22 4 -22
c2 -13 11 -23 19 -23z m228 -92 c5 -11 4 -18 -2 -18 -13 0 -22 51 -20 109 1
45 1 44 8 -14 3 -33 10 -68 14 -77z m78 54 c-4 -77 -17 -91 -35 -36 -6 16 -15
32 -21 36 -8 5 -8 10 0 18 8 8 15 -2 25 -32 l14 -43 3 45 c2 46 11 95 15 89 1
-2 1 -37 -1 -77z m88 -7 c0 -33 4 -45 15 -45 8 0 15 -4 15 -10 0 -5 -18 -10
-40 -10 -22 0 -40 5 -40 10 0 6 9 10 20 10 16 0 20 7 20 35 0 28 -4 35 -20 35
-11 0 -20 5 -20 10 0 6 11 10 25 10 23 0 25 -4 25 -45z m141 35 c10 -6 19 -20
19 -30 0 -17 -7 -20 -41 -20 -36 0 -40 -2 -29 -15 7 -8 25 -15 41 -15 16 0 29
-4 29 -10 0 -16 -57 -12 -74 6 -21 20 -20 53 1 76 19 21 27 22 54 8z m263 -6
c29 -28 20 -44 -25 -44 -49 0 -50 -23 -1 -28 35 -4 44 -22 11 -22 -39 0 -59
19 -59 55 0 49 42 71 74 39z m95 6 c17 9 26 9 37 -1 21 -17 17 -31 -5 -18 -31
20 -51 4 -51 -41 0 -22 -4 -40 -10 -40 -6 0 -10 26 -10 58 0 35 4 52 9 43 7
-10 13 -11 30 -1z m295 -12 c21 -30 20 -44 -4 -68 -24 -24 -43 -25 -64 -4 -32
32 -10 94 34 94 10 0 26 -10 34 -22z m250 6 c29 -28 20 -44 -25 -44 -49 0 -50
-23 -1 -28 35 -4 44 -22 11 -22 -39 0 -59 19 -59 55 0 49 42 71 74 39z m132
-44 c1 -51 1 -52 -3 -7 -3 37 -8 47 -22 47 -25 0 -39 -19 -44 -60 -3 -26 -4
-20 -5 20 l-2 55 38 0 37 0 1 -55z m-1443 -257 l32 2 1 -55 c1 -43 0 -46 -3
-12 -7 72 -58 67 -66 -6 -2 -20 -4 1 -4 48 0 47 2 70 4 53 4 -30 7 -33 36 -30z
m139 42 c0 -5 -5 -11 -11 -13 -6 -2 -11 4 -11 13 0 9 5 15 11 13 6 -2 11 -8
11 -13z m128 -55 c0 -56 3 -70 15 -70 8 0 15 -4 15 -10 0 -5 -18 -10 -40 -10
-22 0 -40 5 -40 10 0 6 7 10 15 10 12 0 15 13 15 60 0 47 -3 60 -15 60 -8 0
-15 5 -15 10 0 6 11 10 25 10 24 0 25 -2 25 -70z m1190 -10 c0 -47 -4 -80 -10
-80 -5 0 -10 5 -10 11 0 8 -4 8 -15 -1 -8 -6 -23 -9 -35 -5 -18 6 -21 13 -18
48 3 38 6 43 36 52 24 7 32 15 32 32 0 13 5 23 10 23 6 0 10 -33 10 -80z
m-820 50 c0 -15 7 -20 25 -20 14 0 25 -4 25 -10 0 -5 -12 -10 -26 -10 -23 0
-25 -3 -22 -32 2 -25 8 -34 26 -36 35 -5 26 -24 -10 -20 -31 3 -33 6 -36 46
-2 28 -8 42 -18 42 -8 0 -14 5 -14 10 0 6 7 10 15 10 8 0 15 9 15 20 0 11 5
20 10 20 6 0 10 -9 10 -20z m-800 -85 l2 -30 15 35 16 35 16 -35 16 -35 3 40
c2 22 8 45 14 50 7 7 9 0 4 -24 -3 -18 -6 -44 -6 -57 0 -36 -27 -29 -36 9 l-7
32 -14 -32 c-14 -36 -33 -44 -33 -15 0 9 -3 35 -5 57 -4 30 -3 35 4 20 5 -11
10 -33 11 -50z m300 20 c0 -38 3 -45 20 -45 11 0 20 -4 20 -10 0 -5 -20 -10
-45 -10 -25 0 -45 5 -45 10 0 6 9 10 20 10 16 0 20 7 20 35 0 28 -4 35 -20 35
-11 0 -20 5 -20 10 0 6 11 10 25 10 23 0 25 -4 25 -45z m278 33 c7 -7 12 -20
12 -30 0 -14 -8 -18 -41 -18 -36 0 -40 -2 -29 -15 7 -8 25 -15 41 -15 16 0 29
-4 29 -10 0 -16 -57 -12 -74 6 -9 8 -16 26 -16 39 0 44 50 71 78 43z m402 -9
c8 -15 7 -19 -4 -19 -8 0 -16 6 -19 13 -9 25 -42 -8 -45 -47 -5 -56 -22 -43
-22 17 l0 53 40 1 c30 2 42 -3 50 -18z m60 -24 c0 -48 0 -48 24 -39 11 4 16
19 16 45 0 28 4 39 15 39 11 0 15 -13 15 -53 l0 -53 -37 -1 c-51 -2 -63 11
-63 63 0 32 4 44 15 44 11 0 15 -12 15 -45z m188 33 c7 -7 12 -20 12 -30 0
-14 -8 -18 -40 -18 -40 0 -53 -13 -24 -24 9 -3 24 -6 35 -6 10 0 19 -4 19 -10
0 -14 -64 -12 -78 2 -7 7 -12 26 -12 43 0 38 16 55 50 55 14 0 31 -5 38 -12z
m102 -3 c0 -8 -7 -15 -15 -15 -8 0 -15 7 -15 15 0 8 7 15 15 15 8 0 15 -7 15
-15z m401 5 c39 -21 15 -100 -31 -100 -23 0 -50 26 -50 48 0 24 28 62 46 62 9
0 24 -5 35 -10z m-396 -80 c10 -17 -5 -49 -26 -55 -27 -9 -39 4 -16 16 12 7
16 17 12 30 -7 20 18 28 30 9z m-685 -215 c0 -32 2 -34 19 -23 31 19 51 -5 50
-61 l-2 -46 -6 42 c-9 51 -13 57 -40 48 -17 -5 -21 -15 -21 -46 0 -21 -4 -39
-10 -39 -6 0 -10 33 -10 80 0 47 4 80 10 80 6 0 10 -16 10 -35z m164 14 c-3
-5 -10 -7 -15 -3 -5 3 -7 10 -3 15 3 5 10 7 15 3 5 -3 7 -10 3 -15z m126 -49
c0 -63 2 -70 20 -70 11 0 20 -4 20 -10 0 -5 -20 -10 -45 -10 -25 0 -45 5 -45
10 0 6 9 10 20 10 18 0 20 7 20 60 0 53 -2 60 -20 60 -11 0 -20 5 -20 10 0 6
11 10 25 10 24 0 25 -2 25 -70z m1189 -12 c0 -46 -3 -78 -5 -71 -4 9 -11 9
-29 1 -32 -14 -55 4 -55 43 0 32 23 59 51 59 14 0 19 7 19 25 0 14 5 25 10 25
6 0 10 -34 9 -82z m-819 52 c0 -15 7 -20 25 -20 14 0 25 -4 25 -10 0 -5 -12
-10 -26 -10 -23 0 -25 -3 -22 -32 2 -25 8 -34 26 -36 29 -4 29 -22 -1 -22 -32
0 -47 18 -47 57 0 23 -5 33 -15 33 -8 0 -15 5 -15 10 0 6 7 10 15 10 8 0 15 9
15 20 0 11 5 20 10 20 6 0 10 -9 10 -20z m-800 -60 c0 -46 12 -52 26 -12 l11
27 15 -35 15 -35 7 48 c4 27 10 46 13 44 8 -9 -8 -107 -18 -107 -5 0 -15 15
-22 33 l-14 32 -7 -32 c-8 -33 -23 -44 -30 -20 -12 36 -15 97 -6 97 5 0 10
-18 10 -40z m300 -5 c0 -38 3 -45 20 -45 11 0 20 -4 20 -10 0 -5 -20 -10 -45
-10 -25 0 -45 5 -45 10 0 6 9 10 20 10 16 0 20 7 20 35 0 24 -5 35 -15 35 -8
0 -15 5 -15 10 0 6 9 10 20 10 17 0 20 -7 20 -45z m284 23 c23 -33 20 -38 -25
-38 -49 0 -50 -23 -1 -28 40 -4 42 -22 3 -22 -54 0 -80 53 -44 92 22 24 49 23
67 -4z m394 10 c6 -6 12 -14 12 -19 0 -14 -28 -11 -33 4 -9 25 -42 -8 -45 -47
-5 -56 -22 -43 -22 17 l0 53 38 1 c20 1 43 -3 50 -9z m62 -27 c0 -22 5 -43 10
-46 19 -12 40 16 40 51 0 19 5 34 10 34 6 0 10 -24 10 -54 l0 -54 -42 2 -43 1
-3 53 c-2 31 1 52 7 52 6 0 11 -18 11 -39z m188 27 c7 -7 12 -20 12 -30 0 -14
-8 -18 -41 -18 -36 0 -40 -2 -29 -15 7 -8 25 -15 41 -15 16 0 29 -4 29 -10 0
-16 -67 -12 -84 6 -9 8 -16 25 -16 36 0 45 58 76 88 46z m105 -3 c1 -5 -6 -11
-15 -13 -11 -2 -18 3 -18 13 0 17 30 18 33 0z m405 3 c7 -7 12 -27 12 -45 0
-26 -6 -36 -24 -45 -31 -14 -53 -5 -68 26 -22 49 43 101 80 64z m-400 -96 c2
-15 -4 -25 -22 -34 -30 -13 -50 -2 -23 13 12 7 16 17 11 31 -5 16 -2 19 13 16
10 -2 19 -13 21 -26z m122 -177 c0 -8 -4 -15 -10 -15 -5 0 -10 7 -10 15 0 8 5
15 10 15 6 0 10 -7 10 -15z m497 -42 c21 9 27 8 39 -8 32 -44 -1 -103 -51 -91
-24 6 -25 9 -23 84 1 42 3 60 5 40 4 -36 5 -37 30 -25z m-1401 7 c8 0 14 6 14
14 0 8 4 17 9 20 5 4 7 -3 4 -14 -4 -14 0 -20 11 -20 9 0 16 -4 16 -10 0 -5
-7 -10 -15 -10 -18 0 -20 -26 -2 -33 9 -3 8 -8 -4 -18 -9 -8 -20 -21 -23 -29
-3 -8 -4 -5 -2 8 3 16 -1 22 -15 22 -13 0 -19 -7 -20 -22 -1 -21 -2 -21 -6 -3
-3 11 -10 23 -17 28 -17 11 11 25 40 19 17 -3 24 0 24 12 0 12 -9 16 -35 16
-19 0 -35 5 -35 10 0 6 7 10 15 10 8 0 16 10 16 23 l2 22 4 -22 c2 -13 11 -23
19 -23z m219 -68 c5 -18 11 -23 33 -20 26 3 27 6 33 68 l6 65 1 -67 c2 -59 -1
-69 -19 -79 -16 -8 -28 -8 -45 0 -22 10 -24 16 -22 78 1 50 2 56 5 23 2 -25 6
-55 8 -68z m185 58 c11 -7 7 -10 -17 -10 -41 0 -43 -18 -3 -31 37 -14 41 -46
6 -55 -14 -3 -33 -1 -43 5 -15 9 -12 10 20 11 45 0 49 17 7 31 -43 15 -39 55
5 58 6 0 17 -4 25 -9z m134 -6 c29 -28 20 -44 -25 -44 -49 0 -50 -23 -1 -28
35 -4 44 -22 11 -22 -39 0 -59 19 -59 55 0 49 42 71 74 39z m95 6 c17 9 26 9
37 -1 21 -17 17 -31 -5 -18 -31 20 -51 4 -51 -41 0 -22 -4 -40 -10 -40 -6 0
-10 26 -10 58 0 35 4 52 9 43 7 -10 13 -11 30 -1z m159 -2 c7 -7 12 -20 12
-30 0 -14 -8 -18 -41 -18 -36 0 -40 -2 -29 -15 7 -8 25 -15 41 -15 16 0 29 -4
29 -10 0 -16 -52 -11 -72 7 -22 20 -23 42 -2 71 17 24 43 29 62 10z m112 -33
c0 -33 4 -45 15 -45 8 0 15 -4 15 -10 0 -5 -18 -10 -40 -10 -22 0 -40 5 -40
10 0 6 9 10 20 10 16 0 20 7 20 35 0 28 -4 35 -20 35 -11 0 -20 5 -20 10 0 6
11 10 25 10 23 0 25 -4 25 -45z m110 37 c30 19 50 -6 48 -61 l-1 -46 -6 45
c-5 40 -9 45 -31 45 -22 0 -26 -5 -31 -45 -6 -43 -6 -43 -7 15 0 33 2 55 5 48
3 -9 9 -10 23 -1z m174 -14 c-10 -35 -25 -49 -47 -46 -11 2 -22 -2 -24 -9 -3
-7 10 -13 34 -15 30 -2 39 -7 41 -25 4 -27 -30 -47 -63 -39 -22 6 -24 11 -22
71 2 72 11 85 60 85 25 0 27 -3 21 -22z m110 16 c11 -4 16 -19 16 -53 0 -45
-1 -47 -27 -45 -51 2 -54 4 -51 27 2 15 13 25 36 32 17 5 32 13 32 17 0 4 -15
8 -32 8 -25 0 -29 3 -18 10 18 11 23 12 44 4z m264 -6 c7 -7 12 -20 12 -30 0
-14 -8 -18 -41 -18 -36 0 -40 -2 -29 -15 7 -8 25 -15 41 -15 16 0 29 -4 29
-10 0 -16 -52 -11 -72 7 -22 20 -23 42 -2 71 17 24 43 29 62 10z m2062 -272
c0 -3 -7 -6 -15 -6 -22 0 -19 -43 5 -58 27 -16 25 -48 -2 -63 -13 -7 -28 -19
-35 -28 -11 -14 -12 -14 -13 2 0 10 -7 20 -15 23 -22 9 -18 23 5 17 28 -7 27
33 -2 64 -21 22 -21 23 -3 43 10 11 24 20 32 20 7 0 13 5 13 11 0 6 7 4 15 -5
8 -8 15 -17 15 -20z m-3400 -4 c0 -24 4 -27 33 -27 32 0 32 -1 35 -52 2 -32
-1 -53 -7 -53 -6 0 -11 18 -11 39 0 22 -5 43 -10 46 -19 12 -40 -16 -40 -51 0
-19 -4 -34 -10 -34 -6 0 -10 33 -10 80 0 47 4 80 10 80 6 0 10 -12 10 -28z
m400 3 c0 -14 -4 -25 -10 -25 -5 0 -10 11 -10 25 0 14 5 25 10 25 6 0 10 -11
10 -25z m50 13 c0 -17 -20 -47 -20 -31 0 6 -3 18 -6 27 -4 11 -1 16 10 16 9 0
16 -6 16 -12z m199 -78 c4 0 16 9 26 20 10 11 23 20 28 20 6 0 0 -11 -13 -25
l-24 -25 29 -30 c16 -17 24 -30 19 -30 -6 0 -23 14 -40 31 l-29 31 -6 -34 c-4
-19 -6 3 -6 52 0 47 2 64 4 38 2 -27 8 -48 12 -48z m541 20 c0 -63 2 -70 20
-70 11 0 20 -4 20 -10 0 -5 -20 -10 -45 -10 -25 0 -45 5 -45 10 0 6 9 10 20
10 18 0 20 7 20 60 0 53 -2 60 -20 60 -11 0 -20 5 -20 10 0 6 11 10 25 10 24
0 25 -2 25 -70z m130 0 c0 -56 3 -70 15 -70 8 0 15 -4 15 -10 0 -5 -18 -10
-40 -10 -22 0 -40 5 -40 10 0 6 7 10 15 10 12 0 15 13 15 60 0 47 -3 60 -15
60 -8 0 -15 5 -15 10 0 6 11 10 25 10 24 0 25 -2 25 -70z m770 55 c0 -8 -4
-15 -10 -15 -5 0 -10 7 -10 15 0 8 5 15 10 15 6 0 10 -7 10 -15z m260 -55 c0
-56 3 -70 15 -70 8 0 15 -4 15 -10 0 -5 -18 -10 -40 -10 -22 0 -40 5 -40 10 0
6 7 10 15 10 12 0 15 13 15 60 0 47 -3 60 -15 60 -8 0 -15 5 -15 10 0 6 11 10
25 10 24 0 25 -2 25 -70z m669 -12 c0 -46 -3 -78 -5 -71 -4 9 -11 9 -29 1 -32
-14 -55 4 -55 43 0 32 23 59 51 59 14 0 19 7 19 25 0 14 5 25 10 25 6 0 10
-34 9 -82z m511 73 c0 -5 -8 -11 -19 -14 -35 -9 -35 -155 0 -164 19 -5 27 -23
10 -23 -29 0 -41 14 -41 51 0 26 -6 41 -17 49 -17 10 -17 10 0 20 11 7 17 23
17 45 0 18 6 36 13 38 20 9 37 8 37 -2z m360 -6 c0 -8 -7 -15 -15 -15 -8 0
-15 7 -15 15 0 8 7 15 15 15 8 0 15 -7 15 -15z m260 -55 c0 -56 3 -70 15 -70
8 0 15 -4 15 -10 0 -5 -20 -10 -45 -10 -25 0 -45 5 -45 10 0 6 7 10 15 10 12
0 15 13 15 60 0 47 -3 60 -15 60 -8 0 -15 5 -15 10 0 6 14 10 30 10 l30 0 0
-70z m670 -8 l0 -78 -40 -1 c-41 -2 -60 15 -60 53 0 26 30 54 57 54 18 0 23 5
23 25 0 14 5 25 10 25 6 0 10 -33 10 -78z m74 72 c10 -4 16 -18 16 -41 0 -26
5 -36 20 -40 11 -3 20 -9 20 -13 0 -4 -9 -10 -20 -13 -16 -4 -20 -14 -20 -46
0 -28 -5 -44 -15 -48 -24 -8 -31 5 -11 20 24 18 26 145 2 162 -26 20 -21 30 8
19z m126 -13 c0 -30 -17 -34 -22 -6 -4 17 -1 25 8 25 8 0 14 -9 14 -19z m40
-6 c0 -14 -4 -25 -10 -25 -5 0 -10 11 -10 25 0 14 5 25 10 25 6 0 10 -11 10
-25z m-4484 -63 c12 -40 18 -72 14 -72 -4 0 -10 7 -14 15 -3 9 -19 15 -41 15
-24 0 -35 -4 -35 -15 0 -8 -4 -15 -10 -15 -5 0 -10 2 -10 3 0 4 33 104 45 135
10 28 30 3 51 -66z m240 38 c13 0 24 -4 24 -10 0 -5 -12 -10 -26 -10 -23 0
-25 -3 -22 -32 2 -25 8 -34 26 -36 30 -5 28 -22 -3 -22 -27 0 -45 25 -45 64 0
16 -6 26 -15 26 -8 0 -15 5 -15 10 0 6 6 10 14 10 7 0 17 10 21 23 l8 22 4
-22 c3 -16 11 -23 29 -23z m1039 31 c3 -5 -9 -11 -27 -13 -43 -4 -42 -26 2
-47 44 -21 52 -56 16 -72 -24 -11 -76 -5 -76 9 0 4 17 7 37 7 47 0 51 21 8 45
-33 19 -43 44 -25 65 14 17 56 20 65 6z m735 -17 c0 -8 10 -14 25 -14 14 0 25
-4 25 -10 0 -5 -11 -10 -25 -10 -22 0 -25 -4 -25 -35 0 -31 3 -35 25 -35 14 0
25 -4 25 -10 0 -11 -30 -13 -54 -4 -11 4 -16 19 -16 45 0 28 -4 39 -15 39 -8
0 -15 5 -15 10 0 6 7 10 15 10 8 0 15 9 15 21 0 11 5 17 10 14 6 -3 10 -13 10
-21z m1800 6 c0 -15 7 -20 25 -20 14 0 25 -4 25 -10 0 -5 -11 -10 -25 -10 -22
0 -25 -4 -25 -35 0 -31 3 -35 25 -35 14 0 25 -4 25 -10 0 -14 -54 -12 -68 2
-7 7 -12 27 -12 45 0 23 -5 33 -15 33 -8 0 -15 5 -15 10 0 6 7 10 15 10 8 0
15 9 15 20 0 11 7 20 15 20 8 0 15 -9 15 -20z m-4582 -32 c7 -7 12 -20 12 -30
0 -14 -8 -18 -41 -18 -36 0 -40 -2 -29 -15 7 -8 25 -15 41 -15 16 0 29 -4 29
-10 0 -16 -67 -12 -84 6 -9 8 -16 25 -16 36 0 45 58 76 88 46z m132 -1 c0 -7
-12 -13 -27 -12 -24 0 -28 -4 -28 -30 0 -26 4 -30 28 -30 15 1 27 -5 27 -12 0
-19 -50 -16 -72 4 -22 20 -23 42 -2 71 17 24 74 32 74 9z m254 -3 c35 -34 6
-94 -45 -94 -30 0 -49 23 -49 59 0 27 26 51 55 51 13 0 31 -7 39 -16z m706
-29 c0 -45 5 -50 34 -39 11 4 16 19 16 45 0 21 5 39 10 39 6 0 10 -24 10 -53
l0 -54 -32 0 c-18 0 -39 4 -45 10 -15 11 -18 97 -3 97 6 0 10 -20 10 -45z
m188 33 c7 -7 12 -20 12 -30 0 -14 -8 -18 -41 -18 -52 0 -48 -24 4 -28 46 -4
49 -22 4 -22 -42 0 -57 15 -57 57 0 45 48 71 78 41z m378 4 c6 -4 14 -17 18
-29 7 -21 4 -23 -34 -23 -50 0 -51 -23 -2 -28 18 -2 32 -7 32 -13 0 -15 -57
-10 -74 7 -42 41 12 118 60 86z m100 0 c20 9 28 8 41 -5 9 -9 13 -20 9 -24 -5
-5 -11 -2 -13 5 -6 16 -38 16 -51 -1 -6 -6 -12 -28 -15 -47 -2 -22 -4 -12 -5
25 0 33 2 55 4 48 4 -9 11 -9 30 -1z m422 -5 c17 -11 15 -63 -4 -81 -8 -9 -24
-16 -35 -16 -14 0 -19 -7 -19 -25 0 -14 -4 -25 -10 -25 -6 0 -10 32 -10 78 l0
77 33 0 c17 0 38 -4 45 -8z m102 -32 c0 -33 4 -45 15 -45 8 0 15 -4 15 -10 0
-5 -18 -10 -40 -10 -22 0 -40 5 -40 10 0 6 7 10 15 10 10 0 15 11 15 35 0 24
-5 35 -15 35 -8 0 -15 5 -15 10 0 6 11 10 25 10 23 0 25 -4 25 -45z m148 33
c7 -7 12 -20 12 -30 0 -14 -8 -18 -36 -18 -45 0 -42 -24 4 -28 38 -4 43 -22 6
-22 -41 0 -64 18 -64 50 0 48 48 78 78 48z m259 -4 c2 -7 -8 -9 -27 -6 -36 5
-41 -15 -5 -24 37 -9 49 -29 30 -48 -17 -17 -34 -20 -59 -10 -28 11 -17 20 19
16 39 -5 48 13 13 24 -39 11 -49 24 -37 46 11 21 59 22 66 2z m263 -10 c6 -14
10 -38 10 -53 0 -26 -2 -28 -42 -27 -37 1 -43 4 -46 25 -4 27 12 41 46 41 13
0 20 4 17 10 -3 6 -17 10 -31 10 -14 0 -22 4 -19 10 3 6 17 10 31 10 17 0 27
-8 34 -26z m126 -34 c1 -43 0 -46 -3 -12 -7 72 -58 67 -66 -6 -3 -28 -4 -23
-5 18 l-2 56 38 -1 37 0 1 -55z m228 39 c-3 -5 -10 -7 -15 -3 -5 3 -7 10 -3
15 3 5 10 7 15 3 5 -3 7 -10 3 -15z m544 4 c2 -9 -5 -11 -27 -7 -41 8 -41 -11
0 -25 24 -8 30 -15 27 -33 -3 -19 -9 -23 -42 -23 -22 0 -41 5 -43 12 -3 8 6
10 31 6 44 -7 48 11 6 26 -29 10 -40 37 -23 55 11 11 66 2 71 -11z m132 -2
c22 -43 -2 -91 -47 -91 -18 0 -23 -5 -23 -25 0 -14 -4 -25 -10 -25 -6 0 -10
33 -10 78 l0 79 40 1 c30 1 42 -3 50 -17z m100 -26 c0 -33 4 -45 15 -45 8 0
15 -4 15 -10 0 -5 -20 -10 -45 -10 -25 0 -45 5 -45 10 0 6 9 10 20 10 16 0 20
7 20 35 0 28 -4 35 -20 35 -11 0 -20 5 -20 10 0 6 14 10 30 10 29 0 30 -2 30
-45z m148 33 c7 -7 12 -20 12 -30 0 -14 -8 -18 -36 -18 -45 0 -42 -24 4 -28
43 -4 41 -22 -2 -22 -59 0 -83 42 -50 88 17 24 53 29 72 10z m260 -5 c2 -9 -5
-11 -27 -7 -41 8 -41 -11 0 -25 24 -8 30 -15 27 -33 -3 -19 -9 -23 -42 -23
-22 0 -41 5 -43 12 -3 8 6 10 31 6 44 -7 48 11 6 26 -29 10 -40 37 -23 55 11
11 66 2 71 -11z m260 -39 l3 -52 -43 2 c-37 1 -43 4 -46 25 -4 27 12 41 46 41
14 0 21 4 16 11 -3 6 -17 9 -30 6 -13 -2 -24 -1 -24 3 0 14 15 21 45 18 29 -3
30 -5 33 -54z m130 -1 c2 -32 -1 -53 -7 -53 -6 0 -11 18 -11 39 0 22 -5 43
-10 46 -19 12 -40 -16 -40 -51 0 -19 -4 -34 -10 -34 -5 0 -10 24 -10 54 l0 54
43 -2 42 -1 3 -52z m-1574 -44 c-3 -5 -10 -7 -15 -3 -5 3 -7 10 -3 15 3 5 10
7 15 3 5 -3 7 -10 3 -15z m-2914 -247 l0 -78 -40 -1 c-41 -2 -60 15 -60 53 0
26 30 54 57 54 18 0 23 5 23 25 0 14 5 25 10 25 6 0 10 -33 10 -78z m582 52
c-3 -19 -7 -22 -13 -12 -13 20 -11 38 5 38 9 0 12 -8 8 -26z m48 1 c0 -14 -4
-25 -10 -25 -5 0 -10 11 -10 25 0 14 5 25 10 25 6 0 10 -11 10 -25z m362 10
c0 -5 -5 -11 -11 -13 -6 -2 -11 4 -11 13 0 9 5 15 11 13 6 -2 11 -8 11 -13z
m1376 -15 c-4 -29 -3 -31 23 -25 33 8 49 -15 49 -69 0 -51 -18 -45 -22 7 -2
34 -7 42 -23 42 -16 0 -21 -8 -23 -42 -5 -75 -22 -46 -22 37 0 52 4 80 11 80
7 0 9 -12 7 -30z m162 -40 c0 -63 2 -70 20 -70 11 0 20 -4 20 -10 0 -5 -20
-10 -45 -10 -25 0 -45 5 -45 10 0 6 9 10 20 10 18 0 20 7 20 60 0 53 -2 60
-20 60 -11 0 -20 5 -20 10 0 6 11 10 25 10 24 0 25 -2 25 -70z m362 44 c-3
-19 -7 -22 -13 -12 -13 20 -11 38 5 38 9 0 12 -8 8 -26z m48 1 c0 -14 -4 -25
-10 -25 -5 0 -10 11 -10 25 0 14 5 25 10 25 6 0 10 -11 10 -25z m360 10 c0 -8
-4 -15 -10 -15 -5 0 -10 7 -10 15 0 8 5 15 10 15 6 0 10 -7 10 -15z m480 -16
c0 -26 3 -29 20 -24 28 9 50 -11 50 -46 0 -36 -26 -61 -59 -57 -25 3 -26 5
-29 81 -2 48 1 77 8 77 5 0 10 -14 10 -31z m-3027 8 c10 -6 20 -29 23 -49 5
-30 2 -41 -19 -62 -17 -17 -37 -26 -57 -26 l-30 0 0 75 0 75 33 0 c18 0 41 -6
50 -13z m1431 1 c-4 -7 -23 -37 -41 -65 l-34 -53 41 0 c22 0 40 -4 40 -10 0
-5 -22 -10 -50 -10 -27 0 -50 3 -50 8 0 4 16 32 36 62 l35 55 -36 3 c-54 5
-42 22 16 22 37 0 48 -3 43 -12z m-2564 -49 c8 -15 7 -19 -4 -19 -8 0 -16 6
-19 13 -9 25 -42 -8 -45 -47 -5 -56 -22 -43 -22 17 l0 53 40 1 c30 2 42 -3 50
-18z m118 9 c7 -7 12 -20 12 -30 0 -14 -8 -18 -40 -18 -40 0 -53 -13 -24 -24
9 -3 24 -6 35 -6 10 0 19 -4 19 -10 0 -14 -64 -12 -78 2 -7 7 -12 26 -12 43 0
38 16 55 50 55 14 0 31 -5 38 -12z m130 -44 l3 -52 -43 2 c-37 1 -43 4 -46 25
-4 27 12 41 46 41 14 0 21 4 16 11 -3 6 -17 9 -30 6 -13 -2 -24 -1 -24 3 0 14
15 21 45 18 29 -3 30 -5 33 -54z m457 46 c21 17 52 3 59 -26 9 -35 -17 -74
-49 -74 -18 0 -25 -6 -28 -27 -2 -16 -4 10 -5 57 0 47 2 79 5 72 4 -10 8 -10
18 -2z m563 -2 c7 -7 12 -20 12 -30 0 -14 -8 -18 -41 -18 -52 0 -48 -24 4 -28
46 -4 49 -22 4 -22 -42 0 -57 15 -57 57 0 45 48 71 78 41z m102 -33 c0 -38 3
-45 20 -45 11 0 20 -4 20 -10 0 -5 -20 -10 -45 -10 -25 0 -45 5 -45 10 0 6 9
10 20 10 16 0 20 7 20 35 0 28 -4 35 -20 35 -11 0 -20 5 -20 10 0 6 11 10 25
10 23 0 25 -4 25 -45z m156 -15 c1 -43 0 -46 -3 -12 -7 72 -58 67 -66 -6 -3
-28 -4 -23 -5 18 l-2 56 38 -1 37 0 1 -55z m120 52 c6 -4 14 -17 18 -29 7 -21
4 -23 -34 -23 -50 0 -51 -23 -2 -28 18 -2 32 -7 32 -13 0 -15 -57 -10 -74 7
-42 41 12 118 60 86z m262 -5 c14 -10 17 -97 2 -97 -5 0 -10 21 -10 46 0 41
-2 45 -22 42 -19 -2 -24 -10 -26 -45 -4 -61 -22 -53 -22 10 l0 52 33 0 c17 0
38 -4 45 -8z m126 -3 c29 -28 20 -44 -25 -44 -49 0 -50 -23 -1 -28 18 -2 32
-8 32 -13 0 -6 -14 -9 -32 -7 -23 2 -37 11 -47 29 -13 24 -13 29 2 53 20 29
48 34 71 10z m76 -29 c0 -30 4 -45 13 -45 22 0 37 23 37 57 0 18 5 33 10 33 6
0 10 -25 10 -55 0 -30 -4 -55 -10 -55 -5 0 -10 5 -10 11 0 8 -4 8 -15 -1 -8
-6 -23 -9 -35 -5 -17 5 -20 15 -20 56 0 27 5 49 10 49 6 0 10 -20 10 -45z
m176 37 c6 -4 14 -17 18 -29 7 -21 4 -23 -34 -23 -50 0 -51 -23 -2 -28 18 -2
32 -7 32 -13 0 -15 -57 -10 -74 7 -42 41 12 118 60 86z m394 -11 c5 -11 10
-35 10 -54 0 -33 -1 -34 -42 -33 -37 1 -43 4 -46 25 -4 26 12 41 46 41 12 0
22 5 22 10 0 6 -14 10 -31 10 -17 0 -28 4 -24 10 11 17 54 11 65 -9z m360 4
c0 -8 -4 -15 -9 -15 -13 0 -22 16 -14 24 11 11 23 6 23 -9z m534 -1 c29 -28
20 -44 -25 -44 -49 0 -50 -23 -1 -28 18 -2 32 -8 32 -13 0 -6 -14 -9 -32 -7
-23 2 -37 11 -47 29 -13 24 -13 29 2 53 20 29 48 34 71 10z m106 -29 c0 -33 4
-45 15 -45 8 0 15 -4 15 -10 0 -5 -18 -10 -40 -10 -22 0 -40 5 -40 10 0 6 7
10 15 10 10 0 15 11 15 35 0 24 -5 35 -15 35 -8 0 -15 5 -15 10 0 6 11 10 25
10 23 0 25 -4 25 -45z m156 -15 c1 -43 0 -46 -3 -12 -7 72 -58 67 -66 -6 -3
-28 -4 -23 -5 18 l-2 56 38 -1 37 0 1 -55z m144 50 c0 -5 -5 -10 -11 -10 -5 0
-7 -5 -4 -10 10 -16 -15 -40 -41 -40 -13 0 -24 -4 -24 -10 0 -5 11 -10 24 -10
38 0 56 -10 56 -31 0 -24 -40 -44 -74 -35 -23 6 -25 9 -23 69 1 34 6 68 10 75
10 14 87 17 87 2z m110 -9 c5 -11 10 -35 10 -54 0 -33 -1 -34 -42 -33 -37 1
-43 4 -46 25 -4 26 12 41 46 41 12 0 22 5 22 10 0 6 -14 10 -31 10 -17 0 -28
4 -24 10 11 17 54 11 65 -9z m254 3 c29 -28 20 -44 -25 -44 -49 0 -50 -23 -1
-28 18 -2 32 -8 32 -13 0 -6 -14 -9 -32 -7 -23 2 -37 11 -47 29 -13 24 -13 29
2 53 20 29 48 34 71 10z m-3724 -34 c0 -5 -13 -10 -30 -10 -16 0 -30 5 -30 10
0 6 14 10 30 10 17 0 30 -4 30 -10z m2420 -45 c0 -8 -4 -15 -9 -15 -13 0 -22
16 -14 24 11 11 23 6 23 -9z m-2180 -190 c0 -8 -4 -15 -10 -15 -5 0 -10 7 -10
15 0 8 5 15 10 15 6 0 10 -7 10 -15z m497 -42 c21 9 27 8 39 -8 32 -44 -1
-103 -51 -91 -24 6 -25 9 -23 84 1 42 3 60 5 40 4 -36 5 -37 30 -25z m489 -13
c2 0 13 5 23 12 44 27 71 -50 31 -87 -13 -12 -27 -15 -45 -11 -24 6 -25 9 -23
84 1 42 3 60 5 40 2 -21 6 -38 9 -38z m844 61 c0 -5 -10 -11 -22 -13 -34 -5
-37 -38 -4 -38 14 0 26 -4 26 -10 0 -5 -11 -10 -25 -10 -22 0 -25 -4 -27 -42
l-1 -43 -4 43 c-3 34 -8 42 -24 42 -10 0 -19 5 -19 10 0 6 9 10 20 10 13 0 20
7 20 20 0 19 24 39 48 40 6 0 12 -4 12 -9z m-2734 -41 c8 0 14 6 14 14 0 8 4
17 9 20 5 4 7 -3 4 -14 -4 -14 0 -20 11 -20 9 0 16 -4 16 -10 0 -5 -7 -10 -15
-10 -18 0 -20 -26 -2 -33 9 -3 8 -8 -4 -18 -9 -8 -20 -21 -23 -29 -3 -8 -4 -5
-2 8 3 16 -1 22 -15 22 -13 0 -19 -7 -20 -22 -1 -21 -2 -21 -6 -3 -3 11 -10
23 -17 28 -17 11 11 25 40 19 17 -3 24 0 24 12 0 12 -9 16 -35 16 -19 0 -35 5
-35 10 0 6 7 10 15 10 8 0 16 10 16 23 l2 22 4 -22 c2 -13 11 -23 19 -23z
m219 -68 c5 -18 11 -23 33 -20 26 3 27 6 33 68 l6 65 1 -67 c2 -59 -1 -69 -19
-79 -16 -8 -28 -8 -45 0 -22 10 -24 16 -22 78 1 50 2 56 5 23 2 -25 6 -55 8
-68z m185 58 c11 -7 7 -10 -17 -10 -41 0 -43 -18 -3 -31 37 -14 41 -46 6 -55
-14 -3 -33 -1 -43 5 -15 9 -12 10 20 11 45 0 49 17 7 31 -43 15 -39 55 5 58 6
0 17 -4 25 -9z m134 -6 c29 -28 20 -44 -25 -44 -49 0 -50 -23 -1 -28 35 -4 44
-22 11 -22 -39 0 -59 19 -59 55 0 49 42 71 74 39z m95 6 c17 9 26 9 37 -1 21
-17 17 -31 -5 -18 -31 20 -51 4 -51 -41 0 -22 -4 -40 -10 -40 -6 0 -10 26 -10
58 0 35 4 52 9 43 7 -10 13 -11 30 -1z m159 -2 c7 -7 12 -20 12 -30 0 -14 -8
-18 -41 -18 -36 0 -40 -2 -29 -15 7 -8 25 -15 41 -15 16 0 29 -4 29 -10 0 -16
-52 -11 -72 7 -22 20 -23 42 -2 71 17 24 43 29 62 10z m112 -33 c0 -33 4 -45
15 -45 8 0 15 -4 15 -10 0 -5 -18 -10 -40 -10 -22 0 -40 5 -40 10 0 6 9 10 20
10 16 0 20 7 20 35 0 28 -4 35 -20 35 -11 0 -20 5 -20 10 0 6 11 10 25 10 23
0 25 -4 25 -45z m110 37 c30 19 50 -6 48 -61 l-1 -46 -6 45 c-5 40 -9 45 -31
45 -22 0 -26 -5 -31 -45 -6 -43 -6 -43 -7 15 0 33 2 55 5 48 3 -9 9 -10 23 -1z
m174 -14 c-10 -35 -25 -49 -47 -46 -11 2 -22 -2 -24 -9 -3 -7 10 -13 34 -15
30 -2 39 -7 41 -25 4 -27 -30 -47 -63 -39 -22 6 -24 11 -22 71 2 72 11 85 60
85 25 0 27 -3 21 -22z m110 16 c11 -4 16 -19 16 -53 0 -45 -1 -47 -27 -45 -51
2 -54 4 -51 27 2 15 13 25 36 32 17 5 32 13 32 17 0 4 -15 8 -32 8 -25 0 -29
3 -18 10 18 11 23 12 44 4z m264 -6 c7 -7 12 -20 12 -30 0 -14 -8 -18 -41 -18
-36 0 -40 -2 -29 -15 7 -8 25 -15 41 -15 16 0 29 -4 29 -10 0 -16 -52 -11 -72
7 -22 20 -23 42 -2 71 17 24 43 29 62 10z m221 -78 c25 0 39 19 44 60 2 22 4
12 5 -25 0 -33 -2 -54 -5 -48 -3 10 -10 10 -25 2 -35 -19 -48 -4 -46 53 l2 53
3 -47 c3 -38 8 -48 22 -48z m295 74 c29 -28 20 -44 -25 -44 -49 0 -50 -23 -1
-28 35 -4 44 -22 11 -22 -39 0 -59 19 -59 55 0 49 42 71 74 39z m95 6 c17 9
26 9 37 -1 21 -17 17 -31 -5 -18 -31 20 -51 4 -51 -41 0 -22 -4 -40 -10 -40
-6 0 -10 26 -10 58 0 35 4 52 9 43 7 -10 13 -11 30 -1z m121 0 c34 18 51 2 48
-44 -3 -37 -6 -42 -35 -50 -23 -7 -33 -17 -36 -35 -2 -14 -4 12 -5 59 0 47 2
79 5 73 3 -9 10 -10 23 -3z m132 1 c25 13 48 5 48 -18 0 -14 -2 -15 -9 -4 -6
9 -18 11 -34 7 -22 -5 -26 -13 -30 -49 -3 -33 -4 -29 -4 18 -1 33 1 54 4 48 3
-10 10 -10 25 -2z m127 -81 c25 0 39 19 44 60 2 22 4 12 5 -25 0 -33 -2 -54
-5 -48 -3 10 -10 10 -25 2 -35 -19 -48 -4 -46 53 l2 53 3 -47 c3 -38 8 -48 22
-48z m295 74 c29 -28 20 -44 -25 -44 -49 0 -50 -23 -1 -28 35 -4 44 -22 11
-22 -39 0 -59 19 -59 55 0 49 42 71 74 39z m88 7 c35 19 48 4 46 -53 l-2 -53
-3 48 c-3 37 -8 47 -22 47 -25 0 -39 -19 -44 -60 -2 -22 -4 -12 -5 25 0 33 2
54 5 48 3 -10 10 -10 25 -2z m-2146 -255 c18 -19 18 -26 -1 -26 -23 0 -18 -43
6 -58 25 -16 22 -51 -6 -66 -11 -6 -25 -18 -32 -26 -11 -13 -12 -13 -13 1 0 9
-7 19 -15 23 -8 3 -15 10 -15 15 0 6 6 8 14 5 23 -9 28 38 5 54 -26 18 -21 54
9 67 12 5 22 13 22 17 0 12 10 9 26 -6z m-784 -11 c0 -5 -5 -11 -11 -13 -6 -2
-11 4 -11 13 0 9 5 15 11 13 6 -2 11 -8 11 -13z m168 6 c0 -5 -10 -11 -22 -13
-34 -5 -37 -38 -4 -38 14 0 26 -4 26 -10 0 -5 -11 -10 -25 -10 -22 0 -25 -4
-25 -40 0 -22 -4 -40 -10 -40 -5 0 -10 18 -10 40 0 29 -4 40 -15 40 -8 0 -15
5 -15 10 0 6 7 10 15 10 8 0 15 6 15 14 0 8 7 22 16 30 17 17 54 22 54 7z
m240 -1 c0 -5 -9 -10 -20 -10 -18 0 -20 -7 -20 -85 0 -78 2 -85 20 -85 11 0
20 -4 20 -10 0 -5 -13 -10 -30 -10 l-30 0 0 105 0 105 30 0 c17 0 30 -4 30
-10z m120 0 c0 -5 -7 -10 -15 -10 -12 0 -15 -16 -15 -85 0 -69 3 -85 15 -85 8
0 15 -4 15 -10 0 -5 -11 -10 -25 -10 l-25 0 0 105 0 105 25 0 c14 0 25 -4 25
-10z m503 -5 c1 -5 -6 -11 -15 -13 -11 -2 -18 3 -18 13 0 17 30 18 33 0z m475
-15 c-4 -27 -2 -29 19 -24 31 8 53 -12 53 -47 0 -38 -25 -61 -64 -57 l-31 3
-3 78 c-2 66 -1 77 14 77 12 0 15 -7 12 -30z m1322 -75 l0 -105 -25 0 c-14 0
-25 5 -25 10 0 6 9 10 20 10 18 0 20 7 20 85 0 78 -2 85 -20 85 -11 0 -20 5
-20 10 0 6 11 10 25 10 l25 0 0 -105z m140 0 l0 -105 -30 0 c-16 0 -30 5 -30
10 0 6 9 10 20 10 18 0 20 7 20 85 0 78 -2 85 -20 85 -11 0 -20 5 -20 10 0 6
14 10 30 10 l30 0 0 -105z m460 74 c0 -26 3 -29 20 -24 32 10 50 -12 50 -61 0
-24 -4 -44 -10 -44 -5 0 -10 21 -10 46 0 41 -2 45 -22 42 -19 -2 -24 -10 -26
-45 -5 -75 -22 -46 -22 37 0 47 4 80 10 80 6 0 10 -14 10 -31z m-1260 1 c0
-15 7 -20 25 -20 14 0 25 -4 25 -10 0 -5 -12 -10 -26 -10 -23 0 -25 -3 -22
-32 2 -25 8 -34 26 -36 35 -5 26 -24 -10 -20 -31 3 -33 6 -36 46 -3 34 -7 42
-23 42 -10 0 -19 5 -19 10 0 6 9 10 20 10 13 0 20 7 20 20 0 11 5 20 10 20 6
0 10 -9 10 -20z m288 8 c20 -20 13 -51 -20 -85 l-32 -33 37 0 c20 0 37 -4 37
-10 0 -5 -22 -10 -50 -10 -27 0 -50 3 -50 6 0 4 16 24 35 45 19 22 35 46 35
54 0 20 -27 30 -44 16 -17 -14 -29 -2 -15 16 14 16 51 17 67 1z m134 -5 c25
-23 25 -94 -1 -117 -43 -39 -97 6 -87 72 9 60 49 81 88 45z m754 -23 c13 0 24
-4 24 -10 0 -5 -12 -10 -26 -10 -23 0 -25 -3 -22 -32 2 -25 8 -34 26 -36 30
-5 28 -22 -3 -22 -27 0 -45 25 -45 64 0 16 -6 26 -15 26 -8 0 -15 5 -15 10 0
6 6 10 14 10 7 0 17 10 21 23 l8 22 4 -22 c3 -16 11 -23 29 -23z m-3346 -45
c0 -38 3 -45 20 -45 11 0 20 -4 20 -10 0 -5 -20 -10 -45 -10 -25 0 -45 5 -45
10 0 6 9 10 20 10 16 0 20 7 20 35 0 28 -4 35 -20 35 -11 0 -20 5 -20 10 0 6
11 10 25 10 23 0 25 -4 25 -45z m930 26 c17 -33 11 -41 -30 -41 -40 0 -53 -13
-24 -24 9 -3 24 -6 35 -6 10 0 19 -4 19 -10 0 -14 -64 -12 -78 2 -7 7 -12 26
-12 43 0 17 5 36 12 43 19 19 66 15 78 -7z m100 -26 c0 -38 3 -45 20 -45 11 0
20 -4 20 -10 0 -5 -22 -10 -50 -10 -27 0 -50 5 -50 10 0 6 9 10 20 10 16 0 20
7 20 35 0 24 -5 35 -15 35 -8 0 -15 5 -15 10 0 6 11 10 25 10 23 0 25 -4 25
-45z m158 -12 c2 -32 -1 -53 -7 -53 -6 0 -11 18 -11 39 0 22 -5 43 -10 46 -19
12 -40 -16 -40 -51 0 -19 -4 -34 -10 -34 -5 0 -10 24 -10 54 l0 54 43 -2 42
-1 3 -52z m136 35 c-10 -35 -24 -48 -50 -48 -13 0 -24 -4 -24 -10 0 -5 11 -10
24 -10 36 0 56 -10 56 -29 0 -25 -20 -41 -51 -41 -55 0 -59 6 -53 79 4 36 8
69 11 74 2 4 24 7 49 7 42 0 45 -1 38 -22z m114 10 c7 -7 12 -31 12 -54 l0
-42 -41 2 c-27 0 -46 7 -52 18 -15 23 8 48 45 48 19 0 27 4 22 11 -3 6 -19 9
-35 5 -27 -5 -37 2 -22 17 11 11 58 8 71 -5z m262 -7 c17 -33 11 -41 -30 -41
-40 0 -53 -13 -24 -24 9 -3 24 -6 35 -6 10 0 19 -4 19 -10 0 -14 -64 -12 -78
2 -7 7 -12 26 -12 43 0 17 5 36 12 43 19 19 66 15 78 -7z m400 9 c0 -5 -5 -10
-12 -10 -6 0 -8 -3 -5 -6 15 -15 -15 -44 -44 -44 -18 0 -28 -4 -24 -10 3 -5
19 -10 34 -10 32 0 56 -22 48 -45 -8 -18 -49 -29 -82 -21 -25 6 -25 8 -19 73
3 37 8 71 10 75 7 12 94 10 94 -2z m983 -5 c1 -5 -6 -11 -15 -13 -11 -2 -18 3
-18 13 0 17 30 18 33 0z m531 -1 c29 -28 20 -44 -25 -44 -49 0 -50 -23 -1 -28
40 -4 42 -22 2 -22 -51 0 -71 53 -37 98 13 17 42 15 61 -4z m132 -44 c1 -43 0
-46 -3 -12 -7 72 -58 67 -66 -6 -3 -28 -4 -23 -5 18 l-2 56 38 -1 37 0 1 -55z
m-1796 10 c0 -5 -16 -10 -35 -10 -19 0 -35 5 -35 10 0 6 16 10 35 10 19 0 35
-4 35 -10z m1138 -58 c2 -15 -4 -25 -22 -34 -30 -13 -50 -2 -23 13 12 7 16 17
11 31 -5 16 -2 19 13 16 10 -2 19 -13 21 -26z m-2350 -191 c-4 -28 -2 -29 23
-24 33 6 49 -17 49 -71 0 -25 -4 -36 -15 -36 -11 0 -15 12 -15 46 0 38 -3 45
-17 42 -13 -2 -19 -15 -21 -46 -2 -28 -8 -42 -18 -42 -11 0 -14 17 -14 80 0
67 3 80 16 80 12 0 15 -7 12 -29z m392 4 c0 -14 -4 -25 -10 -25 -5 0 -10 11
-10 25 0 14 5 25 10 25 6 0 10 -11 10 -25z m50 0 c0 -14 -4 -25 -10 -25 -5 0
-10 11 -10 25 0 14 5 25 10 25 6 0 10 -11 10 -25z m838 -5 c-4 -29 -3 -31 23
-25 33 8 49 -15 49 -69 0 -51 -18 -45 -22 7 -2 34 -7 42 -23 42 -16 0 -21 -8
-23 -42 -5 -75 -22 -46 -22 37 0 52 4 80 11 80 7 0 9 -12 7 -30z m1041 -28
c35 21 51 3 49 -54 -1 -51 -2 -52 -5 -10 -7 72 -58 67 -66 -6 -2 -20 -4 1 -4
48 0 47 2 68 4 48 4 -33 6 -36 22 -26z m281 -12 c0 -56 3 -70 15 -70 8 0 15
-4 15 -10 0 -5 -18 -10 -40 -10 -22 0 -40 5 -40 10 0 6 7 10 15 10 12 0 15 13
15 60 0 47 -3 60 -15 60 -8 0 -15 5 -15 10 0 6 11 10 25 10 24 0 25 -2 25 -70z
m90 39 c0 -26 3 -29 20 -24 28 9 50 -11 50 -46 0 -36 -26 -61 -59 -57 -25 3
-26 5 -29 81 -2 48 1 77 8 77 5 0 10 -14 10 -31z m319 -51 c0 -46 -3 -78 -5
-71 -4 9 -11 9 -29 1 -18 -8 -28 -8 -40 2 -35 29 -6 100 42 100 18 0 23 5 23
25 0 14 2 25 5 25 3 0 5 -37 4 -82z m613 67 c0 -5 -5 -11 -11 -13 -6 -2 -11 4
-11 13 0 9 5 15 11 13 6 -2 11 -8 11 -13z m258 0 c0 -8 -4 -15 -10 -15 -5 0
-10 7 -10 15 0 8 5 15 10 15 6 0 10 -7 10 -15z m1540 0 c0 -8 -4 -15 -9 -15
-13 0 -22 16 -14 24 11 11 23 6 23 -9z m250 -42 c0 -68 -5 -66 -14 5 -4 33 -3
52 4 52 6 0 10 -24 10 -57z m110 32 c0 -14 -4 -25 -10 -25 -5 0 -10 11 -10 25
0 14 5 25 10 25 6 0 10 -11 10 -25z m50 13 c0 -17 -20 -47 -20 -31 0 6 -3 18
-6 27 -4 11 -1 16 10 16 9 0 16 -6 16 -12z m-5317 -69 l20 -64 18 55 c28 81
29 83 35 77 10 -9 -39 -147 -52 -147 -7 0 -24 34 -38 76 -15 46 -21 74 -13 71
6 -2 20 -32 30 -68z m2982 -59 c19 0 35 -4 35 -10 0 -5 -18 -10 -40 -10 l-40
0 2 78 2 77 3 -67 4 -68 34 0z m521 90 c13 0 24 -4 24 -10 0 -5 -12 -10 -26
-10 -23 0 -25 -3 -22 -32 2 -25 8 -34 26 -36 30 -5 28 -22 -3 -22 -27 0 -45
25 -45 64 0 16 -6 26 -15 26 -8 0 -15 5 -15 10 0 6 6 10 14 10 7 0 17 10 21
23 l8 22 4 -22 c3 -16 11 -23 29 -23z m544 30 c0 -5 -9 -10 -20 -10 -18 0 -20
-7 -20 -65 0 -37 -4 -65 -10 -65 -6 0 -10 28 -10 65 0 58 -2 65 -20 65 -11 0
-20 5 -20 10 0 6 23 10 50 10 28 0 50 -4 50 -10z m-4756 -52 c23 -33 20 -38
-25 -38 -49 0 -50 -23 -1 -28 43 -4 41 -22 -2 -22 -37 0 -66 21 -66 48 0 29
30 62 55 62 13 0 31 -10 39 -22z m134 3 c3 -9 -1 -11 -15 -7 -30 10 -53 -3
-53 -29 0 -26 26 -40 55 -29 13 5 16 3 13 -7 -6 -18 -55 -24 -74 -8 -20 17
-18 76 4 88 23 14 64 9 70 -8z m250 7 c20 -20 15 -76 -7 -88 -45 -24 -83 -3
-83 45 0 14 5 32 12 40 15 18 61 20 78 3z m506 -4 c29 -28 20 -44 -25 -44 -49
0 -50 -23 -1 -28 18 -2 32 -8 32 -13 0 -6 -14 -9 -32 -7 -23 2 -37 11 -47 29
-13 24 -13 29 2 53 20 29 48 34 71 10z m92 8 c20 9 28 8 41 -5 9 -9 13 -20 9
-24 -4 -4 -11 -1 -15 6 -5 7 -17 11 -27 9 -14 -2 -20 -13 -22 -46 -5 -63 -22
-51 -21 16 0 31 3 52 5 45 4 -9 11 -9 30 -1z m159 -2 c4 -6 -5 -10 -19 -10
-35 0 -33 -19 4 -31 32 -12 38 -27 18 -47 -15 -15 -54 -16 -63 -2 -4 6 7 10
24 10 40 0 40 18 1 31 -16 6 -30 16 -30 23 0 29 51 49 65 26z m75 -30 c0 -71
55 -64 63 8 3 28 4 24 5 -18 l2 -55 -35 -2 c-25 -2 -37 2 -45 16 -13 25 -13
91 0 91 6 0 10 -18 10 -40z m195 31 c3 -5 -9 -11 -27 -13 -29 -3 -33 -6 -33
-33 0 -27 4 -31 35 -35 27 -4 31 -7 17 -13 -41 -16 -77 6 -77 45 0 42 66 79
85 49z m369 3 c11 -4 16 -19 16 -53 l0 -47 -36 1 c-44 0 -65 24 -45 49 8 9 27
16 43 16 19 0 27 4 22 11 -3 6 -19 9 -35 7 -29 -5 -40 6 -16 15 18 8 33 8 51
1z m76 -34 c0 -71 55 -64 63 8 3 28 4 24 5 -18 l2 -55 -35 -2 c-25 -2 -37 2
-45 16 -13 25 -13 91 0 91 6 0 10 -18 10 -40z m185 30 c4 -6 -5 -10 -19 -10
-33 0 -34 -18 -2 -30 32 -12 41 -28 26 -45 -14 -17 -56 -20 -65 -5 -4 6 7 10
24 10 40 0 40 18 1 31 -31 11 -41 43 -17 52 21 9 46 7 52 -3z m132 -6 c2 -7
-8 -9 -27 -6 -36 5 -41 -15 -5 -24 37 -9 49 -29 30 -48 -17 -17 -34 -20 -59
-10 -28 11 -17 20 19 16 39 -5 48 13 13 24 -39 11 -49 24 -37 46 11 21 59 22
66 2z m127 0 c29 -28 20 -44 -25 -44 -49 0 -50 -23 -1 -28 18 -2 32 -8 32 -13
0 -6 -14 -9 -32 -7 -23 2 -37 11 -47 29 -13 24 -13 29 2 53 20 29 48 34 71 10z
m76 6 c0 -6 7 -6 19 1 23 15 51 5 51 -17 0 -13 -3 -14 -15 -4 -8 6 -23 9 -35
5 -16 -5 -20 -15 -20 -46 0 -21 -4 -39 -10 -39 -5 0 -10 25 -10 55 0 30 5 55
10 55 6 0 10 -5 10 -10z m308 -2 c7 -7 12 -30 12 -53 0 -40 0 -41 -36 -40 -44
0 -65 24 -45 49 8 9 24 16 37 16 13 0 24 5 24 11 0 7 -12 10 -30 7 -29 -4 -37
1 -23 15 11 11 48 8 61 -5z m638 4 c6 -4 14 -17 18 -29 7 -21 4 -23 -34 -23
-50 0 -51 -23 -2 -28 18 -2 32 -7 32 -13 0 -15 -57 -10 -74 7 -42 41 12 118
60 86z m129 -2 c4 -6 -5 -10 -19 -10 -33 0 -34 -18 -2 -30 32 -12 41 -28 26
-45 -14 -17 -56 -20 -65 -5 -4 6 7 10 24 10 40 0 40 18 1 31 -31 11 -41 43
-17 52 21 9 46 7 52 -3z m365 -35 c0 -38 3 -45 20 -45 11 0 20 -4 20 -10 0 -5
-20 -10 -45 -10 -25 0 -45 5 -45 10 0 6 9 10 20 10 16 0 20 7 20 35 0 28 -4
35 -20 35 -11 0 -20 5 -20 10 0 6 11 10 25 10 23 0 25 -4 25 -45z m80 -25 l-7
-45 -1 60 c-1 37 2 54 7 45 5 -8 5 -35 1 -60z m40 59 c0 -8 4 -8 15 1 24 20
35 2 33 -53 l-2 -52 -3 48 c-5 60 -27 59 -31 -1 -4 -56 -22 -54 -22 3 0 25 -5
45 -11 45 -5 0 -7 5 -4 10 8 14 25 13 25 -1z m140 -34 c0 -33 4 -45 15 -45 8
0 15 -4 15 -10 0 -5 -18 -10 -40 -10 -22 0 -40 5 -40 10 0 6 7 10 15 10 10 0
15 11 15 35 0 24 -5 35 -15 35 -8 0 -15 5 -15 10 0 6 11 10 25 10 23 0 25 -4
25 -45z m277 29 c2 -7 -8 -9 -27 -6 -36 5 -41 -15 -5 -24 37 -9 49 -29 30 -48
-17 -17 -34 -20 -59 -10 -28 11 -17 20 19 16 39 -5 48 13 13 24 -39 11 -49 24
-37 46 11 21 59 22 66 2z m479 8 c20 9 28 8 41 -5 9 -9 13 -20 9 -24 -5 -5
-11 -2 -13 5 -6 16 -38 16 -51 -1 -6 -6 -12 -28 -15 -47 -2 -22 -4 -12 -5 25
0 33 2 55 4 48 4 -9 11 -9 30 -1z m114 -42 c15 -45 22 -43 40 13 6 20 16 37
21 37 15 0 -43 -138 -65 -152 -16 -11 -36 -10 -36 2 0 6 6 10 14 10 31 0 37
26 16 75 -21 50 -25 69 -12 61 5 -3 15 -23 22 -46z m310 24 c6 -14 10 -38 10
-53 0 -26 -2 -28 -42 -27 -37 1 -43 4 -46 25 -4 27 12 41 46 41 13 0 20 4 17
10 -3 6 -17 10 -31 10 -14 0 -22 4 -19 10 3 6 17 10 31 10 17 0 27 -8 34 -26z
m134 -1 c-8 -33 -20 -43 -51 -43 -13 0 -23 -4 -23 -10 0 -5 16 -10 35 -10 39
0 55 -21 38 -49 -22 -36 -100 -19 -88 19 3 10 6 35 7 56 1 50 13 64 54 64 32
0 34 -2 28 -27z m110 21 c11 -4 16 -19 16 -53 l0 -47 -36 1 c-44 0 -65 24 -45
49 8 9 27 16 43 16 19 0 27 4 22 11 -3 6 -19 9 -35 7 -29 -5 -40 6 -16 15 18
8 33 8 51 1z m116 -39 c0 -33 4 -45 15 -45 8 0 15 -4 15 -10 0 -5 -18 -10 -40
-10 -22 0 -40 5 -40 10 0 6 7 10 15 10 10 0 15 11 15 35 0 24 -5 35 -15 35 -8
0 -15 5 -15 10 0 6 11 10 25 10 23 0 25 -4 25 -45z m153 36 c4 0 6 -25 6 -53
l-2 -53 -6 42 c-4 24 -11 46 -15 50 -15 15 -41 -15 -44 -51 -5 -56 -22 -43
-22 18 l0 53 38 -2 c20 -1 40 -3 45 -4z m-1311 -86 c0 -5 -5 -11 -11 -13 -6
-2 -11 4 -11 13 0 9 5 15 11 13 6 -2 11 -8 11 -13z m1410 0 c0 -5 -5 -11 -11
-13 -6 -2 -11 4 -11 13 0 9 5 15 11 13 6 -2 11 -8 11 -13z m-5366 -179 c18
-19 18 -26 -1 -26 -22 0 -19 -43 5 -58 29 -18 25 -49 -10 -67 -16 -9 -30 -20
-30 -25 0 -6 -5 -10 -11 -10 -6 0 -9 6 -6 14 3 8 -2 16 -14 19 -10 3 -19 10
-19 17 0 7 8 9 19 5 27 -8 35 38 9 54 -25 16 -20 53 10 66 12 5 22 13 22 17 0
12 10 9 26 -6z m1670 -6 c8 0 14 -4 14 -10 0 -5 -6 -10 -14 -10 -22 0 -27 -48
-5 -55 9 -3 19 -12 22 -19 7 -18 -20 -56 -39 -56 -8 0 -14 -7 -14 -15 0 -8 -4
-15 -10 -15 -5 0 -10 6 -10 14 0 8 -7 16 -15 20 -23 8 -18 28 5 21 16 -5 20
-2 20 17 0 13 -9 31 -20 41 -21 18 -24 26 -12 42 13 19 57 43 60 34 2 -5 10
-9 18 -9z m2690 6 c18 -19 18 -26 -1 -26 -23 0 -18 -43 6 -58 25 -16 22 -51
-6 -66 -11 -6 -25 -18 -32 -26 -11 -13 -12 -13 -13 1 0 9 -7 19 -15 23 -8 3
-15 10 -15 15 0 6 6 8 14 5 23 -9 28 38 5 54 -26 18 -21 54 9 67 12 5 22 13
22 17 0 12 10 9 26 -6z m1670 0 c18 -19 18 -26 -1 -26 -22 0 -19 -43 5 -58 29
-18 25 -49 -10 -67 -16 -9 -30 -20 -30 -25 0 -6 -4 -10 -10 -10 -5 0 -7 6 -4
14 3 8 -3 16 -15 19 -12 3 -21 10 -21 17 0 7 8 9 19 5 27 -8 35 38 9 54 -25
16 -20 53 10 66 12 5 22 13 22 17 0 12 10 9 26 -6z m243 -26 c-14 -18 -22 -43
-22 -70 0 -27 8 -52 22 -70 26 -36 10 -50 -18 -15 -24 32 -35 76 -26 115 8 35
43 82 56 75 5 -4 -1 -19 -12 -35z m137 25 c14 -13 14 -17 0 -31 -22 -21 -20
-37 5 -52 26 -17 22 -54 -8 -67 -13 -5 -23 -15 -23 -22 0 -7 -4 -13 -10 -13
-5 0 -10 6 -10 14 0 8 -7 16 -15 20 -23 8 -18 28 5 21 16 -5 20 -2 20 19 0 15
-8 30 -20 36 -28 15 -25 48 5 62 14 6 25 15 25 20 0 12 10 10 26 -7z m1670
-61 c9 -37 -4 -91 -31 -121 -30 -34 -32 -21 -5 32 11 22 20 46 20 55 0 9 -9
33 -20 55 -11 22 -20 44 -20 50 1 17 49 -44 56 -71z m-8996 -4 c0 -56 3 -70
15 -70 8 0 15 -4 15 -10 0 -5 -18 -10 -40 -10 -22 0 -40 5 -40 10 0 6 7 10 15
10 12 0 15 13 15 60 0 47 -3 60 -15 60 -8 0 -15 5 -15 10 0 6 11 10 25 10 24
0 25 -2 25 -70z m130 55 c0 -8 -4 -15 -9 -15 -13 0 -22 16 -14 24 11 11 23 6
23 -9z m170 6 c0 -5 -12 -11 -27 -13 -38 -4 -45 -38 -9 -38 14 0 26 -4 26 -10
0 -5 -11 -10 -25 -10 -22 0 -25 -4 -27 -42 l-1 -43 -4 43 c-3 34 -8 42 -24 42
-10 0 -19 5 -19 10 0 6 9 10 20 10 13 0 20 7 20 18 0 10 5 23 12 30 14 14 58
16 58 3z m240 -1 c0 -5 -9 -10 -20 -10 -18 0 -20 -7 -20 -85 0 -78 2 -85 20
-85 11 0 20 -4 20 -10 0 -5 -13 -10 -30 -10 l-30 0 0 105 0 105 30 0 c17 0 30
-4 30 -10z m120 0 c0 -5 -9 -10 -20 -10 -18 0 -20 -7 -20 -85 0 -78 2 -85 20
-85 11 0 20 -4 20 -10 0 -5 -11 -10 -25 -10 l-25 0 0 105 0 105 25 0 c14 0 25
-4 25 -10z m500 -5 c0 -8 -7 -15 -15 -15 -8 0 -15 7 -15 15 0 8 7 15 15 15 8
0 15 -7 15 -15z m470 -14 c0 -25 3 -28 27 -23 18 3 30 -1 40 -13 31 -44 0 -99
-54 -93 -28 3 -28 4 -31 81 -2 48 1 77 8 77 5 0 10 -13 10 -29z m1325 20 c7
-12 -12 -24 -25 -16 -11 7 -4 25 10 25 5 0 11 -4 15 -9z m255 -61 c0 -63 2
-70 20 -70 11 0 20 -4 20 -10 0 -5 -22 -10 -50 -10 -27 0 -50 5 -50 10 0 6 9
10 20 10 18 0 20 7 20 60 0 47 -3 60 -15 60 -8 0 -15 5 -15 10 0 6 11 10 25
10 24 0 25 -2 25 -70z m670 -9 l0 -79 -42 2 c-42 1 -43 2 -46 39 -4 45 11 67
44 67 19 0 24 5 24 25 0 14 5 25 10 25 6 0 10 -33 10 -79z m240 -26 l0 -105
-25 0 c-14 0 -25 5 -25 10 0 6 7 10 15 10 12 0 15 16 15 85 0 69 -3 85 -15 85
-8 0 -15 5 -15 10 0 6 11 10 25 10 l25 0 0 -105z m130 0 l0 -105 -30 0 c-16 0
-30 5 -30 10 0 6 9 10 20 10 18 0 20 7 20 85 0 78 -2 85 -20 85 -11 0 -20 5
-20 10 0 6 14 10 30 10 l30 0 0 -105z m258 82 c2 -10 -4 -27 -14 -38 -14 -16
-15 -22 -5 -32 11 -9 14 -9 18 1 9 25 25 12 20 -17 -3 -15 -2 -32 4 -38 6 -6
-8 -10 -40 -11 -63 -1 -80 15 -63 62 7 19 10 41 6 50 -3 9 0 23 7 32 17 20 63
14 67 -9z m126 1 c8 -13 6 -22 -9 -38 -15 -17 -16 -23 -6 -33 11 -9 14 -9 18
1 9 24 25 12 19 -14 -4 -14 -2 -32 3 -38 8 -10 0 -13 -37 -14 -26 0 -53 4 -59
10 -15 12 -17 54 -3 63 6 3 7 17 4 31 -12 47 44 73 70 32z m266 12 c0 -5 -9
-10 -20 -10 -18 0 -20 -7 -20 -85 0 -78 2 -85 20 -85 11 0 20 -4 20 -10 0 -5
-13 -10 -30 -10 l-30 0 0 105 0 105 30 0 c17 0 30 -4 30 -10z m120 0 c0 -5 -9
-10 -20 -10 -18 0 -20 -7 -20 -85 0 -78 2 -85 20 -85 11 0 20 -4 20 -10 0 -5
-11 -10 -25 -10 l-25 0 0 105 0 105 25 0 c14 0 25 -4 25 -10z m500 -5 c0 -8
-7 -15 -15 -15 -8 0 -15 7 -15 15 0 8 7 15 15 15 8 0 15 -7 15 -15z m470 -14
c0 -25 3 -28 27 -23 18 3 30 -1 40 -13 31 -44 0 -99 -54 -93 -28 3 -28 4 -31
81 -2 48 1 77 8 77 5 0 10 -13 10 -29z m560 -41 c0 -56 3 -70 15 -70 8 0 15
-4 15 -10 0 -5 -20 -10 -45 -10 -25 0 -45 5 -45 10 0 6 7 10 15 10 12 0 15 13
15 60 0 47 -3 60 -15 60 -8 0 -15 5 -15 10 0 6 14 10 30 10 l30 0 0 -70z m500
33 c-25 -48 -25 -79 1 -127 26 -48 18 -58 -10 -13 -26 42 -28 108 -4 148 25
43 36 35 13 -8z m653 22 c1 -5 -6 -11 -15 -13 -11 -2 -18 3 -18 13 0 17 30 18
33 0z m257 -55 c0 -56 3 -70 15 -70 8 0 15 -4 15 -10 0 -5 -20 -10 -45 -10
-25 0 -45 5 -45 10 0 6 7 10 15 10 12 0 15 13 15 60 0 47 -3 60 -15 60 -8 0
-15 5 -15 10 0 6 14 10 30 10 l30 0 0 -70z m670 -8 l0 -78 -40 -1 c-41 -2 -60
15 -60 53 0 26 30 54 57 54 18 0 23 5 23 25 0 14 5 25 10 25 6 0 10 -33 10
-78z m473 49 c24 -40 22 -106 -4 -148 -28 -45 -36 -35 -10 13 26 48 26 79 1
127 -23 43 -12 51 13 8z m277 -76 l0 -105 -25 0 c-14 0 -25 5 -25 10 0 6 7 10
15 10 12 0 15 16 15 85 0 69 -3 85 -15 85 -8 0 -15 5 -15 10 0 6 11 10 25 10
l25 0 0 -105z m130 0 l0 -105 -30 0 c-16 0 -30 5 -30 10 0 6 9 10 20 10 18 0
20 7 20 85 0 78 -2 85 -20 85 -11 0 -20 5 -20 10 0 6 14 10 30 10 l30 0 0
-105z m460 74 c0 -26 3 -29 20 -24 32 10 50 -12 50 -61 0 -24 -4 -44 -10 -44
-5 0 -10 21 -10 46 0 41 -2 45 -22 42 -19 -2 -24 -10 -26 -45 -5 -75 -22 -46
-22 37 0 47 4 80 10 80 6 0 10 -14 10 -31z m-7680 1 c0 -15 7 -20 25 -20 14 0
25 -4 25 -10 0 -5 -12 -10 -26 -10 -23 0 -25 -3 -22 -32 2 -25 8 -34 26 -36
29 -4 29 -22 -1 -22 -32 0 -47 18 -47 57 0 23 -5 33 -15 33 -8 0 -15 5 -15 10
0 6 7 10 15 10 8 0 15 9 15 20 0 11 5 20 10 20 6 0 10 -9 10 -20z m1160 0 c0
-15 7 -20 25 -20 14 0 25 -4 25 -10 0 -5 -12 -10 -26 -10 -23 0 -25 -3 -22
-32 2 -25 8 -34 26 -36 35 -5 26 -24 -10 -20 -31 3 -33 6 -36 46 -3 34 -7 42
-23 42 -10 0 -19 5 -19 10 0 6 9 10 20 10 13 0 20 7 20 20 0 11 5 20 10 20 6
0 10 -9 10 -20z m4750 0 c0 -15 7 -20 25 -20 14 0 25 -4 25 -10 0 -5 -11 -10
-25 -10 -22 0 -25 -4 -25 -35 0 -31 3 -35 25 -35 14 0 25 -4 25 -10 0 -14 -54
-12 -68 2 -7 7 -12 27 -12 45 0 23 -5 33 -15 33 -8 0 -15 5 -15 10 0 6 7 10
15 10 8 0 15 9 15 20 0 11 7 20 15 20 8 0 15 -9 15 -20z m668 8 c19 -19 14
-54 -14 -87 l-26 -31 31 0 c17 0 31 -4 31 -10 0 -5 -22 -10 -50 -10 -27 0 -50
3 -50 6 0 4 16 24 35 45 19 22 35 46 35 54 0 20 -27 30 -44 16 -17 -14 -29 -2
-15 16 14 16 51 17 67 1z m1018 -28 c13 0 24 -4 24 -10 0 -5 -12 -10 -26 -10
-23 0 -25 -3 -22 -32 2 -25 8 -34 26 -36 30 -5 28 -22 -3 -22 -27 0 -45 25
-45 64 0 16 -6 26 -15 26 -8 0 -15 5 -15 10 0 6 6 10 14 10 7 0 17 10 21 23
l8 22 4 -22 c3 -16 11 -23 29 -23z m-1166 -15 c0 -20 5 -25 25 -25 14 0 25 -4
25 -10 0 -5 -11 -10 -25 -10 -20 0 -25 -5 -25 -25 0 -14 -4 -25 -10 -25 -5 0
-10 11 -10 25 0 18 -5 25 -20 25 -11 0 -20 5 -20 10 0 6 9 10 20 10 15 0 20 7
20 25 0 14 5 25 10 25 6 0 10 -11 10 -25z m-8826 -1 c29 -28 20 -44 -25 -44
-49 0 -50 -23 -1 -28 40 -4 42 -22 2 -22 -51 0 -71 53 -37 98 13 17 42 15 61
-4z m236 -29 c0 -33 4 -45 15 -45 8 0 15 -4 15 -10 0 -5 -18 -10 -40 -10 -22
0 -40 5 -40 10 0 6 7 10 15 10 10 0 15 11 15 35 0 24 -5 35 -15 35 -8 0 -15 5
-15 10 0 6 11 10 25 10 23 0 25 -4 25 -45z m918 33 c7 -7 12 -20 12 -30 0 -14
-8 -18 -36 -18 -45 0 -42 -24 4 -28 43 -4 41 -22 -2 -22 -59 0 -83 42 -50 88
17 24 53 29 72 10z m112 -33 c0 -33 4 -45 15 -45 8 0 15 -4 15 -10 0 -5 -20
-10 -45 -10 -25 0 -45 5 -45 10 0 6 9 10 20 10 16 0 20 7 20 35 0 28 -4 35
-20 35 -11 0 -20 5 -20 10 0 6 14 10 30 10 29 0 30 -2 30 -45z m147 33 c15
-12 18 -98 3 -98 -5 0 -10 18 -10 39 0 43 -9 55 -34 45 -11 -4 -16 -19 -16
-45 0 -21 -4 -39 -10 -39 -5 0 -10 24 -10 53 0 54 0 54 32 55 18 0 38 -4 45
-10z m137 -15 c-8 -33 -20 -43 -51 -43 -38 0 -26 -19 15 -22 30 -2 38 -7 40
-27 4 -28 -12 -41 -54 -41 -35 0 -60 22 -48 42 5 7 8 31 7 53 -2 51 10 65 58
65 38 0 39 -1 33 -27z m126 1 c6 -14 10 -38 10 -54 0 -28 -1 -29 -47 -27 -37
2 -49 6 -51 20 -5 25 16 47 44 47 13 0 24 5 24 11 0 7 -11 9 -30 6 -16 -4 -30
-3 -30 2 0 14 13 21 42 21 21 0 31 -6 38 -26z m248 14 c7 -7 12 -20 12 -30 0
-14 -8 -18 -36 -18 -45 0 -42 -24 4 -28 43 -4 41 -22 -2 -22 -59 0 -83 42 -50
88 17 24 53 29 72 10z m396 -15 c-8 -33 -20 -43 -53 -43 -34 0 -14 -18 24 -22
24 -2 31 -8 33 -30 3 -22 -2 -29 -21 -33 -14 -4 -36 -5 -48 -3 -22 3 -24 8
-25 68 -1 36 3 71 8 78 6 6 28 12 49 12 38 0 39 -1 33 -27z m503 11 c2 -7 -8
-9 -27 -6 -36 5 -41 -15 -5 -24 36 -9 51 -30 35 -50 -15 -18 -71 -15 -78 3 -2
9 5 11 27 7 40 -8 41 10 1 26 -31 13 -41 44 -17 54 19 8 60 2 64 -10z m130 4
c16 -13 17 -70 1 -86 -7 -7 -22 -12 -35 -12 -18 0 -23 -6 -23 -25 0 -14 -4
-25 -10 -25 -6 0 -10 33 -10 78 l0 79 32 1 c18 0 38 -4 45 -10z m103 -33 c0
-38 3 -45 20 -45 11 0 20 -4 20 -10 0 -5 -22 -10 -50 -10 -27 0 -50 5 -50 10
0 6 9 10 20 10 16 0 20 7 20 35 0 24 -5 35 -15 35 -8 0 -15 5 -15 10 0 6 11
10 25 10 23 0 25 -4 25 -45z m154 29 c29 -28 20 -44 -25 -44 -49 0 -50 -23 -1
-28 42 -4 41 -22 -1 -22 -41 0 -57 15 -57 55 0 17 5 36 12 43 17 17 54 15 72
-4z m253 0 c2 -7 -6 -10 -22 -7 -35 7 -32 -12 5 -27 33 -14 38 -31 16 -49 -18
-15 -68 -11 -74 6 -2 9 5 11 27 7 34 -7 44 11 12 21 -32 10 -46 32 -31 51 15
17 61 15 67 -2z m261 4 c7 -7 12 -31 12 -54 l0 -42 -41 2 c-27 0 -46 7 -52 18
-15 23 8 48 45 48 19 0 27 4 22 11 -3 6 -19 9 -35 5 -27 -5 -37 2 -22 17 11
11 58 8 71 -5z m132 -8 c16 -30 13 -90 -5 -90 -11 0 -15 12 -15 46 0 38 -3 45
-17 42 -13 -2 -19 -15 -21 -46 -2 -28 -8 -42 -18 -42 -10 0 -14 13 -14 53 l0
53 40 1 c30 2 42 -3 50 -17z m1664 4 c29 -28 20 -44 -25 -44 -49 0 -50 -23 -1
-28 42 -4 41 -22 -1 -22 -41 0 -57 15 -57 55 0 17 5 36 12 43 17 17 54 15 72
-4z m106 -29 c0 -33 4 -45 15 -45 8 0 15 -4 15 -10 0 -5 -20 -10 -45 -10 -25
0 -45 5 -45 10 0 6 9 10 20 10 16 0 20 7 20 35 0 28 -4 35 -20 35 -11 0 -20 5
-20 10 0 6 14 10 30 10 29 0 30 -2 30 -45z m158 -12 c2 -32 -1 -53 -7 -53 -6
0 -11 18 -11 39 0 22 -5 43 -10 46 -19 12 -40 -16 -40 -51 0 -19 -4 -34 -10
-34 -5 0 -10 24 -10 54 l0 54 43 -2 42 -1 3 -52z m142 47 c0 -5 -5 -10 -12
-10 -6 0 -8 -3 -5 -6 15 -15 -15 -44 -44 -44 -18 0 -28 -4 -24 -10 3 -5 19
-10 34 -10 33 0 54 -20 45 -44 -8 -20 -45 -30 -79 -22 -25 6 -25 8 -19 73 3
37 8 71 10 75 7 12 94 10 94 -2z m110 -16 c6 -14 10 -38 10 -54 0 -28 -1 -29
-47 -27 -37 2 -49 6 -51 20 -5 25 16 47 44 47 13 0 24 5 24 11 0 7 -11 9 -30
6 -16 -4 -30 -3 -30 2 0 14 13 21 42 21 21 0 31 -6 38 -26z m254 10 c29 -28
20 -44 -25 -44 -49 0 -50 -23 -1 -28 42 -4 41 -22 -1 -22 -41 0 -57 15 -57 55
0 17 5 36 12 43 17 17 54 15 72 -4z m514 4 c7 -7 12 -20 12 -30 0 -14 -8 -18
-40 -18 -40 0 -53 -13 -24 -24 9 -3 24 -6 35 -6 10 0 19 -4 19 -10 0 -14 -64
-12 -78 2 -7 7 -12 26 -12 43 0 38 16 55 50 55 14 0 31 -5 38 -12z m770 -5 c2
-9 -5 -11 -27 -7 -41 8 -41 -11 0 -25 24 -8 30 -15 27 -33 -3 -19 -9 -23 -42
-23 -22 0 -41 5 -43 12 -3 8 6 10 31 6 44 -7 48 11 6 26 -29 10 -40 37 -23 55
11 11 66 2 71 -11z m132 -2 c22 -43 -2 -91 -47 -91 -18 0 -23 -5 -23 -25 0
-14 -4 -25 -10 -25 -6 0 -10 33 -10 78 l0 79 40 1 c30 1 42 -3 50 -17z m100
-26 c0 -38 3 -45 20 -45 11 0 20 -4 20 -10 0 -5 -22 -10 -50 -10 -27 0 -50 5
-50 10 0 6 9 10 20 10 16 0 20 7 20 35 0 24 -5 35 -15 35 -8 0 -15 5 -15 10 0
6 11 10 25 10 23 0 25 -4 25 -45z m148 33 c7 -7 12 -20 12 -30 0 -14 -8 -18
-36 -18 -45 0 -42 -24 4 -28 43 -4 41 -22 -2 -22 -59 0 -83 42 -50 88 17 24
53 29 72 10z m260 -5 c2 -9 -5 -11 -27 -7 -41 8 -41 -11 0 -25 24 -8 30 -15
27 -33 -3 -19 -9 -23 -42 -23 -22 0 -41 5 -43 12 -3 8 6 10 31 6 44 -7 48 11
6 26 -29 10 -40 37 -23 55 11 11 66 2 71 -11z m260 -39 l3 -52 -43 2 c-37 1
-43 4 -46 25 -4 27 12 41 46 41 14 0 21 4 16 11 -3 6 -17 9 -30 6 -13 -2 -24
-1 -24 3 0 14 15 21 45 18 29 -3 30 -5 33 -54z m130 -1 c2 -32 -1 -53 -7 -53
-6 0 -11 18 -11 39 0 22 -5 43 -10 46 -19 12 -40 -16 -40 -51 0 -19 -4 -34
-10 -34 -5 0 -10 24 -10 54 l0 54 43 -2 42 -1 3 -52z m1125 42 c1 -5 -6 -11
-15 -13 -11 -2 -18 3 -18 13 0 17 30 18 33 0z m531 -1 c29 -28 20 -44 -25 -44
-49 0 -50 -23 -1 -28 40 -4 42 -22 2 -22 -51 0 -71 53 -37 98 13 17 42 15 61
-4z m132 -44 c1 -43 0 -46 -3 -12 -7 72 -58 67 -66 -6 -3 -28 -4 -23 -5 18
l-2 56 38 -1 37 0 1 -55z m-8206 10 c0 -5 -16 -10 -35 -10 -19 0 -35 5 -35 10
0 6 16 10 35 10 19 0 35 -4 35 -10z m4360 0 c0 -5 -16 -10 -35 -10 -19 0 -35
5 -35 10 0 6 16 10 35 10 19 0 35 -4 35 -10z m3188 -58 c2 -15 -4 -25 -22 -34
-30 -13 -50 -2 -23 13 12 7 16 17 11 31 -5 16 -2 19 13 16 10 -2 19 -13 21
-26z m-9280 -183 c-4 -28 -3 -30 20 -24 31 8 52 -10 52 -46 0 -36 -26 -61 -59
-57 -25 3 -26 5 -29 81 -2 53 1 77 9 77 7 0 10 -12 7 -31z m509 -91 c-2 -24
-4 -5 -4 42 0 47 2 66 4 43 2 -24 2 -62 0 -85z m-377 62 c0 -6 7 -6 19 1 23
15 51 5 51 -17 0 -13 -3 -14 -15 -4 -8 6 -23 9 -35 5 -16 -5 -20 -15 -20 -46
0 -21 -4 -39 -10 -39 -5 0 -10 25 -10 55 0 30 5 55 10 55 6 0 10 -5 10 -10z
m184 -12 c23 -33 20 -38 -25 -38 -49 0 -50 -23 -1 -28 40 -4 42 -22 3 -22 -54
0 -80 53 -44 92 22 24 49 23 67 -4z m124 10 c7 -7 12 -30 12 -53 0 -40 0 -41
-36 -40 -47 0 -69 29 -40 51 11 8 30 14 44 14 14 0 21 4 16 11 -3 6 -19 9 -35
7 -29 -5 -40 6 -16 15 22 9 43 7 55 -5z m122 -13 l-24 -25 29 -30 c18 -19 23
-30 14 -29 -8 0 -25 14 -38 30 l-23 30 23 25 c12 13 27 24 32 24 6 0 0 -11
-13 -25z m-910 -315 c0 -56 3 -70 15 -70 8 0 15 -4 15 -10 0 -5 -18 -10 -40
-10 -22 0 -40 5 -40 10 0 6 7 10 15 10 12 0 15 13 15 60 0 47 -3 60 -15 60 -8
0 -15 5 -15 10 0 6 11 10 25 10 24 0 25 -2 25 -70z m-106 4 c29 -28 20 -44
-25 -44 -49 0 -50 -23 -1 -28 40 -4 42 -22 2 -22 -51 0 -71 53 -37 98 13 17
42 15 61 -4z m251 6 c4 -6 -5 -10 -19 -10 -33 0 -34 -18 -2 -30 32 -12 41 -28
26 -45 -14 -17 -56 -20 -65 -5 -4 6 7 10 24 10 40 0 40 18 1 31 -31 11 -41 43
-17 52 21 9 46 7 52 -3z m126 0 c10 -6 19 -20 19 -30 0 -17 -7 -20 -41 -20
-49 0 -50 -23 -1 -28 39 -4 43 -22 4 -22 -37 0 -52 17 -52 57 0 44 32 64 71
43z m337 -289 c-4 -28 -2 -29 23 -24 33 6 49 -17 49 -71 0 -25 -4 -36 -15 -36
-11 0 -15 12 -15 46 0 38 -3 45 -17 42 -13 -2 -19 -15 -21 -46 -2 -28 -8 -42
-18 -42 -11 0 -14 17 -14 80 0 67 3 80 16 80 12 0 15 -7 12 -29z m782 10 c0
-30 -17 -34 -22 -6 -4 17 -1 25 8 25 8 0 14 -9 14 -19z m40 -6 c0 -14 -4 -25
-10 -25 -5 0 -10 11 -10 25 0 14 5 25 10 25 6 0 10 -11 10 -25z m110 -68 c18
-43 30 -80 27 -83 -4 -5 -77 157 -77 172 0 19 21 -17 50 -89z m270 83 c0 -5
-7 -10 -15 -10 -12 0 -15 -16 -15 -85 0 -69 3 -85 15 -85 8 0 15 -4 15 -10 0
-5 -11 -10 -25 -10 l-25 0 0 105 0 105 25 0 c14 0 25 -4 25 -10z m754 -11 c-3
-5 -10 -7 -15 -3 -5 3 -7 10 -3 15 3 5 10 7 15 3 5 -3 7 -10 3 -15z m1135 -37
c35 21 51 3 49 -54 -1 -51 -2 -52 -5 -10 -7 72 -58 67 -66 -6 -2 -20 -4 1 -4
48 0 47 2 68 4 48 4 -33 6 -36 22 -26z m275 37 c-3 -5 -10 -7 -15 -3 -5 3 -7
10 -3 15 3 5 10 7 15 3 5 -3 7 -10 3 -15z m516 6 c0 -8 -4 -15 -10 -15 -5 0
-10 7 -10 15 0 8 5 15 10 15 6 0 10 -7 10 -15z m350 -65 c0 -47 -4 -80 -10
-80 -6 0 -10 33 -10 80 0 47 4 80 10 80 6 0 10 -33 10 -80z m768 49 c-4 -28
-3 -30 20 -24 31 8 52 -10 52 -46 0 -36 -26 -61 -59 -57 -25 3 -26 5 -29 81
-2 53 1 77 9 77 7 0 10 -12 7 -31z m292 -39 c0 -56 3 -70 15 -70 8 0 15 -4 15
-10 0 -5 -18 -10 -40 -10 -22 0 -40 5 -40 10 0 6 7 10 15 10 12 0 15 13 15 60
0 47 -3 60 -15 60 -8 0 -15 5 -15 10 0 6 11 10 25 10 24 0 25 -2 25 -70z m129
53 c0 -10 -4 -36 -8 -58 -9 -40 -9 -39 -10 18 0 32 3 57 9 57 6 0 10 -8 9 -17z
m1153 2 c0 -5 -5 -11 -11 -13 -6 -2 -11 4 -11 13 0 9 5 15 11 13 6 -2 11 -8
11 -13z m258 -78 c18 -43 30 -80 27 -83 -4 -5 -77 157 -77 172 0 19 21 -17 50
-89z m270 83 c0 -5 -7 -10 -15 -10 -12 0 -15 -16 -15 -85 0 -69 3 -85 15 -85
8 0 15 -4 15 -10 0 -5 -11 -10 -25 -10 l-25 0 0 105 0 105 25 0 c14 0 25 -4
25 -10z m350 -9 c0 -30 -17 -34 -22 -6 -4 17 -1 25 8 25 8 0 14 -9 14 -19z
m40 -6 c0 -14 -4 -25 -10 -25 -5 0 -10 11 -10 25 0 14 5 25 10 25 6 0 10 -11
10 -25z m-6159 -1 c10 -12 10 -20 1 -34 -9 -14 -8 -21 3 -30 8 -7 15 -18 15
-26 0 -18 -40 -44 -67 -44 -35 0 -27 18 10 22 24 2 32 8 32 23 0 13 -8 21 -22
23 -28 4 -30 22 -3 22 14 0 20 7 20 21 0 18 -5 21 -30 17 -16 -3 -30 -2 -30 2
0 24 52 27 71 4z m119 -49 c0 -51 3 -65 15 -65 8 0 15 -4 15 -10 0 -5 -20 -10
-45 -10 -25 0 -45 5 -45 10 0 6 9 10 20 10 18 0 20 7 20 55 0 56 -6 65 -28 43
-9 -9 -12 -9 -12 0 0 6 8 16 18 21 36 21 42 13 42 -54z m270 45 c45 -45 13
-130 -50 -130 l-30 0 0 75 0 75 30 0 c17 0 39 -9 50 -20z m585 -40 c10 -33 21
-60 25 -60 4 0 14 27 23 60 10 33 21 60 26 60 5 0 -2 -34 -16 -75 -13 -41 -30
-75 -36 -75 -7 0 -20 26 -29 58 -9 32 -20 66 -24 75 -3 9 -2 17 3 17 6 0 18
-27 28 -60z m1305 34 c0 -8 10 -14 25 -14 14 0 25 -4 25 -10 0 -5 -11 -10 -25
-10 -22 0 -25 -4 -25 -35 0 -31 3 -35 25 -35 14 0 25 -4 25 -10 0 -11 -30 -13
-54 -4 -11 4 -16 19 -16 45 0 28 -4 39 -15 39 -8 0 -15 5 -15 10 0 6 7 10 15
10 8 0 15 9 15 21 0 11 5 17 10 14 6 -3 10 -13 10 -21z m1176 -14 c13 0 24 -4
24 -10 0 -5 -12 -10 -26 -10 -23 0 -25 -3 -22 -32 2 -25 8 -34 26 -36 30 -5
28 -22 -3 -22 -27 0 -45 25 -45 64 0 16 -6 26 -15 26 -8 0 -15 5 -15 10 0 6 6
10 14 10 7 0 17 10 21 23 l8 22 4 -22 c3 -16 11 -23 29 -23z m934 30 c0 -5
-11 -10 -25 -10 -24 0 -25 -3 -27 -67 l-2 -68 -3 68 c-4 64 -5 67 -28 67 -14
0 -25 5 -25 10 0 6 25 10 55 10 30 0 55 -4 55 -10z m1512 -2 c38 -31 25 -123
-18 -134 -38 -10 -59 17 -59 72 0 62 38 92 77 62z m-7428 -50 c23 -33 20 -38
-25 -38 -49 0 -50 -23 -1 -28 43 -4 41 -22 -2 -22 -37 0 -66 21 -66 48 0 29
30 62 55 62 13 0 31 -10 39 -22z m134 3 c3 -9 -1 -11 -15 -7 -30 10 -53 -3
-53 -29 0 -26 26 -40 55 -29 13 5 16 3 13 -7 -6 -18 -55 -24 -74 -8 -20 17
-18 76 4 88 23 14 64 9 70 -8z m250 7 c20 -20 15 -76 -7 -88 -45 -24 -83 -3
-83 45 0 14 5 32 12 40 15 18 61 20 78 3z m373 2 c10 -6 19 -20 19 -30 0 -17
-7 -20 -41 -20 -49 0 -50 -23 -1 -28 35 -4 44 -22 11 -22 -39 0 -59 19 -59 55
0 46 31 66 71 45z m517 -2 c7 -7 12 -20 12 -30 0 -14 -8 -18 -36 -18 -45 0
-42 -24 4 -28 38 -4 43 -22 6 -22 -41 0 -64 18 -64 50 0 48 48 78 78 48z m442
-58 l-7 -45 -1 60 c-1 37 2 54 7 45 5 -8 5 -35 1 -60z m40 59 c0 -8 4 -8 15 1
24 20 35 2 33 -53 l-2 -52 -3 48 c-5 60 -27 59 -31 -1 -4 -56 -22 -54 -22 3 0
25 -5 45 -11 45 -5 0 -7 5 -4 10 8 14 25 13 25 -1z m288 -1 c7 -7 12 -20 12
-30 0 -14 -8 -18 -36 -18 -45 0 -42 -24 4 -28 38 -4 43 -22 6 -22 -41 0 -64
18 -64 50 0 48 48 78 78 48z m112 -33 c0 -33 4 -45 15 -45 8 0 15 -4 15 -10 0
-5 -20 -10 -45 -10 -25 0 -45 5 -45 10 0 6 9 10 20 10 16 0 20 7 20 35 0 24
-5 35 -15 35 -8 0 -15 5 -15 10 0 6 11 10 25 10 23 0 25 -4 25 -45z m150 26
c13 -25 13 -91 1 -91 -6 0 -11 19 -13 43 -2 34 -7 42 -23 42 -16 0 -21 -8 -23
-42 -4 -61 -22 -53 -22 10 l0 52 35 2 c25 2 37 -2 45 -16z m378 7 c7 -7 12
-20 12 -30 0 -14 -8 -18 -36 -18 -45 0 -42 -24 4 -28 38 -4 43 -22 6 -22 -41
0 -64 18 -64 50 0 48 48 78 78 48z m98 4 c20 9 28 8 41 -5 9 -9 13 -20 9 -24
-5 -5 -11 -2 -13 5 -6 16 -38 16 -51 -1 -6 -6 -12 -28 -15 -47 -2 -22 -4 -12
-5 25 0 33 2 55 4 48 4 -9 11 -9 30 -1z m161 -8 c2 -7 -8 -9 -27 -6 -36 5 -41
-15 -5 -24 37 -9 49 -29 30 -48 -17 -17 -34 -20 -59 -10 -28 11 -17 20 19 16
39 -5 48 13 13 24 -39 11 -49 24 -37 46 11 21 59 22 66 2z m73 -29 c0 -30 4
-45 13 -45 22 0 37 23 37 57 0 18 5 33 10 33 6 0 10 -25 10 -55 0 -30 -4 -55
-10 -55 -5 0 -10 5 -10 11 0 8 -4 8 -15 -1 -8 -6 -23 -9 -35 -5 -17 5 -20 15
-20 56 0 27 5 49 10 49 6 0 10 -20 10 -45z m185 35 c3 -6 -4 -10 -18 -10 -58
0 -59 -59 -1 -71 25 -5 26 -7 11 -14 -10 -4 -29 -3 -43 3 -19 9 -24 19 -24 46
0 23 6 39 18 45 22 13 49 14 57 1z m365 -35 c0 -33 4 -45 15 -45 8 0 15 -4 15
-10 0 -5 -20 -10 -45 -10 -25 0 -45 5 -45 10 0 6 9 10 20 10 16 0 20 7 20 35
0 24 -5 35 -15 35 -8 0 -15 5 -15 10 0 6 11 10 25 10 23 0 25 -4 25 -45z m147
29 c2 -7 -8 -9 -27 -6 -36 5 -41 -15 -5 -24 37 -9 49 -29 30 -48 -17 -17 -34
-20 -59 -10 -28 11 -17 20 19 16 39 -5 48 13 13 24 -39 11 -49 24 -37 46 11
21 59 22 66 2z m363 -29 c0 -33 4 -45 15 -45 8 0 15 -4 15 -10 0 -5 -18 -10
-40 -10 -22 0 -40 5 -40 10 0 6 7 10 15 10 10 0 15 11 15 35 0 24 -5 35 -15
35 -8 0 -15 5 -15 10 0 6 11 10 25 10 23 0 25 -4 25 -45z m153 36 c4 0 6 -25
6 -53 l-2 -53 -6 42 c-4 24 -11 46 -15 50 -15 15 -41 -15 -44 -51 -5 -56 -22
-43 -22 18 l0 53 38 -2 c20 -1 40 -3 45 -4z m127 -10 c5 -11 10 -35 10 -54 0
-33 -1 -34 -42 -33 -37 1 -43 4 -46 25 -4 26 12 41 46 41 12 0 22 5 22 10 0 6
-14 10 -31 10 -17 0 -28 4 -24 10 11 17 54 11 65 -9z m121 -5 l-23 -25 21 -27
c23 -30 21 -45 -4 -24 -34 28 -38 50 -14 76 12 13 27 24 32 24 6 0 0 -11 -12
-24z m139 14 c0 -5 -14 -25 -31 -45 l-31 -35 36 0 c20 0 36 -4 36 -10 0 -5
-20 -10 -45 -10 -25 0 -45 3 -45 6 0 3 14 24 31 45 l31 39 -31 0 c-17 0 -31 5
-31 10 0 6 18 10 40 10 22 0 40 -4 40 -10z m116 2 c6 -4 14 -17 18 -29 7 -21
4 -23 -34 -23 -50 0 -51 -23 -2 -28 18 -2 32 -7 32 -13 0 -15 -57 -10 -74 7
-42 41 12 118 60 86z m74 -3 c0 -8 4 -8 15 1 8 6 23 9 33 5 46 -14 29 -97 -21
-103 -21 -3 -27 -9 -27 -28 0 -13 -4 -24 -10 -24 -6 0 -10 33 -10 80 0 47 4
80 10 80 6 0 10 -5 10 -11z m320 -8 c5 -11 10 -35 10 -54 0 -33 -1 -34 -42
-33 -37 1 -43 4 -46 25 -4 26 12 41 46 41 12 0 22 5 22 10 0 6 -14 10 -31 10
-17 0 -28 4 -24 10 11 17 54 11 65 -9z m254 3 c29 -28 20 -44 -25 -44 -49 0
-50 -23 -1 -28 18 -2 32 -8 32 -13 0 -6 -14 -9 -32 -7 -23 2 -37 11 -47 29
-13 24 -13 29 2 53 20 29 48 34 71 10z m586 6 c0 -6 7 -6 19 1 23 15 51 5 51
-17 0 -13 -3 -14 -15 -4 -8 6 -23 9 -35 5 -16 -5 -20 -15 -20 -46 0 -21 -4
-39 -10 -39 -5 0 -10 25 -10 55 0 30 5 55 10 55 6 0 10 -5 10 -10z m130 -27
c18 -56 25 -58 40 -13 14 43 37 70 25 29 -17 -56 -61 -134 -77 -137 -25 -5
-23 14 2 21 11 3 20 12 20 20 0 9 -9 36 -20 62 -23 53 -23 55 -11 55 5 0 15
-17 21 -37z m308 25 c7 -7 12 -30 12 -53 0 -40 0 -41 -36 -40 -44 0 -65 24
-45 49 8 9 24 16 37 16 13 0 24 5 24 11 0 7 -12 10 -30 7 -29 -4 -37 1 -23 15
11 11 48 8 61 -5z m152 2 c0 -5 -4 -10 -10 -10 -5 0 -10 -9 -10 -19 0 -20 -18
-31 -51 -31 -11 0 -17 -4 -14 -10 3 -5 19 -10 34 -10 26 0 51 -15 51 -31 0
-17 -33 -39 -59 -39 -32 0 -57 23 -45 42 5 7 8 31 7 53 -1 22 3 45 9 52 12 15
88 18 88 3z m110 -9 c5 -11 10 -35 10 -54 0 -33 -1 -34 -42 -33 -37 1 -43 4
-46 25 -4 26 12 41 46 41 12 0 22 5 22 10 0 6 -14 10 -31 10 -17 0 -28 4 -24
10 11 17 54 11 65 -9z m100 -26 c0 -38 3 -45 20 -45 11 0 20 -4 20 -10 0 -5
-20 -10 -45 -10 -25 0 -45 5 -45 10 0 6 9 10 20 10 16 0 20 7 20 35 0 28 -4
35 -20 35 -11 0 -20 5 -20 10 0 6 11 10 25 10 23 0 25 -4 25 -45z m156 -15 c1
-43 0 -46 -3 -12 -7 72 -58 67 -66 -6 -3 -28 -4 -23 -5 18 l-2 56 38 -1 37 0
1 -55z m252 48 c7 -7 12 -20 12 -30 0 -14 -8 -18 -36 -18 -45 0 -42 -24 4 -28
38 -4 43 -22 6 -22 -41 0 -64 18 -64 50 0 48 48 78 78 48z m328 3 c25 21 42
-9 35 -61 l-5 -45 -6 45 c-6 57 -24 58 -28 3 -5 -64 -22 -52 -21 15 0 31 3 51
6 44 4 -10 8 -10 19 -1z m78 -7 c10 -25 7 -94 -4 -94 -5 0 -10 20 -10 45 0 25
-4 45 -10 45 -5 0 -10 5 -10 10 0 16 27 11 34 -6z m-6944 -34 c0 -5 -16 -10
-35 -10 -19 0 -35 5 -35 10 0 6 16 10 35 10 19 0 35 -4 35 -10z m4974 -51 c-3
-5 -10 -7 -15 -3 -5 3 -7 10 -3 15 3 5 10 7 15 3 5 -3 7 -10 3 -15z m-6114
-168 c0 -5 -10 -11 -22 -13 -34 -5 -37 -38 -4 -38 14 0 26 -4 26 -10 0 -5 -11
-10 -25 -10 -22 0 -25 -4 -27 -42 l-1 -43 -4 43 c-3 34 -8 42 -24 42 -10 0
-19 5 -19 10 0 6 9 10 20 10 13 0 20 7 20 18 0 10 5 23 12 30 14 14 48 16 48
3z m90 -6 c0 -8 -4 -15 -10 -15 -5 0 -10 7 -10 15 0 8 5 15 10 15 6 0 10 -7
10 -15z m0 -80 c0 -33 4 -45 15 -45 8 0 15 -4 15 -10 0 -5 -18 -10 -40 -10
-22 0 -40 5 -40 10 0 6 7 10 15 10 10 0 15 11 15 35 0 24 -5 35 -15 35 -8 0
-15 5 -15 10 0 6 11 10 25 10 23 0 25 -4 25 -45z m-611 -307 c0 -46 -3 -78 -5
-71 -4 9 -11 9 -29 1 -32 -14 -55 4 -55 43 0 32 23 59 51 59 14 0 19 7 19 25
0 14 5 25 10 25 6 0 10 -34 9 -82z m130 1 c13 -24 13 -29 -2 -53 -19 -28 -54
-35 -75 -14 -7 7 -12 27 -12 45 0 56 61 71 89 22z m119 18 c14 -10 17 -97 2
-97 -5 0 -10 21 -10 46 0 41 -2 45 -22 42 -19 -2 -24 -10 -26 -45 -4 -61 -22
-53 -22 10 l0 52 33 0 c17 0 38 -4 45 -8z m126 -3 c29 -28 20 -44 -25 -44 -49
0 -50 -23 -1 -28 40 -4 42 -22 2 -22 -51 0 -71 53 -37 98 13 17 42 15 61 -4z
m1524 -270 c29 -20 28 -45 -3 -72 -24 -21 -25 -21 -25 -2 0 11 7 20 15 20 23
0 19 41 -5 47 -11 3 -20 9 -20 14 0 13 13 11 38 -7z m-1894 -37 c8 -5 6 -11
-6 -18 -22 -12 -23 -29 -3 -29 8 0 15 -4 15 -10 0 -5 -7 -10 -15 -10 -8 0 -16
-10 -16 -22 l-2 -23 -4 23 c-3 14 -11 22 -21 21 -33 -3 -52 1 -52 11 0 6 7 10
15 10 18 0 20 26 3 33 -22 9 10 25 38 19 20 -4 24 0 25 19 1 21 2 21 6 4 3
-11 10 -23 17 -28z m208 -85 c30 -4 35 7 41 88 3 37 4 34 5 -17 3 -81 -21
-108 -69 -83 -16 9 -19 21 -17 78 l1 67 6 -65 c6 -62 7 -65 33 -68z m153 78
c4 -6 -5 -10 -19 -10 -35 0 -33 -19 4 -31 37 -14 41 -46 6 -55 -14 -3 -33 -1
-43 5 -15 9 -12 10 20 11 42 0 50 16 12 26 -37 9 -49 29 -30 48 19 18 41 21
50 6z m133 -2 c7 -7 12 -20 12 -30 0 -14 -8 -18 -41 -18 -36 0 -40 -2 -29 -15
7 -8 25 -15 41 -15 16 0 29 -4 29 -10 0 -16 -52 -11 -72 7 -22 20 -23 42 -2
71 17 24 43 29 62 10z m100 3 c19 12 24 11 39 -3 9 -10 13 -21 9 -25 -5 -5
-11 -2 -13 5 -6 16 -38 16 -51 -1 -6 -6 -12 -28 -15 -47 -2 -23 -4 -15 -5 25
-1 36 2 55 7 47 7 -12 12 -12 29 -1z m296 -13 c-10 -35 -25 -49 -47 -46 -11 2
-22 -2 -24 -9 -3 -7 10 -13 34 -15 30 -2 39 -7 41 -25 4 -27 -30 -47 -63 -39
-22 6 -24 11 -22 71 2 72 11 85 60 85 25 0 27 -3 21 -22z m120 6 c29 -28 20
-44 -25 -44 -49 0 -50 -23 -1 -28 35 -4 44 -22 11 -22 -39 0 -59 19 -59 55 0
49 42 71 74 39z m61 -38 c5 -29 9 -36 16 -25 5 8 9 10 9 4 0 -14 -18 -40 -24
-35 -2 3 -7 30 -10 60 -7 60 -1 58 9 -4z m85 9 l-8 -40 -1 36 c0 20 2 39 6 42
11 11 11 4 3 -38z m114 23 c21 -30 20 -44 -4 -68 -24 -24 -43 -25 -64 -4 -32
32 -10 94 34 94 10 0 26 -10 34 -22z m86 14 c30 19 50 -6 48 -61 l-1 -46 -4
40 c-5 48 -14 59 -41 50 -16 -4 -22 -16 -25 -48 -3 -32 -4 -28 -4 18 -1 33 1
55 4 48 3 -9 9 -10 23 -1z m130 0 c30 19 50 -6 48 -61 l-1 -46 -6 45 c-5 40
-9 45 -31 45 -22 0 -26 -5 -31 -45 -6 -43 -6 -43 -7 15 0 33 2 55 5 48 3 -9 9
-10 23 -1z m164 -8 c29 -28 20 -44 -25 -44 -49 0 -50 -23 -1 -28 35 -4 44 -22
11 -22 -39 0 -59 19 -59 55 0 49 42 71 74 39z m132 -44 c1 -51 1 -52 -3 -7 -3
37 -8 47 -22 47 -25 0 -39 -19 -44 -60 -3 -26 -4 -20 -5 20 l-2 55 38 0 37 0
1 -55z m-674 8 c-7 -7 -12 -8 -12 -2 0 6 3 14 7 17 3 4 9 5 12 2 2 -3 -1 -11
-7 -17z m768 -44 c0 -8 -5 -12 -10 -9 -6 4 -8 11 -5 16 9 14 15 11 15 -7z
m-730 -4 c0 -5 -4 -10 -10 -10 -5 0 -10 5 -10 10 0 6 5 10 10 10 6 0 10 -4 10
-10z m246 -164 c18 -19 18 -26 -1 -26 -23 0 -18 -43 6 -58 25 -16 22 -51 -6
-66 -11 -6 -25 -18 -32 -26 -11 -13 -12 -13 -13 1 0 9 -7 19 -15 23 -8 3 -15
10 -15 15 0 6 6 8 14 5 23 -9 28 38 5 54 -26 18 -21 54 9 67 12 5 22 13 22 17
0 12 10 9 26 -6z m-1166 -11 c0 -8 -7 -15 -15 -15 -8 0 -15 7 -15 15 0 8 7 15
15 15 8 0 15 -7 15 -15z m250 -55 c0 -63 2 -70 20 -70 11 0 20 -4 20 -10 0 -5
-22 -10 -50 -10 -27 0 -50 5 -50 10 0 6 9 10 20 10 18 0 20 7 20 60 0 47 -3
60 -15 60 -8 0 -15 5 -15 10 0 6 11 10 25 10 24 0 25 -2 25 -70z m680 -8 l0
-78 -37 -1 c-47 -1 -63 11 -63 48 0 34 23 59 56 59 19 0 24 5 24 25 0 14 5 25
10 25 6 0 10 -33 10 -78z m480 63 c0 -8 -7 -15 -15 -15 -8 0 -15 7 -15 15 0 8
7 15 15 15 8 0 15 -7 15 -15z m478 -15 c-4 -27 -2 -29 19 -24 31 8 53 -12 53
-47 0 -38 -25 -61 -64 -57 l-31 3 -3 78 c-2 66 -1 77 14 77 12 0 15 -7 12 -30z
m-1398 0 c0 -15 7 -20 25 -20 14 0 25 -4 25 -10 0 -5 -12 -10 -26 -10 -23 0
-25 -3 -22 -32 2 -25 8 -34 26 -36 29 -4 29 -22 -1 -22 -32 0 -47 18 -47 57 0
23 -5 33 -15 33 -8 0 -15 5 -15 10 0 6 7 10 15 10 8 0 15 9 15 20 0 11 5 20
10 20 6 0 10 -9 10 -20z m-728 -35 c-2 -5 -14 -9 -27 -7 -35 5 -31 -14 5 -27
38 -13 41 -48 6 -57 -31 -8 -58 -2 -63 13 -3 8 6 10 31 6 41 -6 51 13 11 23
-36 9 -51 30 -35 50 14 16 77 16 72 -1z m138 -4 c22 -43 -2 -91 -47 -91 -18 0
-23 -5 -23 -25 0 -14 -4 -25 -10 -25 -6 0 -10 33 -10 78 l0 79 40 1 c30 1 42
-3 50 -17z m100 -26 c0 -33 4 -45 15 -45 8 0 15 -4 15 -10 0 -5 -20 -10 -45
-10 -25 0 -45 5 -45 10 0 6 9 10 20 10 16 0 20 7 20 35 0 28 -4 35 -20 35 -11
0 -20 5 -20 10 0 6 14 10 30 10 29 0 30 -2 30 -45z m148 33 c7 -7 12 -20 12
-30 0 -14 -8 -18 -41 -18 -36 0 -40 -2 -29 -15 7 -8 25 -15 41 -15 16 0 29 -4
29 -10 0 -16 -67 -12 -84 6 -9 8 -16 25 -16 36 0 45 58 76 88 46z m260 -5 c2
-9 -5 -11 -27 -7 -41 8 -41 -11 0 -25 24 -8 30 -15 27 -33 -3 -19 -9 -23 -42
-23 -22 0 -41 5 -43 12 -3 8 6 10 31 6 44 -7 48 11 6 26 -29 10 -40 37 -23 55
11 11 66 2 71 -11z m250 5 c7 -7 12 -31 12 -53 0 -41 0 -42 -39 -43 -47 -2
-68 17 -51 47 7 14 21 21 41 21 19 0 28 4 23 11 -3 6 -19 9 -35 5 -27 -5 -37
2 -22 17 11 11 58 8 71 -5z m140 -45 c2 -32 -1 -53 -7 -53 -6 0 -11 18 -11 39
0 22 -5 43 -10 46 -19 12 -40 -16 -40 -51 0 -19 -4 -34 -10 -34 -5 0 -10 24
-10 54 l0 54 43 -2 42 -1 3 -52z m506 41 c29 -28 20 -44 -25 -44 -49 0 -50
-23 -1 -28 42 -4 41 -22 -1 -22 -41 0 -57 15 -57 55 0 17 5 36 12 43 17 17 54
15 72 -4z m106 -29 c0 -33 4 -45 15 -45 8 0 15 -4 15 -10 0 -5 -20 -10 -45
-10 -25 0 -45 5 -45 10 0 6 9 10 20 10 16 0 20 7 20 35 0 28 -4 35 -20 35 -11
0 -20 5 -20 10 0 6 14 10 30 10 29 0 30 -2 30 -45z m158 -12 c2 -32 -1 -53 -7
-53 -6 0 -11 18 -11 39 0 22 -5 43 -10 46 -19 12 -40 -16 -40 -51 0 -19 -4
-34 -10 -34 -5 0 -10 24 -10 54 l0 54 43 -2 42 -1 3 -52z m142 47 c0 -5 -5
-10 -12 -10 -6 0 -8 -3 -5 -6 15 -15 -15 -44 -44 -44 -18 0 -28 -4 -24 -10 3
-5 19 -10 34 -10 33 0 54 -20 45 -44 -8 -20 -45 -30 -79 -22 -25 6 -25 8 -19
73 3 37 8 71 10 75 7 12 94 10 94 -2z m110 -16 c6 -14 10 -38 10 -54 0 -28 -1
-29 -47 -27 -37 2 -49 6 -51 20 -5 25 16 47 44 47 13 0 24 5 24 11 0 7 -11 9
-30 6 -16 -4 -30 -3 -30 2 0 14 13 21 42 21 21 0 31 -6 38 -26z m254 10 c29
-28 20 -44 -25 -44 -49 0 -50 -23 -1 -28 42 -4 41 -22 -1 -22 -41 0 -57 15
-57 55 0 17 5 36 12 43 17 17 54 15 72 -4z m-1014 -14 c0 -5 -22 -10 -50 -10
-27 0 -50 5 -50 10 0 6 23 10 50 10 28 0 50 -4 50 -10z m0 -40 c0 -5 -22 -10
-50 -10 -27 0 -50 5 -50 10 0 6 23 10 50 10 28 0 50 -4 50 -10z m-730 -290 l0
-160 -75 0 -75 0 0 160 0 160 75 0 75 0 0 -160z m2670 0 l0 -160 -65 0 -65 0
0 160 0 160 65 0 65 0 0 -160z m-2474 86 c18 -19 18 -26 -1 -26 -22 0 -19 -43
5 -58 29 -18 25 -49 -10 -67 -16 -9 -30 -20 -30 -25 0 -6 -5 -10 -11 -10 -6 0
-9 6 -6 14 3 8 -2 16 -14 19 -10 3 -19 10 -19 17 0 7 8 9 19 5 27 -8 35 38 9
54 -25 16 -20 53 10 66 12 5 22 13 22 17 0 12 10 9 26 -6z m-786 -11 c0 -8 -4
-15 -9 -15 -13 0 -22 16 -14 24 11 11 23 6 23 -9z m170 5 c0 -5 -11 -10 -25
-10 -18 0 -25 -5 -25 -20 0 -13 7 -20 20 -20 11 0 20 -4 20 -10 0 -5 -9 -10
-20 -10 -17 0 -20 -7 -20 -40 0 -22 -4 -40 -10 -40 -5 0 -10 18 -10 40 0 29
-4 40 -15 40 -8 0 -15 5 -15 10 0 6 7 10 15 10 8 0 15 8 15 18 0 10 5 23 12
30 15 15 58 16 58 2z m240 0 c0 -5 -9 -10 -20 -10 -18 0 -20 -7 -20 -85 0 -78
2 -85 20 -85 11 0 20 -4 20 -10 0 -5 -13 -10 -30 -10 l-30 0 0 105 0 105 30 0
c17 0 30 -4 30 -10z m750 -5 c0 -8 -7 -15 -15 -15 -8 0 -15 7 -15 15 0 8 7 15
15 15 8 0 15 -7 15 -15z m250 -55 c0 -63 2 -70 20 -70 11 0 20 -4 20 -10 0 -5
-22 -10 -50 -10 -27 0 -50 5 -50 10 0 6 9 10 20 10 18 0 20 7 20 60 0 47 -3
60 -15 60 -8 0 -15 5 -15 10 0 6 11 10 25 10 24 0 25 -2 25 -70z m680 -9 l0
-79 -37 0 c-48 0 -63 12 -63 52 0 38 15 56 47 56 18 0 23 6 23 25 0 16 6 25
15 25 12 0 15 -15 15 -79z m1260 -26 l0 -105 -30 0 c-16 0 -30 5 -30 10 0 6 9
10 20 10 18 0 20 7 20 85 0 78 -2 85 -20 85 -11 0 -20 5 -20 10 0 6 14 10 30
10 l30 0 0 -105z m460 70 c0 -32 2 -34 19 -23 31 19 51 -5 50 -61 l-2 -46 -6
42 c-9 51 -13 57 -40 48 -17 -5 -21 -15 -21 -46 0 -21 -4 -39 -10 -39 -6 0
-10 33 -10 80 0 47 4 80 10 80 6 0 10 -16 10 -35z m-4992 13 c20 -20 13 -51
-20 -85 l-32 -33 37 0 c20 0 37 -4 37 -10 0 -5 -22 -10 -50 -10 -27 0 -50 3
-50 6 0 4 16 24 35 45 19 22 35 46 35 54 0 20 -27 30 -44 16 -17 -14 -29 -2
-15 16 14 16 51 17 67 1z m142 2 c0 -5 -13 -10 -30 -10 -23 0 -30 -4 -30 -20
0 -13 7 -20 19 -20 20 0 51 -25 51 -41 0 -20 -41 -49 -70 -49 -40 0 -38 18 3
22 24 2 32 8 32 23 0 15 -8 21 -32 23 -31 3 -33 6 -33 43 l0 39 45 0 c25 0 45
-4 45 -10z m2690 -10 c0 -15 7 -20 25 -20 14 0 25 -4 25 -10 0 -5 -12 -10 -26
-10 -23 0 -25 -3 -22 -32 2 -25 8 -34 26 -36 35 -5 26 -24 -10 -20 -31 3 -33
6 -36 46 -2 28 -8 42 -18 42 -8 0 -14 5 -14 10 0 6 7 10 15 10 8 0 15 9 15 20
0 11 5 20 10 20 6 0 10 -9 10 -20z m1188 8 c19 -19 14 -48 -14 -85 l-25 -33
30 0 c17 0 31 -4 31 -10 0 -5 -22 -10 -50 -10 -27 0 -50 3 -50 6 0 4 16 24 35
45 19 22 35 46 35 54 0 20 -27 30 -44 16 -17 -14 -29 -2 -15 16 14 16 51 17
67 1z m134 -5 c25 -23 25 -94 -1 -117 -43 -39 -97 6 -87 72 9 60 49 81 88 45z
m754 -23 c13 0 24 -4 24 -10 0 -5 -12 -10 -26 -10 -23 0 -25 -3 -22 -32 2 -25
8 -34 26 -36 30 -5 28 -22 -3 -22 -27 0 -45 25 -45 64 0 16 -6 26 -15 26 -8 0
-15 5 -15 10 0 6 6 10 14 10 7 0 17 10 21 23 l8 22 4 -22 c3 -16 11 -23 29
-23z m-3726 -45 c0 -33 4 -45 15 -45 8 0 15 -4 15 -10 0 -5 -18 -10 -40 -10
-22 0 -40 5 -40 10 0 6 7 10 15 10 10 0 15 11 15 35 0 24 -5 35 -15 35 -8 0
-15 5 -15 10 0 6 11 10 25 10 23 0 25 -4 25 -45z m917 29 c2 -7 -6 -10 -22 -7
-35 7 -32 -12 5 -27 33 -14 38 -31 16 -49 -18 -15 -68 -11 -74 6 -2 9 5 11 27
7 34 -7 44 11 12 21 -32 10 -46 32 -31 51 15 17 61 15 67 -2z m143 -10 c14
-37 -7 -78 -43 -82 -21 -3 -27 -9 -27 -28 0 -13 -4 -24 -10 -24 -6 0 -10 33
-10 78 l0 79 40 1 c35 2 42 -2 50 -24z m100 -19 c0 -33 4 -45 15 -45 8 0 15
-4 15 -10 0 -5 -20 -10 -45 -10 -25 0 -45 5 -45 10 0 6 7 10 15 10 10 0 15 11
15 35 0 24 -5 35 -15 35 -8 0 -15 5 -15 10 0 6 14 10 30 10 29 0 30 -2 30 -45z
m150 26 c17 -33 11 -41 -30 -41 -40 0 -53 -13 -24 -24 9 -3 24 -6 35 -6 10 0
19 -4 19 -10 0 -14 -64 -12 -78 2 -7 7 -12 26 -12 43 0 17 5 36 12 43 19 19
66 15 78 -7z m252 4 c-2 -5 -14 -9 -27 -7 -35 5 -31 -14 5 -27 38 -13 41 -48
6 -57 -31 -8 -58 -2 -63 13 -3 8 6 10 31 6 41 -6 51 13 11 23 -36 9 -51 30
-35 50 14 16 77 16 72 -1z m256 3 c7 -7 12 -31 12 -53 0 -41 0 -42 -39 -43
-47 -2 -68 17 -51 47 7 14 21 21 41 21 19 0 28 4 23 11 -3 6 -19 9 -35 5 -27
-5 -37 2 -22 17 11 11 58 8 71 -5z m129 0 c15 -12 18 -98 3 -98 -5 0 -10 18
-10 39 0 43 -9 55 -34 45 -11 -4 -16 -19 -16 -45 0 -21 -4 -39 -10 -39 -5 0
-10 24 -10 53 0 54 0 54 32 55 18 0 38 -4 45 -10z m511 0 c7 -7 12 -20 12 -30
0 -14 -8 -18 -36 -18 -45 0 -42 -24 4 -28 43 -4 41 -22 -2 -22 -59 0 -83 42
-50 88 17 24 53 29 72 10z m142 -68 c0 -47 -4 -80 -10 -80 -5 0 -10 14 -10 30
0 27 -2 30 -25 24 -33 -8 -55 11 -55 47 0 37 24 59 66 59 l34 0 0 -80z m865
71 c7 -12 -12 -24 -25 -16 -11 7 -4 25 10 25 5 0 11 -4 15 -9z m526 -1 c10 -6
19 -20 19 -30 0 -17 -7 -20 -41 -20 -49 0 -50 -23 -1 -28 39 -4 43 -22 4 -22
-37 0 -52 17 -52 57 0 44 32 64 71 43z m135 -50 c1 -43 0 -46 -3 -12 -7 72
-58 67 -66 -6 -3 -28 -4 -23 -5 18 l-2 56 38 -1 37 0 1 -55z m-1796 10 c0 -5
-16 -10 -35 -10 -19 0 -35 5 -35 10 0 6 16 10 35 10 19 0 35 -4 35 -10z m1143
-44 c7 -18 -20 -56 -39 -56 -18 0 -18 16 0 23 9 4 12 14 9 26 -6 24 21 30 30
7z m-2743 -204 c0 -24 4 -27 33 -27 32 0 32 -1 35 -52 2 -32 -1 -53 -7 -53 -6
0 -11 18 -11 39 0 22 -5 43 -10 46 -19 12 -40 -16 -40 -51 0 -19 -4 -34 -10
-34 -6 0 -10 33 -10 80 0 47 4 80 10 80 6 0 10 -12 10 -28z m400 3 c0 -14 -4
-25 -10 -25 -5 0 -10 11 -10 25 0 14 5 25 10 25 6 0 10 -11 10 -25z m50 13 c0
-17 -20 -47 -20 -31 0 6 -3 18 -6 27 -4 11 -1 16 10 16 9 0 16 -6 16 -12z
m450 -19 c0 -26 3 -29 20 -24 32 10 50 -12 50 -61 0 -24 -4 -44 -10 -44 -5 0
-10 21 -10 46 0 41 -2 45 -22 42 -19 -2 -24 -10 -26 -45 -5 -75 -22 -46 -22
37 0 47 4 80 10 80 6 0 10 -14 10 -31z m1700 -25 c0 -34 -4 -53 -10 -49 -5 3
-10 28 -10 56 0 27 5 49 10 49 6 0 10 -25 10 -56z m1059 -26 c0 -46 -3 -78 -5
-71 -4 9 -11 9 -29 1 -18 -8 -28 -8 -40 2 -35 29 -6 100 42 100 18 0 23 5 23
25 0 14 2 25 5 25 3 0 5 -37 4 -82z m1741 57 c0 -14 -4 -25 -10 -25 -5 0 -10
11 -10 25 0 14 5 25 10 25 6 0 10 -11 10 -25z m50 0 c0 -14 -4 -25 -10 -25 -5
0 -10 11 -10 25 0 14 5 25 10 25 6 0 10 -11 10 -25z m-4882 -1 c16 -11 22 -25
22 -55 0 -48 -27 -79 -70 -79 l-30 0 0 75 0 75 28 0 c15 0 38 -7 50 -16z m758
-24 c13 0 24 -4 24 -10 0 -5 -12 -10 -26 -10 -23 0 -25 -3 -22 -32 2 -25 8
-34 26 -36 32 -5 27 -24 -5 -20 -25 3 -28 7 -31 46 -3 34 -7 42 -23 42 -10 0
-19 5 -19 10 0 6 9 10 20 10 14 0 20 7 21 23 l2 22 4 -22 c3 -16 11 -23 29
-23z m1564 30 c0 -5 -13 -10 -30 -10 -23 0 -30 -4 -30 -20 0 -16 7 -20 30 -20
17 0 30 -4 30 -10 0 -5 -13 -10 -30 -10 -25 0 -30 -4 -30 -25 0 -21 5 -25 30
-25 17 0 30 -4 30 -10 0 -5 -18 -10 -40 -10 l-40 0 0 75 0 75 40 0 c22 0 40
-4 40 -10z m1137 2 c11 -7 16 -26 14 -49 0 -6 -13 -25 -27 -42 l-26 -31 31 0
c17 0 31 -4 31 -10 0 -5 -20 -10 -45 -10 -25 0 -45 3 -45 6 0 4 16 24 36 46
43 48 42 74 -4 71 -27 -1 -31 1 -21 13 12 15 37 18 56 6z m137 -8 c10 -9 16
-33 16 -59 0 -69 -51 -101 -84 -53 -46 65 15 165 68 112z m1012 -24 c13 0 24
-4 24 -10 0 -5 -12 -10 -26 -10 -23 0 -25 -3 -22 -32 2 -25 8 -34 26 -36 30
-5 28 -22 -3 -22 -27 0 -45 25 -45 64 0 16 -6 26 -15 26 -8 0 -15 5 -15 10 0
6 6 10 14 10 7 0 17 10 21 23 l8 22 4 -22 c3 -16 11 -23 29 -23z m-5368 -12
c7 -7 12 -20 12 -30 0 -14 -8 -18 -41 -18 -36 0 -40 -2 -29 -15 7 -8 25 -15
41 -15 16 0 29 -4 29 -10 0 -16 -67 -12 -84 6 -9 8 -16 25 -16 36 0 45 58 76
88 46z m132 -1 c0 -7 -12 -13 -27 -12 -24 0 -28 -4 -28 -30 0 -26 4 -30 28
-30 15 1 27 -5 27 -12 0 -19 -50 -16 -72 4 -22 20 -23 42 -2 71 17 24 74 32
74 9z m254 -3 c35 -34 6 -94 -45 -94 -30 0 -49 23 -49 59 0 27 26 51 55 51 13
0 31 -7 39 -16z m462 -71 c22 -8 43 15 47 55 2 23 4 15 5 -23 0 -33 -2 -55 -5
-48 -3 9 -9 10 -22 1 -35 -21 -51 -3 -49 54 1 51 2 52 5 10 3 -26 10 -45 19
-49z m434 68 c5 -11 10 -35 10 -54 0 -33 -1 -34 -42 -33 -37 1 -43 4 -46 25
-4 26 12 41 46 41 12 0 22 5 22 10 0 6 -14 10 -31 10 -17 0 -28 4 -24 10 11
17 54 11 65 -9z m127 3 c2 -7 -8 -9 -27 -6 -39 6 -39 -13 0 -27 38 -13 41 -48
5 -57 -27 -7 -55 0 -55 14 0 4 16 6 35 4 40 -5 49 14 10 24 -36 9 -51 30 -35
50 14 16 61 16 67 -2z m403 6 c0 -5 -5 -10 -11 -10 -5 0 -7 -5 -4 -10 10 -16
-15 -40 -41 -40 -13 0 -24 -4 -24 -10 0 -5 11 -10 24 -10 38 0 56 -10 56 -31
0 -24 -40 -44 -74 -35 -23 6 -25 9 -23 69 1 34 6 68 10 75 10 14 87 17 87 2z
m108 -2 c7 -7 12 -20 12 -30 0 -14 -8 -18 -41 -18 -52 0 -48 -24 4 -28 46 -4
49 -22 4 -22 -42 0 -57 15 -57 57 0 45 48 71 78 41z m74 -68 c5 12 7 12 7 -2
1 -17 -16 -34 -25 -25 -3 2 -7 29 -9 58 l-4 54 13 -50 c7 -30 15 -44 18 -35z
m72 38 c-3 -24 -7 -49 -10 -55 -6 -20 -22 -15 -30 10 -4 12 -12 25 -18 29 -8
5 -8 10 1 19 9 9 13 6 19 -15 10 -39 24 -31 24 14 0 22 5 40 10 40 6 0 8 -17
4 -42z m114 30 c7 -7 12 -27 12 -45 0 -32 -21 -53 -54 -53 -21 0 -46 28 -46
52 0 45 58 76 88 46z m128 -48 c1 -43 0 -46 -3 -12 -7 72 -58 67 -66 -6 -3
-28 -4 -23 -5 18 l-2 56 38 -1 37 0 1 -55z m127 51 c4 0 6 -25 6 -53 l-2 -53
-6 42 c-4 24 -11 46 -15 50 -15 15 -41 -15 -44 -51 -5 -56 -22 -43 -22 18 l0
53 38 -2 c20 -1 40 -3 45 -4z m125 -3 c7 -7 12 -20 12 -30 0 -14 -8 -18 -36
-18 -45 0 -42 -24 4 -28 38 -4 43 -22 6 -22 -41 0 -64 18 -64 50 0 48 48 78
78 48z m130 -1 c14 -10 17 -97 2 -97 -5 0 -10 21 -10 46 0 41 -2 45 -22 42
-19 -2 -24 -10 -26 -45 -4 -61 -22 -53 -22 10 l0 52 33 0 c17 0 38 -4 45 -8z
m507 3 c4 -6 -5 -10 -19 -10 -33 0 -34 -18 -2 -30 32 -12 41 -28 26 -45 -14
-17 -56 -20 -65 -5 -4 6 7 10 24 10 40 0 40 18 1 31 -31 11 -41 43 -17 52 21
9 46 7 52 -3z m195 -55 l2 -30 15 35 16 35 16 -35 16 -35 3 40 c2 22 8 45 14
50 7 7 9 0 4 -24 -3 -18 -6 -44 -6 -57 0 -36 -27 -29 -36 9 l-7 32 -14 -32
c-7 -18 -17 -33 -22 -33 -9 0 -21 59 -20 95 l0 20 9 -20 c5 -11 9 -33 10 -50z
m140 20 c0 -30 4 -45 13 -45 22 0 37 23 37 57 0 18 5 33 10 33 6 0 10 -25 10
-55 0 -30 -4 -55 -10 -55 -5 0 -10 5 -10 11 0 8 -4 8 -15 -1 -8 -6 -23 -9 -35
-5 -17 5 -20 15 -20 56 0 27 5 49 10 49 6 0 10 -20 10 -45z m146 37 c20 9 28
8 41 -5 9 -9 13 -20 9 -24 -4 -4 -11 -1 -15 6 -5 7 -17 11 -27 9 -14 -2 -20
-13 -22 -46 -5 -63 -22 -51 -21 16 0 31 3 52 5 45 4 -9 11 -9 30 -1z m292 -4
c7 -7 12 -20 12 -30 0 -14 -8 -18 -36 -18 -45 0 -42 -24 4 -28 38 -4 43 -22 6
-22 -41 0 -64 18 -64 50 0 48 48 78 78 48z m656 -10 c-10 -35 -24 -48 -50 -48
-13 0 -24 -4 -24 -10 0 -5 11 -10 24 -10 38 0 56 -10 56 -31 0 -25 -41 -44
-74 -35 -26 6 -26 8 -20 74 3 36 11 70 17 74 7 4 27 8 45 8 30 0 33 -2 26 -22z
m114 10 c7 -7 12 -20 12 -30 0 -14 -8 -18 -36 -18 -45 0 -42 -24 4 -28 38 -4
43 -22 6 -22 -41 0 -64 18 -64 50 0 48 48 78 78 48z m130 -1 c14 -10 17 -97 2
-97 -5 0 -10 21 -10 46 0 41 -2 45 -22 42 -19 -2 -24 -10 -26 -45 -4 -61 -22
-53 -22 10 l0 52 33 0 c17 0 38 -4 45 -8z m132 -6 c5 -11 10 -35 10 -54 0 -33
-1 -34 -42 -33 -37 1 -43 4 -46 25 -4 26 12 41 46 41 12 0 22 5 22 10 0 6 -14
10 -31 10 -17 0 -28 4 -24 10 11 17 54 11 65 -9z m130 0 c13 -25 13 -91 1 -91
-6 0 -11 19 -13 43 -2 34 -7 42 -23 42 -16 0 -21 -8 -23 -42 -4 -61 -22 -53
-22 10 l0 52 35 2 c25 2 37 -2 45 -16z m126 -41 c1 -43 0 -46 -3 -12 -7 72
-58 67 -66 -6 -3 -28 -4 -23 -5 18 l-2 56 38 -1 37 0 1 -55z m-2466 -35 c0 -8
-4 -15 -10 -15 -5 0 -10 7 -10 15 0 8 5 15 10 15 6 0 10 -7 10 -15z m2700 0
c0 -8 -4 -15 -9 -15 -13 0 -22 16 -14 24 11 11 23 6 23 -9z m-5257 -180 c1 -5
-6 -11 -15 -13 -11 -2 -18 3 -18 13 0 17 30 18 33 0z m107 -15 c0 -15 7 -20
25 -20 14 0 25 -4 25 -10 0 -5 -12 -10 -26 -10 -23 0 -25 -3 -22 -32 2 -25 8
-34 26 -36 35 -5 26 -24 -10 -20 -31 3 -33 6 -36 46 -2 28 -8 42 -18 42 -8 0
-14 5 -14 10 0 6 7 10 15 10 8 0 15 9 15 20 0 11 5 20 10 20 6 0 10 -9 10 -20z
m300 4 c8 -8 13 -35 13 -59 0 -24 -5 -51 -13 -59 -16 -20 -54 -20 -74 0 -21
21 -21 92 1 116 20 22 56 23 73 2z m-642 -36 c7 -7 12 -20 12 -30 0 -14 -8
-18 -41 -18 -36 0 -40 -2 -29 -15 7 -8 25 -15 41 -15 16 0 29 -4 29 -10 0 -16
-67 -12 -84 6 -9 8 -16 25 -16 36 0 45 58 76 88 46z m78 -5 c13 -17 15 -17 28
1 8 10 20 16 26 14 7 -2 4 -13 -9 -29 -20 -26 -20 -27 -1 -44 11 -10 20 -22
20 -27 0 -16 -25 -8 -38 13 -13 20 -13 20 -32 -3 -10 -13 -22 -20 -26 -16 -4
5 1 17 11 28 18 20 18 22 1 50 -19 33 -3 43 20 13z m154 -28 c0 -38 3 -45 20
-45 11 0 20 -4 20 -10 0 -5 -22 -10 -50 -10 -27 0 -50 5 -50 10 0 6 9 10 20
10 16 0 20 7 20 35 0 24 -5 35 -15 35 -8 0 -15 5 -15 10 0 6 11 10 25 10 23 0
25 -4 25 -45z"/>
<path d="M1440 6165 c-16 -19 -9 -49 13 -53 25 -5 47 16 47 44 0 19 -5 24 -24
24 -13 0 -29 -7 -36 -15z"/>
<path d="M1305 6170 c-4 -6 8 -10 30 -10 22 0 34 4 30 10 -3 6 -17 10 -30 10
-13 0 -27 -4 -30 -10z"/>
<path d="M1565 6170 c-4 -6 8 -10 30 -10 22 0 34 4 30 10 -3 6 -17 10 -30 10
-13 0 -27 -4 -30 -10z"/>
<path d="M1950 6165 c-6 -8 -9 -23 -5 -35 8 -25 51 -27 64 -2 20 38 -31 71
-59 37z"/>
<path d="M2205 6170 c-4 -6 8 -10 30 -10 22 0 34 4 30 10 -3 6 -17 10 -30 10
-13 0 -27 -4 -30 -10z"/>
<path d="M2337 5863 c-11 -10 -8 -51 3 -58 22 -14 50 6 50 36 0 24 -4 29 -23
29 -13 0 -27 -3 -30 -7z"/>
<path d="M1310 5860 c0 -5 14 -10 31 -10 17 0 28 4 24 10 -3 6 -17 10 -31 10
-13 0 -24 -4 -24 -10z"/>
<path d="M1955 5860 c-4 -6 7 -10 25 -10 18 0 29 4 25 10 -3 6 -15 10 -25 10
-10 0 -22 -4 -25 -10z"/>
<path d="M2464 5856 c-11 -28 1 -51 25 -51 32 0 49 28 32 49 -17 20 -50 21
-57 2z"/>
<path d="M2850 5535 c-18 -22 -3 -57 23 -53 31 4 39 68 9 68 -11 0 -25 -7 -32
-15z"/>
<path d="M1825 5540 c-4 -6 7 -10 25 -10 18 0 29 4 25 10 -3 6 -15 10 -25 10
-10 0 -22 -4 -25 -10z"/>
<path d="M2470 5540 c-11 -7 -7 -10 18 -10 20 0 31 4 27 10 -8 13 -26 13 -45
0z"/>
<path d="M2974 5536 c-11 -28 1 -51 27 -54 29 -3 44 18 34 49 -8 23 -53 26
-61 5z"/>
<path d="M3242 5218 c-7 -7 -12 -22 -12 -35 0 -18 6 -23 24 -23 30 0 50 23 41
50 -7 22 -34 27 -53 8z"/>
<path d="M2335 5220 c-4 -6 8 -10 30 -10 22 0 34 4 30 10 -3 6 -17 10 -30 10
-13 0 -27 -4 -30 -10z"/>
<path d="M2590 5220 c0 -5 14 -10 30 -10 17 0 30 5 30 10 0 6 -13 10 -30 10
-16 0 -30 -4 -30 -10z"/>
<path d="M2977 5224 c-11 -12 3 -24 29 -24 15 0 24 6 24 15 0 15 -40 21 -53 9z"/>
<path d="M2970 5124 c0 -11 8 -14 32 -12 46 4 49 28 4 28 -26 0 -36 -4 -36
-16z"/>
<path d="M3105 5180 c-8 -13 20 -24 40 -16 8 3 15 10 15 16 0 13 -47 13 -55 0z"/>
<path d="M3360 5220 c0 -5 14 -10 30 -10 17 0 30 5 30 10 0 6 -13 10 -30 10
-16 0 -30 -4 -30 -10z"/>
<path d="M5415 4950 c-7 -12 2 -30 16 -30 5 0 9 9 9 20 0 21 -15 27 -25 10z"/>
<path d="M5440 4869 c0 -24 23 -21 28 4 2 10 -3 17 -12 17 -10 0 -16 -9 -16
-21z"/>
<path d="M5030 4905 c-18 -22 -3 -57 23 -53 31 4 39 68 9 68 -11 0 -25 -7 -32
-15z"/>
<path d="M6830 4905 c-14 -16 -4 -55 14 -55 19 0 36 22 36 47 0 27 -30 32 -50
8z"/>
<path d="M2606 4937 c-3 -14 -9 -32 -12 -41 -5 -12 0 -16 21 -16 26 0 27 2 21
32 -9 44 -22 55 -30 25z"/>
<path d="M1830 4910 c-11 -7 -7 -10 18 -10 20 0 31 4 27 10 -8 13 -26 13 -45
0z"/>
<path d="M2210 4905 c-15 -18 -7 -43 16 -52 24 -9 46 24 33 48 -12 23 -32 24
-49 4z"/>
<path d="M3105 4910 c-4 -6 8 -10 30 -10 22 0 34 4 30 10 -3 6 -17 10 -30 10
-13 0 -27 -4 -30 -10z"/>
<path d="M3495 4910 c-4 -6 7 -10 25 -10 18 0 29 4 25 10 -3 6 -15 10 -25 10
-10 0 -22 -4 -25 -10z"/>
<path d="M4017 4913 c-4 -3 -7 -19 -7 -35 0 -21 5 -28 20 -28 23 0 39 26 33
51 -5 19 -33 26 -46 12z"/>
<path d="M4260 4910 c0 -5 14 -10 31 -10 17 0 28 4 24 10 -3 6 -17 10 -31 10
-13 0 -24 -4 -24 -10z"/>
<path d="M4775 4870 c-8 -13 20 -24 40 -16 8 3 15 10 15 16 0 13 -47 13 -55 0z"/>
<path d="M5812 4908 c-17 -17 -15 -48 4 -55 23 -8 47 20 39 46 -7 23 -25 27
-43 9z"/>
<path d="M6065 4910 c-4 -6 5 -10 20 -10 15 0 24 4 20 10 -3 6 -12 10 -20 10
-8 0 -17 -4 -20 -10z"/>
<path d="M6575 4870 c-8 -12 20 -24 35 -15 5 3 10 10 10 16 0 12 -37 12 -45
-1z"/>
<path d="M2212 4584 c-12 -21 -4 -54 12 -54 19 0 36 22 36 47 0 28 -34 32 -48
7z"/>
<path d="M6067 4593 c-4 -3 -7 -19 -7 -35 0 -21 5 -28 19 -28 26 0 44 25 36
50 -6 19 -34 27 -48 13z"/>
<path d="M2970 4585 c0 -52 1 -55 25 -55 27 0 45 25 45 62 0 30 -17 48 -47 48
-21 0 -23 -4 -23 -55z"/>
<path d="M1955 4590 c-4 -6 7 -10 25 -10 18 0 29 4 25 10 -3 6 -15 10 -25 10
-10 0 -22 -4 -25 -10z"/>
<path d="M2085 4550 c-8 -12 20 -24 35 -15 5 3 10 10 10 16 0 12 -37 12 -45
-1z"/>
<path d="M2603 4593 c-7 -2 -13 -18 -13 -34 0 -27 3 -30 28 -27 23 2 27 8 27
33 0 29 -15 40 -42 28z"/>
<path d="M3105 4590 c-4 -6 8 -10 30 -10 22 0 34 4 30 10 -3 6 -17 10 -30 10
-13 0 -27 -4 -30 -10z"/>
<path d="M3495 4590 c-4 -6 7 -10 25 -10 18 0 29 4 25 10 -3 6 -15 10 -25 10
-10 0 -22 -4 -25 -10z"/>
<path d="M3875 4590 c-4 -6 7 -10 24 -10 17 0 31 5 31 10 0 6 -11 10 -24 10
-14 0 -28 -4 -31 -10z"/>
<path d="M4135 4590 c-4 -6 7 -10 25 -10 18 0 29 4 25 10 -3 6 -15 10 -25 10
-10 0 -22 -4 -25 -10z"/>
<path d="M4520 4544 c0 -10 7 -14 22 -12 32 5 35 28 4 28 -17 0 -26 -5 -26
-16z"/>
<path d="M5415 4590 c-4 -6 7 -10 24 -10 17 0 31 5 31 10 0 6 -11 10 -24 10
-14 0 -28 -4 -31 -10z"/>
<path d="M5800 4585 c0 -9 9 -15 25 -15 16 0 25 6 25 15 0 9 -9 15 -25 15 -16
0 -25 -6 -25 -15z"/>
<path d="M5795 4500 c-8 -12 17 -23 41 -18 10 1 19 9 22 16 5 15 -54 17 -63 2z"/>
<path d="M5930 4544 c0 -10 7 -14 22 -12 32 5 35 28 4 28 -17 0 -26 -5 -26
-16z"/>
<path d="M6185 4590 c-4 -6 7 -10 24 -10 17 0 31 5 31 10 0 6 -11 10 -24 10
-14 0 -28 -4 -31 -10z"/>
<path d="M3242 4268 c-7 -7 -12 -22 -12 -35 0 -18 6 -23 24 -23 30 0 50 23 41
50 -7 22 -34 27 -53 8z"/>
<path d="M3750 4265 c-19 -23 -8 -50 22 -53 22 -3 29 2 34 22 3 14 3 30 -1 35
-9 16 -41 13 -55 -4z"/>
<path d="M2335 4270 c-4 -6 8 -10 30 -10 22 0 34 4 30 10 -3 6 -17 10 -30 10
-13 0 -27 -4 -30 -10z"/>
<path d="M2590 4270 c0 -5 14 -10 30 -10 17 0 30 5 30 10 0 6 -13 10 -30 10
-16 0 -30 -4 -30 -10z"/>
<path d="M2977 4274 c-11 -12 3 -24 29 -24 15 0 24 6 24 15 0 15 -40 21 -53 9z"/>
<path d="M2970 4174 c0 -11 8 -14 32 -12 46 4 49 28 4 28 -26 0 -36 -4 -36
-16z"/>
<path d="M3105 4230 c-8 -13 20 -24 40 -16 8 3 15 10 15 16 0 13 -47 13 -55 0z"/>
<path d="M3360 4270 c0 -5 14 -10 30 -10 17 0 30 5 30 10 0 6 -13 10 -30 10
-16 0 -30 -4 -30 -10z"/>
<path d="M3875 4270 c-4 -6 8 -10 30 -10 22 0 34 4 30 10 -3 6 -17 10 -30 10
-13 0 -27 -4 -30 -10z"/>
<path d="M4143 4273 c-7 -2 -13 -18 -13 -34 0 -27 3 -30 28 -27 23 2 27 8 27
33 0 29 -15 40 -42 28z"/>
<path d="M4645 4270 c-4 -6 8 -10 30 -10 22 0 34 4 30 10 -3 6 -17 10 -30 10
-13 0 -27 -4 -30 -10z"/>
<path d="M2594 3999 c-3 -6 -2 -15 4 -21 6 -6 11 -2 15 11 5 22 -7 29 -19 10z"/>
<path d="M2620 3920 c0 -11 5 -20 10 -20 6 0 10 9 10 20 0 11 -4 20 -10 20 -5
0 -10 -9 -10 -20z"/>
<path d="M3377 3964 c-13 -13 -8 -64 7 -64 19 0 38 26 34 47 -3 18 -29 29 -41
17z"/>
<path d="M4390 3984 c-14 -35 -8 -39 25 -18 28 18 29 37 2 42 -11 2 -21 -6
-27 -24z"/>
<path d="M4417 3944 c-28 -24 -29 -44 -3 -44 20 0 38 26 34 49 -3 19 -4 19
-31 -5z"/>
<path d="M2725 3960 c-4 -6 7 -10 25 -10 18 0 29 4 25 10 -3 6 -15 10 -25 10
-10 0 -22 -4 -25 -10z"/>
<path d="M3115 3960 c-8 -12 20 -24 35 -15 6 3 8 11 5 16 -8 12 -32 12 -40 -1z"/>
<path d="M3107 3874 c-11 -12 3 -24 29 -24 15 0 24 6 24 15 0 15 -40 21 -53 9z"/>
<path d="M3240 3915 c0 -8 6 -15 14 -15 7 0 19 7 26 15 11 13 8 15 -14 15 -16
0 -26 -5 -26 -15z"/>
<path d="M3495 3960 c-4 -6 7 -10 25 -10 18 0 29 4 25 10 -3 6 -15 10 -25 10
-10 0 -22 -4 -25 -10z"/>
<path d="M3887 3964 c-9 -10 2 -24 19 -24 8 0 14 7 14 15 0 15 -21 21 -33 9z"/>
<path d="M3875 3870 c-8 -13 20 -24 40 -16 8 3 15 10 15 16 0 13 -47 13 -55 0z"/>
<path d="M5415 3960 c-4 -6 7 -10 24 -10 17 0 31 5 31 10 0 6 -11 10 -24 10
-14 0 -28 -4 -31 -10z"/>
<path d="M5297 3643 c-4 -3 -7 -19 -7 -35 0 -21 5 -28 19 -28 26 0 44 25 36
50 -6 19 -34 27 -48 13z"/>
<path d="M5547 3643 c-13 -12 -7 -54 8 -59 21 -9 45 14 45 42 0 18 -5 24 -23
24 -13 0 -27 -3 -30 -7z"/>
<path d="M2345 3640 c-4 -6 5 -10 20 -10 15 0 24 4 20 10 -3 6 -12 10 -20 10
-8 0 -17 -4 -20 -10z"/>
<path d="M2727 3644 c-11 -11 -8 -52 3 -59 6 -3 19 -3 31 0 28 9 23 59 -6 63
-12 2 -24 0 -28 -4z"/>
<path d="M3235 3640 c-4 -6 7 -10 24 -10 17 0 31 5 31 10 0 6 -11 10 -24 10
-14 0 -28 -4 -31 -10z"/>
<path d="M4135 3599 c-4 -6 -5 -13 -1 -16 8 -8 56 6 56 17 0 13 -47 13 -55 -1z"/>
<path d="M4645 3640 c-4 -6 7 -10 24 -10 17 0 31 5 31 10 0 6 -11 10 -24 10
-14 0 -28 -4 -31 -10z"/>
<path d="M5030 3594 c0 -10 7 -14 22 -12 32 5 35 28 4 28 -17 0 -26 -5 -26
-16z"/>
<path d="M5675 3640 c-4 -6 7 -10 25 -10 18 0 29 4 25 10 -3 6 -15 10 -25 10
-10 0 -22 -4 -25 -10z"/>
<path d="M7595 3600 c-8 -13 20 -24 40 -16 8 3 15 10 15 16 0 13 -47 13 -55 0z"/>
<path d="M7725 3640 c-8 -13 20 -24 41 -16 20 8 9 26 -16 26 -10 0 -22 -5 -25
-10z"/>
<path d="M7720 3545 c0 -12 8 -16 33 -13 17 2 32 8 32 13 0 6 -15 11 -32 13
-25 3 -33 -1 -33 -13z"/>
<path d="M7855 3599 c-4 -6 -5 -13 -1 -16 8 -8 56 6 56 17 0 13 -47 13 -55 -1z"/>
<path d="M2854 3359 c-3 -6 -1 -16 5 -22 8 -8 11 -5 11 11 0 24 -5 28 -16 11z"/>
<path d="M2880 3279 c0 -11 5 -17 10 -14 6 3 10 13 10 21 0 8 -4 14 -10 14 -5
0 -10 -9 -10 -21z"/>
<path d="M4524 3359 c-3 -6 -1 -16 5 -22 8 -8 11 -5 11 11 0 24 -5 28 -16 11z"/>
<path d="M4550 3280 c0 -19 3 -21 12 -12 9 9 9 15 0 24 -9 9 -12 7 -12 -12z"/>
<path d="M7214 3359 c-3 -6 -2 -15 4 -21 6 -6 11 -2 15 11 5 22 -7 29 -19 10z"/>
<path d="M7240 3280 c0 -11 5 -20 10 -20 6 0 10 9 10 20 0 11 -4 20 -10 20 -5
0 -10 -9 -10 -20z"/>
<path d="M8884 3359 c-3 -6 -1 -16 5 -22 8 -8 11 -5 11 11 0 24 -5 28 -16 11z"/>
<path d="M8910 3279 c0 -11 5 -17 10 -14 6 3 10 13 10 21 0 8 -4 14 -10 14 -5
0 -10 -9 -10 -21z"/>
<path d="M9270 3355 c0 -8 5 -15 10 -15 6 0 10 7 10 15 0 8 -4 15 -10 15 -5 0
-10 -7 -10 -15z"/>
<path d="M9297 3281 c-3 -12 -1 -21 3 -21 15 0 23 21 12 32 -6 6 -11 2 -15
-11z"/>
<path d="M3632 3318 c-17 -17 -15 -48 4 -55 23 -8 47 20 39 46 -7 23 -25 27
-43 9z"/>
<path d="M5807 3323 c-11 -10 -8 -51 3 -58 16 -10 40 15 40 41 0 17 -6 24 -18
24 -10 0 -22 -3 -25 -7z"/>
<path d="M6450 3360 c0 -13 5 -20 13 -17 6 2 12 10 12 17 0 7 -6 15 -12 18 -8
2 -13 -5 -13 -18z"/>
<path d="M6434 3297 c-7 -20 3 -37 21 -37 23 0 26 16 5 35 -18 16 -20 16 -26
2z"/>
<path d="M6574 3369 c-10 -17 13 -36 27 -22 12 12 4 33 -11 33 -5 0 -12 -5
-16 -11z"/>
<path d="M6564 3297 c-7 -20 3 -37 21 -37 23 0 26 16 5 35 -18 16 -20 16 -26
2z"/>
<path d="M7992 3318 c-17 -17 -15 -48 4 -55 23 -8 47 20 39 46 -7 23 -25 27
-43 9z"/>
<path d="M10550 3315 c-14 -16 -4 -55 14 -55 19 0 36 22 36 47 0 27 -30 32
-50 8z"/>
<path d="M1825 3320 c-4 -6 7 -10 24 -10 17 0 31 5 31 10 0 6 -11 10 -24 10
-14 0 -28 -4 -31 -10z"/>
<path d="M2985 3320 c-4 -6 5 -10 20 -10 15 0 24 4 20 10 -3 6 -12 10 -20 10
-8 0 -17 -4 -20 -10z"/>
<path d="M3365 3320 c-8 -12 20 -24 35 -15 6 3 8 11 5 16 -8 12 -32 12 -40 -1z"/>
<path d="M3363 3228 c2 -7 14 -13 27 -13 13 0 25 6 28 13 2 8 -7 12 -28 12
-21 0 -30 -4 -27 -12z"/>
<path d="M3495 3280 c-8 -12 20 -24 35 -15 5 3 10 10 10 16 0 12 -37 12 -45
-1z"/>
<path d="M3755 3320 c-4 -6 5 -10 20 -10 15 0 24 4 20 10 -3 6 -12 10 -20 10
-8 0 -17 -4 -20 -10z"/>
<path d="M4135 3320 c-8 -12 20 -24 35 -15 6 3 8 11 5 16 -8 12 -32 12 -40 -1z"/>
<path d="M4133 3228 c2 -7 14 -13 27 -13 13 0 25 6 28 13 2 8 -7 12 -28 12
-21 0 -30 -4 -27 -12z"/>
<path d="M4793 3323 c-7 -2 -13 -18 -13 -35 0 -25 3 -29 23 -26 17 2 22 10 22
32 0 30 -10 38 -32 29z"/>
<path d="M5035 3320 c-4 -6 5 -10 19 -10 14 0 26 5 26 10 0 6 -9 10 -19 10
-11 0 -23 -4 -26 -10z"/>
<path d="M5550 3275 c0 -8 6 -15 14 -15 7 0 19 7 26 15 11 13 8 15 -14 15 -16
0 -26 -5 -26 -15z"/>
<path d="M7345 3320 c-4 -6 5 -10 19 -10 14 0 26 5 26 10 0 6 -9 10 -19 10
-11 0 -23 -4 -26 -10z"/>
<path d="M7730 3315 c0 -8 9 -15 20 -15 11 0 20 7 20 15 0 8 -9 15 -20 15 -11
0 -20 -7 -20 -15z"/>
<path d="M7725 3230 c-8 -13 20 -24 40 -16 8 3 15 10 15 16 0 13 -47 13 -55 0z"/>
<path d="M7855 3280 c-8 -12 20 -24 35 -15 5 3 10 10 10 16 0 12 -37 12 -45
-1z"/>
<path d="M8115 3320 c-4 -6 5 -10 19 -10 14 0 26 5 26 10 0 6 -9 10 -19 10
-11 0 -23 -4 -26 -10z"/>
<path d="M8625 3320 c-4 -6 7 -10 25 -10 18 0 29 4 25 10 -3 6 -15 10 -25 10
-10 0 -22 -4 -25 -10z"/>
<path d="M9532 3318 c-17 -17 -15 -48 4 -55 23 -8 47 20 39 46 -7 23 -25 27
-43 9z"/>
<path d="M9785 3320 c-4 -6 5 -10 20 -10 15 0 24 4 20 10 -3 6 -12 10 -20 10
-8 0 -17 -4 -20 -10z"/>
<path d="M10295 3280 c-8 -12 20 -24 35 -15 5 3 10 10 10 16 0 12 -37 12 -45
-1z"/>
<path d="M12085 3320 c-4 -6 7 -10 24 -10 17 0 31 5 31 10 0 6 -11 10 -24 10
-14 0 -28 -4 -31 -10z"/>
<path d="M2347 3013 c-4 -3 -7 -19 -7 -35 0 -21 5 -28 19 -28 26 0 44 25 36
50 -6 19 -34 27 -48 13z"/>
<path d="M2595 3010 c-4 -6 7 -10 25 -10 18 0 29 4 25 10 -3 6 -15 10 -25 10
-10 0 -22 -4 -25 -10z"/>
<path d="M2725 2969 c-4 -6 -5 -13 -1 -16 8 -8 56 6 56 17 0 13 -47 13 -55 -1z"/>
<path d="M1825 2690 c-4 -6 7 -10 24 -10 17 0 31 5 31 10 0 6 -11 10 -24 10
-14 0 -28 -4 -31 -10z"/>
<path d="M2205 2690 c-4 -6 8 -10 30 -10 22 0 34 4 30 10 -3 6 -17 10 -30 10
-13 0 -27 -4 -30 -10z"/>
<path d="M7607 2373 c-4 -3 -7 -19 -7 -35 0 -21 5 -28 20 -28 23 0 39 26 33
51 -5 19 -33 26 -46 12z"/>
<path d="M4250 2365 c0 -51 2 -55 23 -55 31 0 47 18 47 55 0 37 -16 55 -47 55
-21 0 -23 -4 -23 -55z"/>
<path d="M9782 2408 c-6 -6 -12 -22 -12 -35 l0 -24 30 23 c17 12 29 27 27 33
-5 15 -31 17 -45 3z"/>
<path d="M9802 2354 c-33 -26 -34 -44 -3 -44 24 0 43 24 39 49 -3 20 -4 20
-36 -5z"/>
<path d="M2345 2370 c-4 -6 5 -10 20 -10 15 0 24 4 20 10 -3 6 -12 10 -20 10
-8 0 -17 -4 -20 -10z"/>
<path d="M2727 2374 c-11 -11 -8 -52 3 -59 6 -3 19 -3 31 0 28 9 23 59 -6 63
-12 2 -24 0 -28 -4z"/>
<path d="M3105 2370 c-4 -6 8 -10 30 -10 22 0 34 4 30 10 -3 6 -17 10 -30 10
-13 0 -27 -4 -30 -10z"/>
<path d="M3620 2370 c0 -5 14 -10 31 -10 17 0 28 4 24 10 -3 6 -17 10 -31 10
-13 0 -24 -4 -24 -10z"/>
<path d="M4390 2370 c0 -5 14 -10 31 -10 17 0 28 4 24 10 -3 6 -17 10 -31 10
-13 0 -24 -4 -24 -10z"/>
<path d="M5030 2370 c0 -5 14 -10 31 -10 17 0 28 4 24 10 -3 6 -17 10 -31 10
-13 0 -24 -4 -24 -10z"/>
<path d="M6700 2324 c0 -10 7 -14 22 -12 32 5 35 28 4 28 -17 0 -26 -5 -26
-16z"/>
<path d="M7085 2370 c-4 -6 7 -10 25 -10 18 0 29 4 25 10 -3 6 -15 10 -25 10
-10 0 -22 -4 -25 -10z"/>
<path d="M7223 2373 c-7 -2 -13 -18 -13 -34 0 -27 3 -30 28 -27 23 2 27 8 27
33 0 29 -15 40 -42 28z"/>
<path d="M7470 2324 c0 -10 7 -14 22 -12 32 5 35 28 4 28 -17 0 -26 -5 -26
-16z"/>
<path d="M7725 2370 c-4 -6 7 -10 24 -10 17 0 31 5 31 10 0 6 -11 10 -24 10
-14 0 -28 -4 -31 -10z"/>
<path d="M8750 2324 c0 -10 7 -14 22 -12 32 5 35 28 4 28 -17 0 -26 -5 -26
-16z"/>
<path d="M8880 2365 c0 -11 7 -15 23 -13 12 2 22 8 22 13 0 6 -10 11 -22 13
-16 2 -23 -2 -23 -13z"/>
<path d="M8875 2280 c-8 -12 17 -23 41 -18 10 1 19 9 22 16 5 15 -54 17 -63 2z"/>
<path d="M9010 2324 c0 -10 7 -14 22 -12 32 5 35 28 4 28 -17 0 -26 -5 -26
-16z"/>
<path d="M9520 2370 c0 -5 14 -10 31 -10 17 0 28 4 24 10 -3 6 -17 10 -31 10
-13 0 -24 -4 -24 -10z"/>
<path d="M1310 1735 c-18 -22 -3 -57 23 -53 31 4 39 68 9 68 -11 0 -25 -7 -32
-15z"/>
<path d="M1440 1735 c-18 -22 -1 -50 31 -50 20 0 24 5 24 30 0 23 -5 31 -21
33 -11 2 -27 -4 -34 -13z"/>
<path d="M1695 1740 c-4 -6 7 -10 24 -10 17 0 31 5 31 10 0 6 -11 10 -24 10
-14 0 -28 -4 -31 -10z"/>
<path d="M1320 1415 c0 -8 6 -15 14 -15 8 0 16 7 20 15 4 10 -1 15 -14 15 -11
0 -20 -7 -20 -15z"/>
<path d="M1820 1420 c0 -5 14 -10 30 -10 17 0 30 5 30 10 0 6 -13 10 -30 10
-16 0 -30 -4 -30 -10z"/>
<path d="M2207 1424 c-11 -12 3 -24 29 -24 15 0 24 6 24 15 0 15 -40 21 -53 9z"/>
<path d="M2200 1324 c0 -11 8 -14 32 -12 46 4 49 28 4 28 -26 0 -36 -4 -36
-16z"/>
<path d="M2335 1420 c-4 -6 8 -10 30 -10 22 0 34 4 30 10 -3 6 -17 10 -30 10
-13 0 -27 -4 -30 -10z"/>
<path d="M2590 1415 c-6 -8 -9 -23 -5 -35 8 -25 51 -27 64 -2 20 38 -31 71
-59 37z"/>
<path d="M2975 1420 c-4 -6 8 -10 30 -10 22 0 34 4 30 10 -3 6 -17 10 -30 10
-13 0 -27 -4 -30 -10z"/>
<path d="M2724 1149 c-3 -6 -2 -15 4 -21 6 -6 11 -2 15 11 5 22 -7 29 -19 10z"/>
<path d="M2750 1070 c0 -11 5 -20 10 -20 6 0 10 9 10 20 0 11 -4 20 -10 20 -5
0 -10 -9 -10 -20z"/>
<path d="M2472 1108 c-17 -17 -15 -47 3 -54 21 -9 47 15 43 40 -4 24 -28 32
-46 14z"/>
<path d="M3507 1114 c-13 -13 -8 -64 7 -64 19 0 38 26 34 47 -3 18 -29 29 -41
17z"/>
<path d="M1452 1108 c-17 -17 -15 -48 4 -55 23 -8 47 20 39 46 -7 23 -25 27
-43 9z"/>
<path d="M1695 1110 c-4 -6 7 -10 25 -10 18 0 29 4 25 10 -3 6 -15 10 -25 10
-10 0 -22 -4 -25 -10z"/>
<path d="M2215 1069 c-4 -6 -5 -13 -2 -16 8 -7 47 7 47 18 0 13 -37 11 -45 -2z"/>
<path d="M2855 1110 c-4 -6 5 -10 19 -10 14 0 26 5 26 10 0 6 -9 10 -19 10
-11 0 -23 -4 -26 -10z"/>
<path d="M3240 1105 c0 -8 9 -15 20 -15 11 0 20 7 20 15 0 8 -9 15 -20 15 -11
0 -20 -7 -20 -15z"/>
<path d="M3235 1020 c-8 -13 20 -24 40 -16 8 3 15 10 15 16 0 13 -47 13 -55 0z"/>
<path d="M3365 1070 c-8 -12 20 -24 35 -15 5 3 10 10 10 16 0 12 -37 12 -45
-1z"/>
<path d="M3625 1110 c-4 -6 5 -10 19 -10 14 0 26 5 26 10 0 6 -9 10 -19 10
-11 0 -23 -4 -26 -10z"/>
<path d="M1800 780 l0 -150 55 0 55 0 0 150 0 150 -55 0 -55 0 0 -150z m80 80
c0 -5 -9 -10 -20 -10 -18 0 -20 -7 -20 -85 0 -78 2 -85 20 -85 11 0 20 -4 20
-10 0 -5 -11 -10 -25 -10 l-25 0 0 105 0 105 25 0 c14 0 25 -4 25 -10z"/>
<path d="M4490 780 l0 -150 55 0 55 0 0 150 0 150 -55 0 -55 0 0 -150z m80
-15 l0 -105 -25 0 c-14 0 -25 5 -25 10 0 6 7 10 15 10 12 0 15 16 15 85 0 69
-3 85 -15 85 -8 0 -15 5 -15 10 0 6 11 10 25 10 l25 0 0 -105z"/>
<path d="M2084 829 c-3 -6 -1 -16 5 -22 8 -8 11 -5 11 11 0 24 -5 28 -16 11z"/>
<path d="M2110 749 c0 -11 5 -17 10 -14 6 3 10 13 10 21 0 8 -4 14 -10 14 -5
0 -10 -9 -10 -21z"/>
<path d="M3367 793 c-10 -10 -8 -51 2 -57 19 -12 41 7 41 35 0 21 -5 29 -18
29 -10 0 -22 -3 -25 -7z"/>
<path d="M4260 814 c-14 -35 -8 -39 25 -18 28 18 29 37 2 42 -11 2 -21 -6 -27
-24z"/>
<path d="M4287 774 c-28 -24 -29 -44 -3 -44 20 0 38 26 34 49 -3 19 -4 19 -31
-5z"/>
<path d="M2353 793 c-7 -2 -13 -18 -13 -35 0 -25 3 -29 23 -26 17 2 22 10 22
32 0 30 -10 38 -32 29z"/>
<path d="M2595 790 c-4 -6 7 -10 25 -10 18 0 29 4 25 10 -3 6 -15 10 -25 10
-10 0 -22 -4 -25 -10z"/>
<path d="M3115 749 c-4 -6 -5 -13 -2 -16 8 -7 47 7 47 18 0 13 -37 11 -45 -2z"/>
<path d="M3755 790 c-4 -6 5 -10 20 -10 15 0 24 4 20 10 -3 6 -12 10 -20 10
-8 0 -17 -4 -20 -10z"/>
<path d="M3881 786 c-15 -18 -5 -56 13 -56 19 0 38 26 34 47 -4 23 -31 28 -47
9z"/>
<path d="M5285 790 c-4 -6 8 -10 30 -10 22 0 34 4 30 10 -3 6 -17 10 -30 10
-13 0 -27 -4 -30 -10z"/>
<path d="M5677 473 c-13 -12 -7 -54 8 -59 21 -9 45 14 45 42 0 18 -5 24 -23
24 -13 0 -27 -3 -30 -7z"/>
<path d="M2590 465 c0 -46 3 -55 18 -55 28 0 42 21 42 61 0 36 -12 49 -46 49
-10 0 -14 -14 -14 -55z"/>
<path d="M6184 495 c-10 -39 -1 -45 29 -19 30 26 28 44 -3 44 -12 0 -22 -9
-26 -25z"/>
<path d="M6212 456 c-33 -29 -34 -46 -2 -46 21 0 43 32 38 57 -2 13 -9 11 -36
-11z"/>
<path d="M1830 470 c-11 -7 -7 -10 18 -10 20 0 31 4 27 10 -8 13 -26 13 -45 0z"/>
<path d="M2210 465 c-15 -18 -7 -43 16 -52 24 -9 46 24 33 48 -12 23 -32 24
-49 4z"/>
<path d="M3110 424 c0 -10 7 -14 22 -12 32 5 35 28 4 28 -17 0 -26 -5 -26 -16z"/>
<path d="M3620 465 c0 -9 9 -15 25 -15 16 0 25 6 25 15 0 9 -9 15 -25 15 -16
0 -25 -6 -25 -15z"/>
<path d="M3615 380 c-8 -12 17 -23 41 -18 10 1 19 9 22 16 5 15 -54 17 -63 2z"/>
<path d="M3745 470 c-4 -6 8 -10 30 -10 22 0 34 4 30 10 -3 6 -17 10 -30 10
-13 0 -27 -4 -30 -10z"/>
<path d="M4004 466 c-11 -28 1 -51 25 -51 32 0 49 28 32 49 -17 20 -50 21 -57
2z"/>
<path d="M4390 470 c0 -5 14 -10 31 -10 17 0 28 4 24 10 -3 6 -17 10 -31 10
-13 0 -24 -4 -24 -10z"/>
<path d="M5800 470 c0 -5 14 -10 31 -10 17 0 28 4 24 10 -3 6 -17 10 -31 10
-13 0 -24 -4 -24 -10z"/>
<path d="M6447 474 c-10 -11 3 -24 24 -24 10 0 19 7 19 15 0 15 -31 21 -43 9z"/>
<path d="M6440 375 c0 -10 10 -15 30 -15 20 0 30 5 30 15 0 10 -10 15 -30 15
-20 0 -30 -5 -30 -15z"/>
<path d="M6570 470 c0 -5 14 -10 31 -10 17 0 28 4 24 10 -3 6 -17 10 -31 10
-13 0 -24 -4 -24 -10z"/>
<path d="M6830 424 c0 -10 7 -14 22 -12 32 5 35 28 4 28 -17 0 -26 -5 -26 -16z"/>
<path d="M2472 198 c-14 -14 -16 -48 -4 -48 14 0 53 46 45 53 -10 11 -28 8
-41 -5z"/>
<path d="M2489 141 c-19 -15 -21 -22 -12 -32 18 -18 43 -3 43 26 0 30 -1 30
-31 6z"/>
<path d="M1830 160 c-11 -7 -7 -10 18 -10 20 0 31 4 27 10 -8 13 -26 13 -45 0z"/>
</g>
</svg>
