<?xml version="1.0" standalone="no"?>
<!DOCTYPE svg PUBLIC "-//W3C//DTD SVG 20010904//EN"
 "http://www.w3.org/TR/2001/REC-SVG-20010904/DTD/svg10.dtd">
<svg version="1.0" xmlns="http://www.w3.org/2000/svg"
 width="1219.000000pt" height="245.000000pt" viewBox="0 0 1219.000000 245.000000"
 preserveAspectRatio="xMidYMid meet">

<g transform="translate(0.000000,245.000000) scale(0.100000,-0.100000)"
fill="#000000" stroke="none">
<path d="M0 2319 l0 -130 27 21 28 22 23 -27 c13 -15 21 -30 18 -33 -3 -2 -14
6 -25 19 l-19 24 -26 -24 c-32 -30 -35 -80 -7 -105 17 -15 20 -15 34 -1 26 25
32 17 7 -10 -22 -23 -25 -24 -42 -8 -17 16 -18 -14 -18 -925 0 -518 4 -942 8
-942 4 0 16 23 27 52 10 29 20 47 22 41 5 -14 -36 -131 -48 -139 -5 -3 -9 -39
-9 -80 l0 -74 950 0 950 0 0 25 c0 16 6 25 15 25 9 0 15 -9 15 -25 l0 -25
1435 0 1435 0 1 78 c1 49 4 68 8 52 5 -16 13 -24 25 -22 30 5 46 -18 46 -64 0
-41 2 -44 26 -44 20 0 25 5 24 23 -1 12 -1 36 0 52 2 22 5 16 9 -20 5 -42 10
-51 29 -53 20 -3 22 1 22 42 0 25 4 48 10 51 6 4 10 -13 10 -44 l0 -51 35 0
c34 0 35 1 35 40 0 31 -4 40 -17 40 -17 1 -17 1 0 14 9 7 17 19 17 27 0 8 7 4
16 -9 8 -12 23 -22 32 -23 10 -1 7 -4 -8 -8 -20 -5 -26 -14 -28 -44 l-3 -37
60 0 c61 0 61 0 61 29 0 16 -6 36 -13 43 -10 11 -9 16 5 31 10 9 18 12 18 7 0
-6 12 -16 28 -22 l27 -12 -27 -4 c-24 -3 -28 -8 -28 -38 0 -34 0 -34 45 -34
43 0 45 1 45 28 0 15 5 33 12 40 28 28 78 1 78 -44 0 -17 5 -24 20 -24 16 0
20 7 20 36 0 35 1 35 38 32 32 -3 38 -7 47 -36 l9 -32 3328 0 3328 0 0 1225
c0 1303 2 1246 -46 1210 -24 -18 -58 -19 -92 -1 -20 10 -70 15 -175 15 l-147
2 3 -57 c2 -48 -1 -58 -22 -75 -21 -17 -41 -19 -210 -19 -102 0 -201 4 -220
10 -38 11 -69 42 -77 79 -3 14 -8 34 -11 43 -4 17 -285 18 -5599 18 l-5594 0
0 -131z m364 -124 c3 -8 12 -15 19 -15 8 0 20 7 27 15 7 8 17 15 23 15 6 0 0
-11 -13 -25 -13 -14 -29 -25 -36 -25 -6 0 -19 11 -28 25 -9 14 -12 25 -7 25 5
0 11 -7 15 -15z m376 0 c0 -8 -4 -15 -9 -15 -13 0 -22 16 -14 24 11 11 23 6
23 -9z m902 -43 c3 -12 -1 -18 -12 -18 -14 0 -15 4 -6 18 6 10 11 18 12 18 1
0 4 -8 6 -18z m-912 -33 c0 -5 -4 -9 -10 -9 -5 0 -10 7 -10 16 0 8 5 12 10 9
6 -3 10 -10 10 -16z m865 11 c3 -5 1 -10 -4 -10 -6 0 -11 5 -11 10 0 6 2 10 4
10 3 0 8 -4 11 -10z m79 -15 c-4 -8 -8 -15 -10 -15 -2 0 -4 7 -4 15 0 8 4 15
10 15 5 0 7 -7 4 -15z m2333 4 c8 -8 17 -7 34 2 24 12 24 12 5 -9 -17 -20 -17
-22 -2 -28 9 -4 19 -4 22 -1 7 7 54 -37 54 -50 0 -14 -48 -45 -58 -39 -13 8
-35 -11 -28 -23 9 -15 36 -14 36 1 0 6 3 8 6 5 4 -4 1 -13 -6 -22 -9 -10 -17
-12 -30 -5 -10 5 -31 8 -47 6 -15 -2 -20 -1 -10 1 21 5 19 38 -3 38 -38 2 -75
45 -51 59 5 3 8 -2 7 -11 0 -10 7 -19 17 -21 12 -2 17 3 17 17 0 12 -4 21 -9
21 -8 0 -6 21 5 58 4 15 26 16 41 1z m-2904 -6 c-24 -2 -62 -2 -85 0 -24 2 -5
4 42 4 47 0 66 -2 43 -4z m-687 -61 c-3 -2 -14 5 -23 17 l-18 22 -30 -22 -30
-23 30 33 30 32 23 -27 c13 -14 21 -29 18 -32z m2001 26 c-3 -8 -6 -5 -6 6 -1
11 2 17 5 13 3 -3 4 -12 1 -19z m1845 11 c-18 -7 -23 -15 -20 -36 2 -22 10
-29 33 -34 l30 -7 -32 -1 c-27 -1 -32 -5 -36 -28 -2 -16 -5 2 -6 38 -1 72 2
79 33 78 20 0 20 -1 -2 -10z m-2592 -9 c0 -5 -5 -10 -11 -10 -5 0 -7 5 -4 10
3 6 8 10 11 10 2 0 4 -4 4 -10z m3010 0 c-20 -13 -33 -13 -25 0 3 6 14 10 23
10 15 0 15 -2 2 -10z m60 -40 c0 -22 -18 -37 -50 -42 -16 -2 -27 -12 -31 -28
-5 -16 -7 -4 -7 35 1 33 3 48 5 33 4 -23 9 -28 34 -28 35 0 48 23 29 54 -12
19 -12 20 3 7 10 -7 17 -21 17 -31z m-2493 8 c-3 -8 -6 -5 -6 6 -1 11 2 17 5
13 3 -3 4 -12 1 -19z m2919 -44 c8 3 14 -1 14 -10 0 -8 7 -27 16 -42 l16 -27
-22 28 c-12 15 -26 27 -31 27 -5 0 -9 -12 -10 -27 0 -24 -1 -25 -8 -8 -4 11
-7 34 -5 50 6 75 7 79 11 42 3 -29 8 -37 19 -33z m-4446 46 c0 -5 -4 -10 -10
-10 -5 0 -10 5 -10 10 0 6 5 10 10 10 6 0 10 -4 10 -10z m910 -11 c0 -5 -4 -9
-8 -9 -5 0 -9 7 -9 15 0 8 4 12 9 9 4 -3 8 -9 8 -15z m477 -1 c-3 -8 -6 -5 -6
6 -1 11 2 17 5 13 3 -3 4 -12 1 -19z m2210 0 c-3 -8 -6 -5 -6 6 -1 11 2 17 5
13 3 -3 4 -12 1 -19z m-2110 -10 c-3 -8 -6 -5 -6 6 -1 11 2 17 5 13 3 -3 4
-12 1 -19z m2275 -25 c-7 -65 -12 -67 -12 -5 0 29 4 52 9 52 5 0 6 -21 3 -47z
m122 38 c3 -4 -5 -6 -18 -4 -36 7 -40 -14 -6 -32 38 -19 40 -29 3 -12 -34 14
-43 26 -36 44 6 14 49 18 57 4z m657 -48 c-1 -29 3 -50 11 -55 10 -7 10 -9 -2
-5 -11 2 -16 20 -18 63 -2 32 0 55 4 51 4 -4 7 -28 5 -54z m-467 20 c-10 -40
-14 -41 -14 -5 0 18 5 32 10 32 6 0 8 -11 4 -27z m96 23 c0 -2 -7 -7 -16 -10
-8 -3 -12 -2 -9 4 6 10 25 14 25 6z m44 -19 c16 -25 -4 -71 -33 -75 -13 -2
-28 2 -35 8 -8 9 -4 10 18 4 44 -11 64 37 29 72 -12 12 -13 16 -4 13 8 -3 19
-13 25 -22z m126 19 c0 -2 -7 -7 -16 -10 -8 -3 -12 -2 -9 4 6 10 25 14 25 6z
m40 -37 c0 -20 -24 -26 -35 -9 -3 6 1 7 9 4 19 -7 21 16 4 36 -11 12 -10 12 5
1 9 -7 17 -22 17 -32z m-726 -2 c-24 -14 3 -40 34 -32 15 4 21 2 17 -5 -18
-29 -75 7 -75 47 0 21 2 22 20 11 17 -11 17 -14 4 -21z m1016 14 c15 -28 14
-29 -35 -33 -25 -2 -45 0 -45 4 0 5 18 8 40 8 32 0 38 3 33 16 -4 11 -15 15
-34 12 -15 -3 -26 -1 -23 4 10 16 53 8 64 -11z m-950 -1 c0 -5 -10 -10 -22
-10 -19 0 -20 2 -8 10 19 13 30 13 30 0z m1052 -57 c0 -31 -5 -60 -9 -64 -4
-4 -6 24 -5 62 4 83 16 85 14 2z m82 23 c19 -5 26 -13 25 -29 l0 -22 -9 23
c-5 12 -18 22 -29 22 -18 0 -32 19 -30 43 0 7 4 2 9 -9 5 -12 20 -24 34 -28z
m136 34 c0 -5 -5 -10 -11 -10 -5 0 -7 5 -4 10 3 6 8 10 11 10 2 0 4 -4 4 -10z
m-853 -32 c-3 -7 -5 -2 -5 12 0 14 2 19 5 13 2 -7 2 -19 0 -25z m174 -5 c-9
-16 -10 -14 -11 12 0 21 3 26 11 18 8 -8 8 -16 0 -30z m654 -3 c-3 -4 2 -13
10 -20 8 -7 15 -17 15 -23 0 -6 -7 -1 -16 11 -13 19 -18 21 -32 10 -13 -11
-14 -10 -4 8 6 12 8 24 4 28 -3 4 1 4 11 0 9 -3 15 -10 12 -14z m-119 -48
c-10 -2 -22 0 -28 6 -6 6 0 7 19 4 21 -5 23 -7 9 -10z m-2608 -321 c-15 -5
-19 4 -11 24 6 18 7 18 13 -1 4 -10 3 -21 -2 -23z m485 29 c-13 -5 -23 -16
-23 -25 0 -9 10 -20 23 -25 l22 -9 -22 0 c-20 -1 -23 -7 -25 -43 l-1 -43 -4
43 c-3 28 -9 42 -19 42 -8 0 -14 4 -14 10 0 5 7 7 15 4 10 -4 15 0 15 13 0 23
19 43 40 42 9 0 6 -4 -7 -9z m-925 -75 c11 -27 11 -28 -3 -11 -14 19 -15 19
-36 0 -22 -19 -22 -19 -8 4 8 12 18 22 23 22 4 0 1 11 -8 25 -9 13 -16 27 -16
31 0 12 36 -40 48 -71z m1257 65 c7 -12 -2 -12 -30 0 -19 8 -19 9 2 9 12 1 25
-3 28 -9z m-1355 -20 c0 -14 -6 -20 -22 -19 -17 1 -19 2 -5 6 9 2 17 11 17 19
0 8 2 14 5 14 3 0 5 -9 5 -20z m167 -27 c-3 -10 -5 -2 -5 17 0 19 2 27 5 18 2
-10 2 -26 0 -35z m61 16 c-3 -8 -7 -3 -11 10 -4 17 -3 21 5 13 5 -5 8 -16 6
-23z m174 -13 c-6 -48 -12 -46 -12 5 0 22 4 38 8 35 4 -3 6 -21 4 -40z m48 34
c0 -5 -7 -7 -15 -4 -8 4 -15 8 -15 10 0 2 7 4 15 4 8 0 15 -4 15 -10z m1022
-70 c-4 -45 -2 -51 19 -59 15 -6 18 -10 8 -10 -25 -1 -37 19 -39 64 -3 65 -1
82 9 67 4 -7 6 -35 3 -62z m267 63 c-12 -3 -20 -23 -27 -71 -8 -58 -9 -61 -11
-24 0 26 -6 42 -13 42 -9 0 -10 2 -2 8 6 4 14 17 18 30 5 14 15 22 29 21 15
-1 17 -3 6 -6z m-1790 -10 c0 -5 -4 -17 -9 -28 -8 -18 -9 -17 -9 8 -1 15 4 27
9 27 6 0 10 -3 9 -7z m1406 -40 c-3 -26 -8 -49 -10 -52 -7 -6 -6 50 1 77 10
37 15 25 9 -25z m-491 23 c-3 -9 4 -15 20 -18 17 -4 26 0 29 11 2 10 4 8 3 -4
-1 -16 -7 -19 -29 -17 -25 3 -28 0 -25 -20 2 -17 9 -23 26 -22 16 0 20 -2 12
-10 -16 -16 -44 6 -48 38 -3 28 3 56 12 56 3 0 3 -6 0 -14z m-522 -21 c-6 -36
-19 -40 -14 -4 2 16 8 29 12 29 4 0 5 -11 2 -25z m893 -60 c15 0 22 9 27 35
l6 35 -1 -34 c-2 -41 -27 -61 -51 -42 -10 9 -15 28 -14 55 l1 41 6 -45 c5 -36
10 -45 26 -45z m982 56 c-7 -2 -14 -7 -17 -12 -3 -4 -14 -1 -24 7 -18 13 -18
14 -2 14 9 0 15 4 12 9 -4 5 5 4 19 -2 13 -7 19 -14 12 -16z m624 19 c25 -14
24 -80 -2 -80 -5 0 -4 9 3 20 10 15 10 25 2 38 -14 22 -44 28 -55 10 -7 -10
-9 -9 -9 5 0 19 30 23 61 7z m-2542 -48 c14 -11 13 -12 -6 -2 -15 7 -23 19
-22 33 1 20 2 20 6 2 3 -11 13 -25 22 -33z m233 19 c2 -17 1 -28 -4 -25 -8 5
-12 54 -4 54 2 0 6 -13 8 -29z m265 -23 c-2 -13 -4 -5 -4 17 -1 22 1 32 4 23
2 -10 2 -28 0 -40z m1010 -15 c-2 -16 -4 -5 -4 22 0 28 2 40 4 28 2 -13 2 -35
0 -50z m52 -29 c-6 -8 -17 -14 -23 -14 -6 0 -3 5 7 11 12 7 18 24 19 57 l1 47
4 -43 c3 -25 -1 -50 -8 -58z m68 14 c-2 -18 -4 -6 -4 27 0 33 2 48 4 33 2 -15
2 -42 0 -60z m61 11 l-3 -44 -5 52 c-3 29 -1 48 3 44 5 -5 7 -28 5 -52z m72
46 c-7 -8 -10 -30 -8 -49 2 -19 0 -32 -4 -30 -12 8 -9 69 4 82 17 17 23 15 8
-3z m51 -2 c13 -16 12 -17 -3 -4 -10 7 -18 15 -18 17 0 8 8 3 21 -13z m1240 0
c11 -15 11 -16 -1 -5 -8 6 -24 12 -37 12 -20 0 -23 -5 -23 -35 0 -30 3 -35 25
-35 13 0 29 8 34 18 6 9 11 12 11 7 0 -18 -23 -35 -46 -35 -18 0 -24 -7 -27
-32 -2 -18 -5 2 -5 45 l-2 77 29 0 c16 0 35 -8 42 -17z m-2608 -13 c3 -11 1
-18 -4 -14 -5 3 -9 12 -9 20 0 20 7 17 13 -6z m407 12 c0 -4 -12 -8 -27 -7
-23 0 -28 -4 -27 -22 0 -12 -3 -20 -8 -17 -13 8 -9 42 5 47 20 9 57 8 57 -1z
m1177 -39 c-3 -10 -5 -2 -5 17 0 19 2 27 5 18 2 -10 2 -26 0 -35z m143 32 c6
-8 10 -22 7 -32 -4 -14 -5 -13 -6 5 -1 27 -26 39 -46 22 -9 -8 -15 -8 -15 -2
0 22 43 28 60 7z m-2255 -5 c-3 -5 -12 -10 -18 -10 -7 0 -6 4 3 10 19 12 23
12 15 0z m2322 -67 c-2 -16 -4 -3 -4 27 0 30 2 43 4 28 2 -16 2 -40 0 -55z
m64 55 c4 -71 3 -88 -3 -88 -3 0 -8 25 -10 55 -1 30 0 55 5 55 4 0 8 -10 8
-22z m1340 -64 c5 -6 5 -14 0 -20 -5 -5 -11 -18 -14 -29 -3 -11 -4 16 -4 60 0
44 2 62 4 40 3 -22 9 -45 14 -51z m433 68 c-18 -11 -34 -49 -34 -77 0 -31 24
-81 42 -88 7 -2 10 -8 6 -12 -4 -4 -18 4 -32 18 -35 35 -38 125 -5 158 11 11
24 18 27 14 4 -3 2 -9 -4 -13z m126 -52 c6 -21 7 -51 4 -68 -7 -33 -39 -70
-51 -58 -4 3 3 13 15 22 33 23 31 106 -2 139 -27 27 -22 44 6 18 10 -9 23 -33
28 -53z m-1460 -5 l-7 -50 -2 60 c0 34 3 55 8 50 4 -6 5 -32 1 -60z m58 53
c15 -15 16 -28 2 -28 -5 0 -10 6 -10 14 0 8 -8 17 -17 19 -14 4 -14 5 -2 6 8
0 20 -4 27 -11z m1673 -2 c-7 -9 -12 -46 -12 -88 0 -58 4 -75 18 -86 17 -13
17 -14 -2 -10 -13 2 -21 12 -23 28 -6 57 -13 70 -35 71 l-22 2 23 4 c22 4 26
11 22 50 -2 29 7 43 27 43 12 0 13 -3 4 -14z m-3624 -18 c-3 -8 -6 -5 -6 6 -1
11 2 17 5 13 3 -3 4 -12 1 -19z m1049 -4 c1 -14 10 -32 20 -40 18 -13 18 -14
-1 -7 -25 8 -35 22 -35 51 0 31 15 28 16 -4z m718 12 c-6 -16 19 -28 42 -19 9
3 13 12 9 22 -5 12 -3 13 6 4 20 -20 3 -43 -32 -43 -26 0 -31 -3 -26 -20 3
-11 1 -18 -4 -14 -10 6 -12 67 -2 77 10 11 13 8 7 -7z m253 -5 c0 -11 -5 -18
-9 -15 -4 3 -5 11 -1 19 7 21 12 19 10 -4z m913 -41 c-8 -34 -8 -33 -9 15 0
34 3 45 9 35 4 -9 5 -31 0 -50z m-1288 15 c-6 -34 -12 -32 -12 6 0 16 4 28 9
25 4 -3 6 -17 3 -31z m625 -47 c-2 -18 -4 -6 -4 27 0 33 2 48 4 33 2 -15 2
-42 0 -60z m67 66 c9 -24 2 -26 -12 -4 -7 11 -8 20 -3 20 5 0 12 -7 15 -16z
m209 9 c-7 -2 -19 -2 -25 0 -7 3 -2 5 12 5 14 0 19 -2 13 -5z m-143 -13 c0 -5
-5 -10 -11 -10 -5 0 -7 5 -4 10 3 6 8 10 11 10 2 0 4 -4 4 -10z m60 -15 c11
-29 -3 -75 -22 -75 -10 0 -10 2 1 9 9 6 12 22 9 50 -4 47 -1 51 12 16z m213
15 c-29 -12 -29 -26 -1 -33 28 -8 41 1 33 22 -5 12 -3 13 6 4 20 -20 3 -43
-32 -43 -26 0 -31 -3 -26 -20 3 -11 1 -18 -4 -14 -14 8 -11 82 4 87 6 3 19 5
27 6 8 0 5 -4 -7 -9z m156 -28 c-10 -17 -10 -24 1 -39 13 -17 13 -17 -5 -1
-17 15 -17 20 -5 43 7 14 15 23 17 21 3 -2 -1 -13 -8 -24z m269 16 c14 -14 16
-48 3 -48 -5 0 -7 9 -4 20 4 14 -1 22 -18 29 -14 6 -18 10 -8 10 8 1 20 -4 27
-11z m-1771 -20 c-3 -8 -6 -5 -6 6 -1 11 2 17 5 13 3 -3 4 -12 1 -19z m751
-16 c5 -30 -43 -42 -66 -17 -16 16 -16 16 4 5 12 -7 29 -10 38 -7 20 8 21 37
2 37 -8 0 -18 4 -21 10 -4 6 2 7 17 1 13 -4 24 -18 26 -29z m966 23 c-4 -9 2
-18 17 -24 l24 -10 -24 0 c-18 -1 -22 -5 -18 -21 3 -11 1 -20 -4 -20 -10 0
-12 73 -2 83 10 11 13 8 7 -8z m-657 -17 c-3 -8 -6 -5 -6 6 -1 11 2 17 5 13 3
-3 4 -12 1 -19z m-1192 2 c15 -6 9 -9 -25 -9 -34 0 -40 3 -25 9 11 5 22 9 25
9 3 0 14 -4 25 -9z m112 -6 c-3 -3 -12 -4 -19 -1 -8 3 -5 6 6 6 11 1 17 -2 13
-5z m4224 -14 c20 -11 26 -45 8 -55 -5 -4 -21 -4 -35 -1 -36 9 -33 56 4 65 2
1 12 -4 23 -9z m-3116 -29 c-6 -5 -25 10 -25 20 0 5 6 4 14 -3 8 -7 12 -15 11
-17z m546 -19 c-7 -2 -18 1 -23 6 -8 8 -4 9 13 5 13 -4 18 -8 10 -11z m-406
-22 c-18 -20 -35 -26 -35 -12 0 4 10 12 23 18 32 16 32 16 12 -6z m3020 -35
c42 -41 33 -55 -34 -55 -93 0 -114 17 -71 60 28 28 75 26 105 -5z m-5829 -80
c-11 -8 -25 -15 -32 -15 -27 0 -23 -20 7 -35 17 -9 29 -19 26 -22 -8 -8 -67
30 -67 42 0 6 15 19 33 28 40 20 58 21 33 2z m102 -11 c12 -8 22 -21 22 -27 0
-13 -58 -43 -66 -34 -3 2 9 10 26 17 27 11 41 30 22 30 -5 0 -17 7 -28 15 -26
19 -4 19 24 -1z m492 -383 l0 -78 -37 1 c-35 1 -38 3 -44 39 -7 45 13 81 41
72 13 -4 19 1 24 20 11 44 16 27 16 -54z m-134 24 c-11 -8 -25 -15 -32 -15
-27 0 -23 -20 7 -35 17 -9 29 -19 26 -21 -8 -9 -67 26 -67 39 0 14 47 45 70
46 11 0 10 -3 -4 -14z m224 -45 c0 -38 4 -50 15 -50 8 0 15 -4 15 -10 0 -5
-15 -10 -34 -10 -19 0 -38 5 -41 10 -3 6 1 10 9 10 9 0 16 6 16 14 0 7 3 27 6
44 5 24 2 31 -12 35 -16 4 -15 5 4 6 20 1 22 -3 22 -49z m94 -1 l13 -44 18 43
c10 24 20 41 22 38 8 -8 -28 -106 -38 -106 -11 0 -25 34 -35 86 -9 50 3 40 20
-17z m292 -356 c-2 -38 -4 -74 -5 -82 -2 -35 -16 5 -16 47 0 40 -3 47 -20 47
-27 0 -35 -63 -10 -81 10 -7 12 -15 6 -18 -19 -12 -44 41 -37 78 7 38 22 48
49 34 14 -7 17 -4 17 17 0 14 4 25 10 25 6 0 8 -27 6 -67z m94 57 c0 -5 -5
-10 -11 -10 -5 0 -7 5 -4 10 3 6 8 10 11 10 2 0 4 -4 4 -10z m489 -20 c4 0 5
-29 3 -64 -4 -62 -3 -65 24 -80 19 -10 23 -15 12 -16 -42 -1 -48 10 -48 81 0
55 -3 69 -15 69 -8 0 -15 5 -15 11 0 6 7 8 16 5 9 -3 19 -6 23 -6z m-709 -9
c0 -5 -13 -14 -30 -20 -38 -13 -38 -22 1 -44 18 -10 29 -20 26 -23 -6 -6 -77
38 -77 48 0 4 17 16 38 27 44 24 42 23 42 12z m220 -51 c0 -36 4 -52 15 -56
29 -11 15 -20 -26 -16 -35 4 -48 17 -16 17 7 0 13 19 15 43 3 36 0 44 -20 51
-23 10 -22 10 5 10 26 1 27 -1 27 -49z m98 -6 c14 -51 27 -51 36 1 4 19 12 37
18 41 13 8 5 -30 -17 -83 -19 -44 -30 -42 -44 11 -6 24 -13 51 -17 60 -3 9 -2
16 3 16 5 0 14 -20 21 -46z m907 -20 l20 -59 5 65 c4 41 9 59 13 49 11 -23 4
-152 -9 -156 -5 -2 -16 19 -23 47 -17 67 -31 72 -31 11 0 -28 -4 -51 -10 -51
-6 0 -10 34 -10 81 0 97 15 102 45 13z m-609 42 c10 -8 15 -18 11 -22 -4 -5
-12 -2 -16 5 -15 24 -46 8 -49 -25 -4 -36 21 -65 40 -46 17 17 33 15 18 -3
-32 -39 -85 -2 -76 53 8 51 35 65 72 38z m262 -60 c2 -27 -2 -54 -7 -59 -8 -8
-11 -2 -11 21 0 27 -4 32 -25 32 -31 0 -34 -27 -3 -39 13 -4 17 -10 11 -14
-17 -10 -41 2 -48 24 -9 26 11 49 41 49 16 0 24 6 24 16 0 13 -7 15 -30 10
-20 -4 -29 -2 -25 5 4 5 21 9 38 7 31 -3 32 -5 35 -52z m120 34 c4 -12 2 -13
-9 -2 -18 16 -36 15 -43 -3 -4 -10 6 -20 30 -30 28 -11 35 -19 32 -37 -2 -19
-9 -23 -37 -23 -22 0 -36 6 -39 15 -5 13 -3 13 11 1 9 -7 24 -11 32 -7 25 9
17 34 -15 41 -23 5 -30 12 -30 29 0 13 3 26 7 30 12 12 56 2 61 -14z m132 -6
c0 -13 -3 -14 -15 -4 -16 13 -45 7 -45 -9 0 -5 14 -14 30 -20 17 -5 33 -17 36
-26 14 -36 -50 -62 -76 -30 -10 12 -6 13 24 8 29 -4 36 -2 36 11 0 8 -11 18
-25 22 -57 14 -56 64 1 64 25 0 34 -4 34 -16z m780 -16 c0 -36 -4 -35 -14 5
-4 16 -2 27 4 27 5 0 10 -14 10 -32z m-520 3 c15 -29 13 -104 -2 -98 -7 2 -12
13 -10 24 3 22 -19 36 -43 27 -21 -8 -19 -20 8 -39 l22 -16 -25 3 c-20 2 -25
9 -25 33 0 27 4 30 33 33 35 4 40 13 17 32 -12 10 -18 10 -30 0 -8 -7 -15 -8
-15 -3 0 29 55 32 70 4z m136 -56 l1 -60 -6 55 c-3 30 -10 55 -16 55 -5 0 -12
-25 -14 -55 l-5 -55 -5 54 c-8 76 -31 81 -31 6 0 -33 -4 -54 -10 -50 -5 3 -9
30 -9 61 l1 55 47 -3 46 -3 1 -60z m122 43 c7 -7 12 -20 12 -30 0 -14 -8 -18
-36 -18 -28 0 -35 -3 -32 -17 2 -12 13 -18 31 -18 29 1 32 -18 3 -23 -29 -6
-56 27 -56 69 0 20 6 40 13 42 22 10 53 7 65 -5z m119 -14 c-3 -3 -12 -4 -19
-1 -8 3 -5 6 6 6 11 1 17 -2 13 -5z m268 -4 c3 -6 -1 -7 -9 -4 -18 7 -21 14
-7 14 6 0 13 -4 16 -10z m911 -70 l1 -75 -4 72 c-3 64 -6 72 -26 76 -19 5 -18
5 3 4 24 -2 25 -4 26 -77z m-964 30 c-2 -22 -6 -40 -8 -40 -2 0 -4 18 -4 40 0
22 3 40 8 40 4 0 6 -18 4 -40z m265 -42 c-2 -18 -4 -6 -4 27 0 33 2 48 4 33 2
-15 2 -42 0 -60z m71 41 c-3 -8 -7 -3 -11 10 -4 17 -3 21 5 13 5 -5 8 -16 6
-23z m99 25 c-3 -3 -12 -4 -19 -1 -8 3 -5 6 6 6 11 1 17 -2 13 -5z m-239 -51
c-1 -37 -2 -40 -5 -15 -3 22 -10 32 -21 32 -24 0 -39 -12 -45 -35 -4 -16 -5
-15 -6 6 -1 27 14 39 50 39 10 0 19 5 19 10 0 6 2 10 5 10 3 0 4 -21 3 -47z
m205 -7 c3 -30 1 -43 -4 -35 -8 13 -13 97 -5 88 2 -2 6 -26 9 -53z m141 -46
c4 -8 0 -6 -8 4 -10 12 -15 37 -15 60 l2 41 6 -45 c4 -25 10 -52 15 -60z m61
58 c2 -19 -1 -42 -8 -52 -10 -13 -11 -7 -9 39 4 62 10 66 17 13z m225 23 c-40
-11 -31 -36 13 -36 20 0 37 -3 37 -7 0 -5 -19 -8 -41 -8 -36 0 -41 -2 -36 -20
3 -11 1 -18 -4 -14 -13 8 -11 68 3 82 7 7 21 12 33 11 17 -1 16 -2 -5 -8z
m727 -43 c-2 -13 -4 -5 -4 17 -1 22 1 32 4 23 2 -10 2 -28 0 -40z m-1779 35
c-10 -2 -26 -2 -35 0 -10 3 -2 5 17 5 19 0 27 -2 18 -5z m689 -40 c-3 -10 -5
-4 -5 12 0 17 2 24 5 18 2 -7 2 -21 0 -30z m776 30 c-7 -2 -21 -2 -30 0 -10 3
-4 5 12 5 17 0 24 -2 18 -5z m104 -55 c-2 -13 -4 -5 -4 17 -1 22 1 32 4 23 2
-10 2 -28 0 -40z m60 46 c-3 -3 -12 -4 -19 -1 -8 3 -5 6 6 6 11 1 17 -2 13 -5z
m258 -14 c3 -5 2 -10 -4 -10 -5 0 -13 5 -16 10 -3 6 -2 10 4 10 5 0 13 -4 16
-10z m415 -21 c0 -11 -4 -17 -10 -14 -5 3 -10 15 -10 26 0 11 5 17 10 14 6 -3
10 -15 10 -26z m-650 -20 c0 -18 -4 -28 -10 -24 -5 3 -10 20 -10 36 0 18 4 28
10 24 6 -3 10 -20 10 -36z m57 -21 c-2 -13 -4 -3 -4 22 0 25 2 35 4 23 2 -13
2 -33 0 -45z m344 45 c13 -15 12 -15 -7 -3 -36 22 -57 6 -52 -40 2 -22 0 -40
-4 -40 -13 0 -9 88 5 93 24 10 45 7 58 -10z m-7971 -3 c0 -5 -5 -10 -11 -10
-5 0 -7 5 -4 10 3 6 8 10 11 10 2 0 4 -4 4 -10z m7263 3 c-7 -2 -21 -2 -30 0
-10 3 -4 5 12 5 17 0 24 -2 18 -5z m834 1 c-3 -3 -12 -4 -19 -1 -8 3 -5 6 6 6
11 1 17 -2 13 -5z m-679 -71 c12 -10 13 -13 1 -12 -19 1 -57 17 -41 18 6 1 13
15 13 34 l2 32 4 -30 c2 -16 12 -36 21 -42z m1349 45 c-3 -8 -6 -5 -6 6 -1 11
2 17 5 13 3 -3 4 -12 1 -19z m-1057 -23 c0 -13 -4 -27 -10 -30 -6 -4 -10 8
-10 30 0 22 4 34 10 30 6 -3 10 -17 10 -30z m419 -22 c1 -26 -1 -44 -6 -40 -4
5 -8 18 -8 30 0 30 -61 39 -68 10 -3 -15 -4 -14 -3 2 1 15 9 21 34 23 20 2 32
9 32 18 0 8 4 13 8 10 5 -3 9 -26 11 -53z m201 17 l-8 -35 -1 31 c-1 17 2 34
6 37 11 12 12 3 3 -33z m155 30 c3 -5 2 -10 -4 -10 -5 0 -13 5 -16 10 -3 6 -2
10 4 10 5 0 13 -4 16 -10z m59 -6 c9 -23 4 -24 -16 -2 -14 14 -15 18 -4 18 8
0 17 -7 20 -16z m-8390 -11 c4 -9 1 -20 -5 -24 -8 -5 -10 -22 -6 -53 5 -38 4
-44 -9 -39 -22 8 -16 133 6 133 4 0 11 -8 14 -17z m304 -25 c31 -3 39 -34 23
-89 -9 -33 -9 -32 -10 19 -1 45 -4 52 -21 52 -14 0 -21 -9 -25 -37 -10 -58
-13 -62 -14 -18 -1 52 12 128 17 98 2 -15 11 -23 30 -25z m6417 32 c-3 -5 -21
-9 -38 -9 l-32 2 35 7 c19 4 36 8 38 9 2 0 0 -3 -3 -9z m1533 -26 c-3 -14 -5
-12 -10 9 -3 19 -2 25 4 19 6 -6 8 -18 6 -28z m276 27 c3 -4 -6 -6 -19 -3 -14
2 -25 6 -25 8 0 8 39 4 44 -5z m-8699 -78 c-10 -55 -18 -30 -9 29 5 34 9 44
12 29 2 -13 1 -39 -3 -58z m105 17 c0 -27 -5 -52 -12 -56 -8 -5 -9 5 -5 39 4
28 2 49 -4 52 -17 11 -39 -16 -39 -46 0 -15 -4 -31 -10 -34 -11 -7 -13 37 -4
72 6 21 36 33 62 25 7 -3 12 -23 12 -52z m289 14 c-7 -9 -9 -30 -6 -55 4 -28
2 -39 -6 -36 -15 5 -17 107 -3 125 8 11 11 10 19 -3 5 -10 4 -21 -4 -31z
m8244 26 c3 -11 1 -18 -4 -14 -5 3 -9 12 -9 20 0 20 7 17 13 -6z m323 -6 c24
-14 44 -29 44 -33 0 -9 -66 -41 -83 -41 -7 1 5 10 26 21 20 11 37 22 37 24 0
3 -18 14 -40 25 -22 11 -40 23 -40 25 0 9 12 5 56 -21z m-8694 -8 c4 -6 8 -19
8 -28 0 -14 -8 -18 -36 -18 -24 0 -34 -4 -31 -12 2 -7 16 -12 31 -11 23 2 26
0 16 -13 -30 -35 -78 2 -66 51 12 48 55 65 78 31z m533 -55 c-4 -39 -11 -71
-16 -71 -5 0 -7 12 -4 28 2 15 7 49 10 75 10 75 18 47 10 -32z m-455 63 c0 -2
-9 -13 -20 -24 -12 -12 -20 -33 -20 -52 0 -17 -3 -28 -7 -24 -7 6 -5 85 2 96
4 7 45 11 45 4z m218 -102 c11 2 21 20 29 48 l11 45 1 -45 c1 -54 -5 -64 -41
-68 -22 -2 -29 2 -34 23 -3 14 -2 42 2 63 l9 37 3 -53 c3 -44 6 -53 20 -50z
m122 78 c0 -5 -6 -10 -14 -10 -17 0 -26 -22 -26 -61 0 -16 -4 -29 -10 -29 -11
0 -13 33 -4 79 5 24 12 31 30 31 13 0 24 -4 24 -10z m7814 -23 c4 -19 3 -26
-4 -22 -5 3 -10 18 -10 32 0 32 5 28 14 -10z m-7606 11 c16 -16 15 -70 -1 -93
-19 -25 -63 -14 -69 18 -11 58 36 109 70 75z m6957 2 c16 -7 13 -9 -17 -9 -20
-1 -40 4 -43 9 -7 12 32 12 60 0z m145 0 c0 -5 -12 -10 -27 -9 l-28 1 25 8
c14 4 26 8 28 9 1 1 2 -3 2 -9z m415 -26 c-9 -7 -24 -10 -33 -6 -13 5 -10 8
11 10 17 2 27 9 28 20 0 13 2 14 6 3 3 -8 -2 -20 -12 -27z m-7391 -44 c-3 -36
-11 -71 -17 -78 -16 -20 -61 -11 -66 13 -3 17 -1 18 13 6 17 -14 46 -8 46 10
0 6 -7 9 -15 5 -25 -9 -53 27 -47 60 7 43 20 54 58 51 l35 -2 -7 -65z m7252
42 c-10 -2 -22 0 -28 6 -6 6 0 7 19 4 21 -5 23 -7 9 -10z m441 -7 c-4 -8 -17
-14 -29 -14 l-23 2 23 4 c12 2 22 12 22 20 0 9 3 14 6 10 4 -3 4 -13 1 -22z
m-7660 -37 c-3 -7 -5 -2 -5 12 0 14 2 19 5 13 2 -7 2 -19 0 -25z m3599 -33
c-11 -8 -26 -15 -33 -15 -23 0 -14 -18 17 -37 17 -9 30 -21 30 -26 0 -9 -10
-4 -52 25 -36 25 -35 31 5 51 40 20 58 21 33 2z m-3913 -2 c-13 -2 -33 -2 -45
0 -13 2 -3 4 22 4 25 0 35 -2 23 -4z"/>
<path d="M3970 2100 c0 -15 5 -20 18 -18 9 2 17 10 17 18 0 8 -8 16 -17 18
-13 2 -18 -3 -18 -18z"/>
<path d="M3997 2064 c-23 -23 7 -69 37 -58 25 10 17 58 -9 62 -12 2 -24 0 -28
-4z m33 -24 c0 -5 -4 -10 -10 -10 -5 0 -10 5 -10 10 0 6 5 10 10 10 6 0 10 -4
10 -10z"/>
<path d="M4074 2045 c-9 -23 10 -40 25 -22 9 11 8 17 -4 27 -12 10 -16 9 -21
-5z"/>
<path d="M9062 1403 c2 -10 14 -19 26 -21 19 -3 23 1 20 15 -2 10 -14 19 -26
21 -19 3 -23 -1 -20 -15z"/>
<path d="M9058 1329 c-35 -20 -21 -39 27 -39 25 0 48 0 52 -1 11 -1 14 14 5
27 -11 17 -64 25 -84 13z"/>
<path d="M3850 865 c-19 -23 -8 -70 18 -73 20 -3 22 1 22 36 0 43 -20 61 -40
37z"/>
<path d="M5850 395 c-11 -13 -8 -15 20 -15 21 0 30 4 28 13 -7 18 -33 20 -48
2z"/>
<path d="M307 224 c-13 -13 -7 -24 14 -24 11 0 19 5 17 12 -5 14 -22 21 -31
12z"/>
<path d="M930 171 c-22 -42 2 -78 35 -51 20 16 19 56 -1 64 -22 8 -22 8 -34
-13z"/>
<path d="M1047 173 c-4 -3 -7 -19 -7 -35 0 -37 37 -40 46 -4 9 37 -17 62 -39
39z"/>
<path d="M12078 2443 c12 -2 30 -2 40 0 9 3 -1 5 -23 4 -22 0 -30 -2 -17 -4z"/>
<path d="M11435 2430 c-3 -5 -1 -10 4 -10 6 0 11 5 11 10 0 6 -2 10 -4 10 -3
0 -8 -4 -11 -10z"/>
<path d="M11685 2369 c-4 -6 -5 -12 -2 -15 2 -3 7 2 10 11 7 17 1 20 -8 4z"/>
<path d="M4822 88 c-24 -24 -11 -88 18 -88 17 0 30 26 30 62 0 23 -33 41 -48
26z"/>
<path d="M5343 63 c-7 -3 -13 -18 -13 -34 0 -24 4 -29 25 -29 20 0 25 5 25 24
0 26 -19 46 -37 39z"/>
<path d="M5467 53 c-4 -3 -7 -17 -7 -30 0 -18 5 -23 25 -23 20 0 25 5 25 24 0
13 -7 27 -16 30 -19 7 -19 7 -27 -1z"/>
</g>
</svg>
